<svg width="53" height="59" viewBox="0 0 53 59" fill="none" xmlns="http://www.w3.org/2000/svg">
<path d="M22.63 59C22.6098 59 22.5893 58.999 22.5687 58.997C22.2284 58.9641 21.9796 58.666 22.0129 58.3311C22.7677 50.7743 29.0998 44.748 34.5321 40.342C35.3761 39.6575 36.2476 38.9663 37.0905 38.2978C42.1198 34.3093 47.3203 30.185 50.1026 24.8003C51.0006 23.0624 51.5568 21.0859 51.711 19.0844C51.8661 17.0713 51.6106 15.0719 50.9722 13.3026C49.9275 10.4069 47.9398 8.24865 45.2244 7.06109C43.3077 6.22287 41.0508 5.90063 38.6978 6.12889C36.4592 6.34617 34.2431 7.04091 32.2891 8.13807C28.8594 10.0639 25.9637 13.2068 23.6823 17.4799C23.5496 17.7283 23.2615 17.8556 22.9848 17.7879C22.7079 17.7203 22.5139 17.4753 22.5148 17.1947C22.5252 13.9336 22.5358 10.5615 21.2689 7.48355C20.6316 5.93513 19.6366 4.54247 18.3917 3.45589C17.0512 2.28584 15.4787 1.54167 13.8444 1.30375C10.9077 0.876337 7.56622 2.11508 5.33087 4.45983C3.46601 6.41601 2.2633 9.03334 1.65386 12.4614C1.04147 15.9061 1.10657 19.5887 1.84738 23.4068C2.51666 26.8564 3.73833 30.4337 5.47849 34.0394C8.79214 40.9055 13.5777 47.2264 18.2058 53.3391C18.4101 53.6089 18.3533 53.9907 18.0791 54.1917C17.8047 54.3927 17.4169 54.3369 17.2125 54.0671C12.5485 47.9069 7.72575 41.537 4.35969 34.5621C2.5744 30.8629 1.31984 27.1866 0.630816 23.6353C-0.138167 19.6719 -0.204429 15.8418 0.433887 12.2514C1.07716 8.63327 2.42075 5.73133 4.42758 3.62626C5.61512 2.38058 7.10718 1.38684 8.74237 0.752652C10.488 0.0755107 12.315 -0.150839 14.0258 0.098434C15.8988 0.371088 17.6927 1.21693 19.2138 2.54448C20.6008 3.75497 21.7084 5.30476 22.417 7.02628C23.463 9.56722 23.6966 12.3168 23.7441 14.9176C25.939 11.4379 28.6 8.80661 31.6754 7.07982C33.7794 5.89842 36.1658 5.1503 38.5763 4.91634C41.1421 4.66714 43.6152 5.02395 45.7275 5.9477C48.7611 7.27434 50.9784 9.67666 52.1396 12.895C53.5567 16.8226 53.208 21.4796 51.2068 25.3526C48.3042 30.9699 42.9986 35.1775 37.8677 39.2466C37.0275 39.913 36.1586 40.602 35.3199 41.2823C30.0714 45.5391 23.9559 51.3374 23.2456 58.4502C23.2142 58.7649 22.9447 59 22.63 59Z" fill="#CC4646"/>
</svg>
