<svg xmlns="http://www.w3.org/2000/svg" width="1350" height="1080" viewBox="0 0 1350 1080">
  <defs>
    <style>
      .cls-1 {
        fill: #7c8558;
        fill-rule: evenodd;
      }
    </style>
  </defs>
  <path id="Preenchimento_de_Cor_1" data-name="Preenchimento de Cor 1" class="cls-1" d="M1010.87,26.129a37.192,37.192,0,0,1,14.15,2.177v0.544c-8.37-.015-14.66,2.764-20.14,2.177-0.18-.907-0.36-1.815-0.55-2.722Zm9.25,15.786h1.09c8.26,8.571,12.97,29.874,11.43,45.726-0.36-.181-0.72-0.363-1.09-0.544-0.75-17.1-6.48-30.237-12.52-41.915C1019.4,44.093,1019.76,43,1020.12,41.915Zm51.71,1.633,3.27,0.544c1.82,3.263,2.73,6.718,1.09,10.887h-2.18V53.891C1072.71,50.956,1071.51,45.6,1071.83,43.548Zm14.7,0c5.44,1.786,7.57,20.513,5.45,25.585-11.27,4.912-20.05,19.876-24.5,31.573-2.04,5.351-2.89,18.666-8.17,20.685l-0.54-1.089c5.36-14.929,8.89-29.4,17.42-40.826q7.08-6.532,14.15-13.065C1090.22,58,1085.39,47.653,1086.53,43.548ZM947.722,45.726c10.5,2.443,13.779,14.9,10.887,27.218-9.392,1.407-.711-8.255-2.178-14.7l-5.443-8.165c-3.757.091-3.957,0.742-5.988,2.178-1.9,6.1-8.883,21.273-15.242,22.863l1.089-1.633C933.921,65.547,940.8,50.39,947.722,45.726Zm-44.637,6.532,8.709,14.7c-1.1,4.351-5.106,15.617-8.165,19.052L902,84.919c0.205-3.524.444-6.24-1.633-7.621h-4.9l0.544-1.633,1.089-1.089c3.35-.61,4.78.114,8.165,0.544q0.273-.816.544-1.633C910.628,67.581,903.433,59.991,903.085,52.258Zm25.04,4.355,3.81,1.089,1.089,3.266-1.089,1.089-3.81-2.722V56.613ZM879.133,58.79l4.355,0.544c-3.7,2.566-9.5,12.061-3.811,16.875l4.355-1.633c-0.871,2.864-1.876,2.775-3.81,4.355-2.612-.481-3.238-0.76-4.355-2.722C873.091,70.045,876.862,62,879.133,58.79Zm94.718,9.8,2.722,1.089q0.272,1.361.544,2.722c-3.156,3.437-5.135,8.418-9.254,10.887l-1.633-.544c-0.426-5.3-2.684-5.487-5.444-8.165V74.032l9.8,1.633Q972.217,72.127,973.851,68.589Zm130.1,2.722c1.45,0.544,2.9,1.089,4.36,1.633,2.32,9.043.67,21.156-1.09,29.939l-3.27,1.089-0.54-.545C1103.93,92.071,1106.91,82.119,1103.95,71.311Zm-88.73,2.722c2.2,0.22,2.13.178,3.27,1.089,6.17,4.53,3.81,23.948,3.81,34.294v72.4q1.635,13.606,3.26,27.217h-1.63l-4.35-32.661q0.27-33.2.54-66.411c-1.62-10.9,2.74-25.776-3.81-31.573h-0.54c-4.19,27.47-1.64,62.6-1.64,91.452,0,9.3,3.84,28.931-.54,33.205-0.55-.363-1.09-0.725-1.63-1.088q-0.285-45.994-.55-92C1009.34,96.219,1008.61,80.568,1015.22,74.032Zm-188.345,4.9,2.177,1.089c1.534,7.6,6.421,12.346,5.444,19.052h-0.544L824.7,88.186l-1.089.544a37.325,37.325,0,0,0,11.431,26.129h0.545c2.949-2.329,4.7-5.356,7.621-7.621l2.721,0.544,1.633,1.089c0.23,14.811-6.754,16.908-8.709,28.851l0.544,0.544,2.722-2.177,4.9-8.71h0.544c-1.085,7.532-5.273,13.21-9.8,17.419q-1.089-.816-2.177-1.633a26.818,26.818,0,0,0-1.089-10.887c4.7-3.822,10.757-13.308,9.8-20.685H843.75l-1.089,1.088c-4.617,2.32-4.481,8.2-8.709,10.343l-1.089-2.177c-2.374,8-6.612,7.894-9.8,13.609-1.243,7.185,2.188,17.053,0,25.584-1.81,7.054-6.547,10.758-7.621,18.508l0.544,0.545L817.077,178l3.81-4.355,1.089,1.089c-4.608,9.41-14.486,25.994-23.952,30.484l-2.177-1.633,11.976-13.609c4.556-6.962,11.282-30.309,13.064-39.738,2.26-11.96-11.6-25.926-6.532-31.573,3.443,2.666,3.016,8.323,4.9,12.521h2.177l6.533-4.355,2.721-11.432c-1.538-8.274-13.6-19.806-9.254-29.939a8.792,8.792,0,0,0,5.444-2.177V78.932Zm11.431,4.355h1.634l3.266,3.266V87.1l-7.077-1.633,1.089-1.633Zm23.408,0h1.633l3.81,7.077h-0.544c-2.436-1.419-4-2.433-5.444-4.9Q861.442,84.375,861.714,83.286Zm-118.125.544c2.425,0.407,2.288.68,3.81,1.633l-1.089,7.621h-1.088c0.269-2.142.506-2.174-.545-3.811l-1.088,1.633L742.5,93.629l2.177,1.089c-0.936,5.852-3.8,9.166-4.9,14.153,7,5.279,3.409.184,10.887,2.722l4.9,5.443c4.758,3.335,11.148,2.022,14.7,6.533l-10.887-1.089c-1.016,4.869,3.064,12.714-1.089,14.7-2.049-7.273-4.095-17.529-8.165-22.862a8.184,8.184,0,0,0-4.355,1.088l-1.089,12.52-1.088-.544c-0.385-3.029-.909-3.469-2.722-4.9h-1.633V125.2c5.32,18.745,5.468,42.378,15.786,56.068,4.625,6.136,11.508,4.253,17.964,8.71v0.544c-27.119.229-27.057-25.919-32.117-47.9-1.756-7.63-6.319-16.162-4.9-25.04l1.088-.545,5.988,2.178c-1.958-14.583-20.225-13.849-27.217-23.407l0.544-1.089c8.815,0.423,17.9,7.448,23.407,5.443C739.485,91.955,740.521,88.143,743.589,83.831Zm107.782,3.81H853l1.633,1.633c-2.033,1.877-3.084,1.394-3.81,4.9,3.663,4.54,7.206,10.686,15.242,7.621-1.032,2.228-2.047,2.892-4.355,3.811-8.53,2.108-14.49-10.813-17.42-16.331Zm126.29,0.544c3.616,0.414,4.863,1.653,7.077,3.266,2.444,7.232,1.041,24.213-5.444,27.217v-1.633c1.828-5.114,6.59-15.128,3.811-21.774C981.831,92.215,978.877,91.6,977.661,88.186Zm143.169,1.089q3.255,0.544,6.53,1.089c0.72,1.089,1.45,2.178,2.18,3.266,2.26,7.589-1.23,15.956-3.81,20.686h-2.18c-0.18-.363-0.36-0.726-0.55-1.089,1.21-6.041,4.73-10.811,3.81-17.964C1124.75,92.58,1121.39,92.023,1120.83,89.274Zm-229.721.544c1.816,2,1.654,6.5,2.177,9.8l-1.633-1.089A31.65,31.65,0,0,1,891.109,89.819ZM872.6,93.085l1.089,0.544q-0.273,1.905-.545,3.81h-1.089Q872.329,95.262,872.6,93.085Zm-147.52,5.444-0.545,1.089,2.722,1.633,1.089-1.089Zm148.609,5.444q0.816,3.81,1.633,7.621h-0.545V110.5C873.421,108.536,873.484,106.333,873.69,103.972Zm-162.218,1.633h1.633c4.548,3.4,5.54,8.735,13.064,9.254l7.077-4.9V110.5c-0.957,2.513-1.544,4.191-3.811,5.444C722.275,122.493,712.942,110.973,711.472,105.605Zm284.7,2.177c2.307,0.17,2.158-.034,3.266,1.089,3.175,4.308,1.2,11.824,2.175,18.508V178c1.44,9.823,3.14,24.075,0,32.661-0.54-.363-1.09-0.726-1.63-1.088v-1.089c-6.84-26.976,7.06-70.83-2.722-94.718-7.317,8-2.872,71.725-6.532,88.186h-1.633v-1.089C985.825,189.606,992.023,113.982,996.169,107.782Zm137.721,3.266c12.12,3.315-2.15,24.673-12.52,22.863v-1.633C1134.34,127.5,1131.67,123.017,1133.89,111.048Zm-359.273,1.633h1.633c3.676,3.073,5.884,9.837,8.165,14.154q-0.271.544-.544,1.088c-4.327-1.48-4.515-6.053-7.621-8.709l-1.089.544,1.089,26.129h-0.544C774.3,136.2,770.8,121.819,774.617,112.681Zm12.52,8.166c3.413,2.1.728,14.232-2.177,16.875l-1.089-.545C783.743,130.411,785.288,125.771,787.137,120.847Zm160.04,0c4.09,4.15,7.838,13.247,8.71,20.141l-2.177-1.633C951.543,133.259,947.728,129.005,947.177,120.847Zm-150.786.544c2.425,0.407,2.289.68,3.811,1.633,2.156,6.386,1.551,14.15-4.355,16.875v-0.544C798.538,133.174,798.537,127.8,796.391,121.391Zm68.044,8.71c9.59,2.946,7.081,21.374,7.077,33.75q-0.271,49.8-.544,99.617l-3.266-1.089q0.543-45.993,1.088-92c0-14.365,1.817-30.574-4.9-38.105Q864.164,131.189,864.435,130.1ZM1128.45,135h1.63l3.27,2.722c-0.37.726-.73,1.451-1.09,2.177-4.43,8.525-23.53,10.873-34.3,8.166l-0.54-1.089v-0.545c11.98,1.331,23.81-1.958,31.03-7.076V135ZM650.5,253.669l1.089,13.609-1.633-1.088q-2.178-7.349-4.355-14.7l-9.8-3.266c-6.683-2.664-16.939-10.276-19.052-17.42l1.633-1.088a64.381,64.381,0,0,0,15.786,7.076v-1.633c-3.147-7.189-2.034-14.279-4.9-22.863-0.6-1.79-4.915-15.554-5.988-17.419-1.154-2.007-3.189-.832-4.355-3.81l8.166-9.8c-2.466-5.337-9.045-11.388-5.444-19.052l5.444,1.088q0.545-.272,1.088-0.544c-0.51-7.917-4.29-20.671,1.634-25.585H632c1.52,2.345,3.111,5.991,5.988,7.077a15.111,15.111,0,0,1,6.532-8.165c1.851,0.732,1.127.33,2.178,1.633-3.293,7.838-17.559,25.908-14.154,33.75,4.561-2.946,8.353-7.133,14.154-8.71,0.871,1.08.706,0.756,1.088,2.722-6.268,6.288-17.073,11.55-17.963,22.863,7.669,11.27,1.792,13.657,4.354,28.306,1.321,7.552,3.336,15.932,4.9,22.863l-1.633.544-9.8-1.633v0.545l3.811,4.355c4.458,1.512,7.9,3.819,13.608,4.354l3.811-3.81,10.887,12.52q-0.272,1.36-.544,2.722h-0.545c-2.753-1.327-3.428-3.493-5.443-5.444H650.5Zm270-117.58h1.089c-1.735,10.7-11.051,24.919-18.508,30.484-1.852-.733-1.127-0.331-2.178-1.633C906.758,154.946,916.406,148.405,920.5,136.089Zm-55.524,120.3-3.811-1.089q-0.544-58.512-1.088-117.036l1.633-.544C863.359,175.962,864.652,219.221,864.98,256.391ZM683.71,138.81c14.412,4.349,11.383,22.159,11.431,34.295,0.017,4.214,2.112,8.046,0,10.887l-3.81.544a20.734,20.734,0,0,0-1.089-7.621l-1.089-.544a8.174,8.174,0,0,0-4.355,1.089q0.273,4.626.545,9.254h-2.178l-5.443-4.9h-0.545a38.143,38.143,0,0,0,8.166,17.419l1.633-1.089q1.632-5.715,3.266-11.431h1.089l-2.178,10.342L689.7,197.6l1.088-1.089,16.331-10.887,1.089,2.722c-5.125,3.5-19.09,12.274-20.686,18.508-1.117,4.362,3.025,6,3.811,9.8-6.092,7.519-21.6,16.677-22.319,27.218,2.905,4.158,4.852,8.79,3.266,16.331a3.791,3.791,0,0,1-2.177-.545c0.1-9.063-3.4-10.866-4.355-17.419,5.347-10.823,14.874-17.4,22.863-25.585q-0.273-1.089-.544-2.177c-8.474.453-8.443,5.849-13.065,9.8l4.355-9.254v-0.544c-5.258,1.229-6.7,5.274-11.976,2.177,0.22-2.194.178-2.129,1.089-3.266l4.9,1.633c3.825-3.425,6.4-7.035,9.8-10.887-0.273-10.682-7.8-16.816-11.431-25.04L673.367,178c2.395-.867,4.257.319,6.532,1.089,1.029-5.091,1.328-9.539,4.355-12.52,3.573,0.937,3.325,2.658,6.532,3.81q0.273-1.089.545-2.177C693.812,157.828,681.466,149.678,683.71,138.81Zm163.85,0c1.132,1.1.743,0.545,1.089,2.722l-1.089-.544V138.81Zm0,2.722c-0.859,6.45-18.915,28.341-25.584,31.573V172.56c1.177-2.427,1.5-6.465,3.266-9.254l5.988-2.177C838,156.693,840.914,146.587,847.56,141.532Zm-217.741.545c-0.351,7.171-.347,14.2,1.088,20.141H632c1.452-7.192,4.468-12.338,0-20.141h-2.177Zm-54.436,1.088c4.9,3.267,8.731,18.542,5.444,26.129-1.487,3.432-5.153,5.131-7.621,7.621v0.545c23.655,7.791,32.914,44.825,38.1,72.943l2.178,16.331q-0.273-.545-0.544-1.089c-4.794-7.4-.925-30.188-9.8-33.2,0.6,4.133,1.386,8.232-2.177,9.8-5.614-18.122-22.089-18.478-25.041-29.94,14.206-1.6,17.662,3.556,25.585,8.71v-3.266c-4.388-10.5-11.512-25.123-20.141-31.573-14.787-11.053-31.1,1.439-28.306-27.217l1.088-1.089,2.178,1.089q1.632,3.537,3.266,7.076h4.9l-1.089,1.633h-9.8v0.545l1.089,2.177c6,1.009,8.981,4.584,16.33,3.266v-2.177c-4.3-6.081-8.173-10.364-2.722-17.964l2.178,1.633,3.81,14.7,1.089-.545C580.093,158.3,573.232,152.81,575.383,143.165Zm142.077,5.988,10.342,1.089-0.544,1.089H722.9c1.627,5.163,6.6,5.187,9.254,9.254-1.751,6.883-1.271,10.7,3.811,14.7l-0.545,1.089c-9.621-2.1-5.223-10.945-8.165-16.875l-14.153-8.71v-0.544Zm394.66,1.633h1.09c-0.69,1.646.01,0.651-1.09,1.633-0.37.363-.73,0.726-1.09,1.089-0.36-.181-0.73-0.363-1.09-0.544,0.36-.545.73-1.089,1.09-1.633C1111.39,151.149,1111.75,150.968,1112.12,150.786Zm-60.43,7.621c5.49,1.063,26.39,8.164,27.77,11.976h-2.73q-12.78-4.082-25.58-8.165c-0.18-.363-0.36-0.726-0.55-1.089C1050.97,160.222,1051.33,159.314,1051.69,158.407Zm-112.678,5.444c5.381-.171,11.169-0.078,14.7,1.633,0.74,5.274-.394,10.762,2.177,14.7,8.112-.172,17.72-2.585,23.407.545,0.171,13.245.961,27.072-6.532,32.661-3.185,2.376-6.219,2.271-8.165,5.988-2.4,8.78-2.489,25.429-.545,33.206,12.047,2.615,46.308,4.862,41.368,21.229-4.15,13.777-65.637,23.675-87.093,20.686-14.016-1.952-32.067,1.46-38.65-7.621-17.969-24.788,40.491-32.959,56.069-37.016,1.184-8.35.374-14.927-5.988-18.508l-3.266,1.633c-3.844,12.436-27.074,21.041-43.548,12.52l2.721-7.077,3.266,1.089q0.817,2.178,1.634,4.355c7.552,0.353,23.532,1.008,27.762-3.811,3.53-4.021,3.976-9.041,8.709-11.975l7.621,3.266,1.089-.545c0.326-7.446,1.383-14.421,0-21.229l-8.71-7.077c-3.191-4.418-8.894-21.491-10.342-26.673l5.987-8.166A31.535,31.535,0,0,0,939.012,163.851Zm-314.637,3.266c0,4.587,1.324,6.706,3.81,8.71h0.545v-2.722C627.706,170.113,627.121,168.425,624.375,167.117Zm316.27,0.544c-6.018,2.42-10.2,2.839-14.7,5.988-3.243,9.754.733,25.941,8.709,29.4,17.647,5.221,8.825-15.354,11.432-26.129L950.444,178v-1.633c1.074-3.209.7-6.128-1.634-7.621Zm105.065,2.722c3.5-.027,4.57.493,6.53,1.633,0.54,2.177,1.09,4.355,1.63,6.532h2.18q3.27-2.993,6.53-5.988v0.545c-1.21,3.947-5.29,12.561-10.34,8.71C1050.17,180.487,1045.59,171.671,1045.71,170.383Zm-198.694.544,4.355,2.178c4.477,16.514-3.083,34.762,0,53.891q1.089,19.868,2.177,39.738c-2.183-.315-1.628.025-2.721-1.089l-1.089-16.33q-0.273.543-.544,1.088c-2.048,4.6.54,10.174-3.267,13.609h-0.544c-0.244-8.978-.318-20.761,3.811-25.585-4.941-2.771-.54-12.981-1.634-20.685C846.034,206.986,837.861,183.281,847.016,170.927Zm-111.048,5.444c3.235-.022,4.231.164,5.443,2.177q1.089,18.234,2.178,36.472c5.052,33.493,4.47,74.655,2.177,109.96h-1.633l-1.089-.545c0.292-35.58.681-70.754-2.177-104.516-0.822-9.707,1.729-36.726-3.266-40.826-9.787,5.391-5.989,24.953-5.988,39.738q0.544,40.549,1.089,81.109c0.535,8.7,3.264,25.856.544,32.116h-1.633q-0.273-.272-0.544-0.544-1.362-74.3-2.722-148.609ZM847.56,177.46c-1.6,3.143-4.411,13.441,0,15.786l1.089-.544C849.961,188.616,850.622,180.329,847.56,177.46ZM965.141,182.9c-4.02,1.393-8.109.108-10.343,3.266-6.366,8.66-4.279,30.738,11.432,26.674,10.476-2.711,11.8-17.212,8.71-28.851l-1.634-.544Zm119.759,1.089c5.8,0.062,8.36,2.35,13.06,3.266,14,2.727,34.93-.147,35.39,15.786-11.09,18.392-50.4,13.35-75.67,17.42-13.39,2.156-30.05-2.286-30.48-14.154,5.84-13.511,26.89-17.561,43-20.685Zm-3.81,2.722c-19.26,7.579-42.81,2.248-50.63,20.685q1.1,2.722,2.18,5.444c18.89,8.483,53.29,4.964,75.67,0,7.63-1.693,23.2-3.229,21.23-11.976-3.53-14.231-24.46-8.23-39.74-11.432C1086.48,188.74,1085.56,186.959,1081.09,186.714Zm-455.082.544-2.177,2.722,1.088,1.089c1.855-.763,1.673-0.733,2.722-2.178C626.671,186.941,627.93,188.247,626.008,187.258Zm-135.544,1.633h3.266c5.534,7.821,15.825,12.54,17.964,23.407-7.756-2.681-12.3-14.693-19.6-19.052h-1.633l-1.089,2.722-2.177-4.355v-0.544ZM758.831,192.7c3.391,0.393,5.876,1.233,7.621,3.266v0.544c-3.38.125-6.207-.129-8.166-1.089v-0.544Q758.559,193.79,758.831,192.7Zm-133.367,2.177c0.113,2.348.142,2.628,1.088,3.811C627.316,196.384,627.224,196.125,625.464,194.879ZM757.2,201.411c5.419,1.905,5.422,7.758,10.342,9.8l11.432,0.544c-0.719,2.083,0,1.132-1.633,2.177-10.33,4.581-18.572-4.724-21.23-10.342Zm129.556,0.545h1.633l1.633,7.076,8.71,0.545-1.089,1.633-5.988,1.633c-2.482-1.625-3.67-1.932-4.9-4.9v-5.988Zm-256.935.544-1.089,1.633,1.633,2.177L632,203.589Zm361.451,1.633c3.453,0.476,3.645,1.383,5.444,3.266,0.409,7.554.058,12.451-4.9,14.7h-5.444l-2.177-1.089v-1.633c3.28-1.345,5.835-.071,8.709-1.633q0.817-3.538,1.633-7.077-0.544-.816-1.088-1.633c-2.369.662-1.855,0.772-3.811,0l-0.544-1.633Zm-44.637.544c-2.3,1.335-4.093,1.446-5.443,3.811-2.163,5.188-1.844,38.41,0,42.46,3.848,0.931,16.587,2.064,19.052-.545,1.119-3.167.971-28.417-.544-31.572Zm-420.786.545c3.671,3.972,1.974,22.459,2.722,28.306l-1.634-1.088q-1.632-3.811-3.266-7.621l-3.81,3.81-3.811-.544a7.568,7.568,0,0,1-4.354-4.355v-4.9l2.177-.545,9.254,5.444,1.089-.545C524.039,216.693,523.94,209.446,525.847,205.222ZM710.383,319.536l3.811,1.089c-0.418,6.112,1.805,21.594-1.089,25.585l-1.089-.545c-0.086-7.889-3.308-9.247-4.355-14.7l1.089-14.7V262.923q-0.816-18.234-1.633-36.471c2.935,0.278,3.378.421,5.443-.545l1.089-14.153,2.178,1.633c1.454,8.715,4.378,15.221,5.988,22.863q1.087,35.107,2.177,70.222c0,9.952,2.5,28.865-1.633,36.472l-1.633-.545-0.545-1.089c1.334-36.05,3.519-76.873-2.721-110.5l-1.633-.544h-2.722l-2.178,1.089C706.137,258.042,711.567,292.941,710.383,319.536Zm424.6-106.693h1.63c-0.54.725-1.09,1.451-1.63,2.177h-2.18c0.37-.544.73-1.089,1.09-1.633C1134.25,213.206,1134.62,213.024,1134.98,212.843Zm-552.52.544-2.178,1.633,21.23,16.331h0.544v-2.178C599.34,220.151,594.149,213.37,582.46,213.387Zm547.08,2.722h1.63c-0.18.544-.36,1.089-0.55,1.633-0.9.181-1.81,0.363-2.72,0.544C1128.45,217.561,1128.99,216.835,1129.54,216.109Zm-326.072,4.355c4.915-.186,9.108.076,11.976,1.633q1.632,8.98,3.266,17.963c6.858,1.27,19.073-1.279,23.407.545,0.64,28.618,2.97,31.178-11.432,48.447-0.239,8.3-3.95,28.641,1.634,32.117,16.847,6.731,42.18,2.567,44.092,23.952,1.124,12.564-17.7,16.02-27.762,18.508-25.716,6.36-97.443,18.032-118.669,1.633-24.682-19.069,18.846-38.77,33.75-41.915l25.04-1.633c0.238-2.947.348-3.127,2.178-4.355,5.7-2.534,15.586-.3,22.318-1.089,1.717,4.3,6.708,5.75,12.52,3.811,0.982-7.047,4.057-26.814,0-32.662l-6.532-4.354-7.621-11.976a14.927,14.927,0,0,0-7.621,2.721c-3.152,11.821,1.687,29.477-1.089,40.283l-1.088.544c-1.469-.871-0.75-0.185-1.633-1.633-4.8-9.071.649-24.492-1.633-34.839-1.394-6.316-5.637-7.245-8.71-11.431-4.46-6.075-9.623-23.807-7.077-33.75h1.633c4.907,15.62,5.269,26.892,14.7,37.016,5.759,0.3,8.645-.606,10.343-4.355q-0.273-6.531-.545-13.064c1.448-6.468,10.729-22.977,1.089-28.851-8.751-3.481-21.639,4.551-26.673,7.621l-1.089-.545v-2.177C788.55,224.083,795.046,224.043,803.468,220.464Zm330.422,2.177c0.55,0.182,1.09.363,1.63,0.544,0.55,3.448,1.09,6.9,1.64,10.343h-1.09Q1134.975,228.086,1133.89,222.641Zm-758.83,2.178c2.084,0.719,1.133,0,2.178,1.633,2.576,5.99,2.409,28.9-1.089,32.117-1.926-1.46-2.632-3.863-3.81-5.988l-3.811-.545v0.545l2.722,6.532h-1.633l-1.089-.544c-2.95-13.35-17.093-15.938-19.6-29.4h0.545l4.9,4.355c1.859,4.447,14.743,19.75,19.6,16.331C376.765,243.253,373.653,232.26,375.06,224.819Zm735.97,2.721c1.2,1.393.65,0.316,0.54,2.178-0.72.363-1.45,0.726-2.17,1.088-0.37-.181-0.73-0.362-1.09-0.544,0.36-.544.72-1.089,1.09-1.633C1109.94,228.266,1110.48,227.9,1111.03,227.54Zm-670.647,2.722c1.3,1.558,1.6,3.6,1.633,6.532h-0.544l-0.545-1.088q-0.816-1.362-1.633-2.722Zm408.811,0.544c-0.12,1.813-.508,1.253.544,2.722Q849.465,232.168,849.194,230.806Zm-390.847,4.355c1.28,1.622.165,10.97,0,15.787l-1.089-.545C455.936,243.88,456.178,240.82,458.347,235.161Zm823.063,1.089,5.99,0.544c4.75,11.8-.36,58.468-2.72,71.855q-6.54,49.26-13.07,98.528-1.35,29.121-2.72,58.246h-0.54c-3.68-38.106,1.62-77.169,8.16-109.415q3.81-27.488,7.62-54.98c1.69-9.826,4.52-55.067-.54-61.512-7.26,1.464-14.9,7.976-17.97,13.609-1.08-.363-2.17-0.726-3.26-1.089v-0.544C1264.96,240.384,1272.95,241.173,1281.41,236.25Zm-185.62,1.089h2.17v0.544l-0.54,1.089q-22.59,14.7-45.18,29.4l-101.8,62.6L782.782,428.407c-54.51,32.664-108.263,66.827-161.673,100.162C579.848,554.32,537.53,578.681,497,604.234c-9.561,6.027-40.554,24.437-45.181,32.661h3.266l-1.089,1.633L338.589,704.4c-9.452,5.726-31.591,14.3-37.561,22.319q-0.816,4.626-1.633,9.254h-0.544c0.109-2.775.01-4.608-1.089-5.988-24.365,11.865-46.651,28.552-70.222,40.826q0.818-1.361,1.633-2.721L260.2,747.4c33.042-19.76,65.041-39.512,97.439-59.334l70.766-40.827,76.21-52.258,181.27-111.593C769.47,431.243,855.472,382.812,940.645,332.6c38.556-22.729,76.145-45.24,113.225-68.589Q1074.825,250.677,1095.79,237.339ZM445.827,240.06l5.443,3.811h-2.177Q447.46,241.966,445.827,240.06Zm88.729,0h2.178q0.271,0.817.544,1.634c-9.721,20.764-9.8,7.447-28.306,14.153a3.965,3.965,0,0,0-1.633,1.633v0.544L515.5,260.2v1.088c-5.551-.6-12.638-1.714-15.786-4.9l0.544-1.089c6.152-.018,16.52-1.459,20.686-4.354V250.4a23.517,23.517,0,0,1-9.254-7.076q0.272-.544.544-1.089h2.177l11.976,8.71,2.722-.545A34.427,34.427,0,0,0,534.556,240.06Zm286.331,4.355c-4.56,2.957-2.462,6.836-3.81,13.065-2.548,11.77-.709,25.807,14.7,25.585,8.326-4.1,12.067-27.865,5.444-38.1Zm-379.415.545c6.873,0.626,13.209,7.521,13.609,14.7q-1.634,2.994-3.266,5.988c-4.624,1.4-5.56.307-8.71-2.177v-3.811h1.089c2.89-.872,3.429.758,5.443,2.178l2.722-1.089v-2.722c-3.687-5.939-9.657-6.127-11.976-11.431Zm126.834,0,2.178,9.254c2.654,2.7,5.861.876,7.076,5.443,5.233,19.663-4.3,43.179,9.255,53.891l5.987-2.177-2.177,4.355,1.633,2.177,7.077-.544-1.089.544c-5.825,4.579-14.935-.826-17.964-4.355l-1.088.545q-0.273,35.652-.545,71.31l-1.089-1.633q-0.271-13.608-.544-27.218c-4.65-30.989,3.73-67.114-3.266-96.35l-3.81-1.089-3.267,2.177c-2.33,8.187-1.98,21.593-.544,31.029q0.544,28.846,1.089,57.7c2,13.2,4.015,33.832,1.633,45.726l-2.178.544V395.2q-1.632-51.71-3.266-103.428c-0.8-8.626-3.147-33.307,2.722-33.2V257.48Q567.218,251.22,568.306,244.96Zm357.642,8.709c-16.5,7.062-44.887,4.711-44.638,27.762,9.736,19.238,78.232,7.5,97.44,3.267,10.461-2.305,22.39-2.613,22.86-14.7-4.5-8.633-41-19.653-56.61-16.331-7.464,1.589-16.026,4.595-25.04,5.444l0.544-1.633,8.71-3.811h-3.266Zm-113.226,1.089c0.443,2.693-.364,1.621,1.633,2.722v-2.722h-1.633ZM923.77,260.2c4.981-.137,10.724-0.189,14.153,1.088v0.545l-0.544.544c-13.241,1.179-41.163,2.245-39.738,15.242,15.226,7.454,50.994,5.037,68.589,1.089,5.711-1.282,21.272-6.752,10.887-13.065-3.513-3.14-12.141-1.149-15.786-4.355,10.232-1.237,22.832-2.052,22.863,10.343-7.124,13.82-78.016,18.943-90.908,5.988V274.9C899.016,264.231,912.26,265.3,923.77,260.2ZM389.214,261.29l4.9,0.545,2.177,1.088c2.4,8.3.785,18.938-1.088,27.762l-2.178,1.089-1.089-.544v-0.545c3.29-6.235,5.488-22.376-1.088-25.584-5.027-1.389-8.752,1.318-11.976,3.266v-1.633C381.418,262.42,384.275,263.277,389.214,261.29Zm-52.258.545c9.057,1.625,23.871,4.321,32.661,7.076v0.545c-5.427-.517-15.933-4.506-20.141-1.633h1.089l15.786,3.266q0.271,0.816.544,1.633c-2.681,4.462-7.617,5.519-10.887,9.254l1.089,3.266,8.709,1.633v1.089c-6.08.237-9.244-.539-12.52-2.722l-0.544-1.633,0.544-1.633c2.173-4.319,7.436-5.1,10.343-8.71v-0.544a65.606,65.606,0,0,1-17.419-3.811c0.353,4.593,1.867,7.856-.545,10.343-1.645-.685-0.651.01-1.633-1.089-1.32-4.479.68-9.887-3.81-12.52h-7.077C334.2,263.4,335.125,263.19,336.956,261.835Zm122.479,1.088,2.178,1.089c-2.117,9.386,1.129,19.316,0,27.762,3.429-.323,5.668-0.658,8.165.545-0.07,10.272-5.6,16.485-8.709,23.951h-0.545v-1.633c2.235-5.437,6.4-13.224,5.988-19.052l-1.633-.545c-1.481-.712-1.047-0.24-2.177.545-4.575,2.5-4.874,7.273-10.887,8.709v-1.633c1.759-3.652,3.717-6.686,4.354-11.431a27.064,27.064,0,0,1-11.975-7.621v-0.544c4.516,1.063,9.938,8.411,13.608,4.354C461.244,281.677,457.442,269.274,459.435,262.923Zm77.843,1.089c2.947,0.238,3.127.348,4.355,2.178,6.378,9.612.506,23.641,4.355,31.028l5.988,5.443c3.994,8.613.463,20.975,2.177,32.117q1.9,37.285,3.811,74.577l-1.089.544-2.177-1.633c0.241-34-2.414-71.193-5.988-103.427h-2.178c-10.385,15.893-3.268,58.821-3.266,83.83,0,7.282,2.784,29.121-1.633,32.662l-1.633.544-0.544-.544c-0.107-20.668,4.072-45.569,0-66.412-1.657-8.479,1.195-17.625,0-20.685-1.7-4.338-1.8-31.462.544-33.75,1.5,1.491,1.385,1.113,1.089,3.266l0.544,1.089,1.089-.545c0.691-7.277-2.926-12.627-2.178-20.141-6.054-3.467-11.315-6.437-15.786-11.431q0.271-1.361.544-2.722c3.316,1.371,10.488,13.32,15.242,7.077v-6.533q-0.544-1.087-1.088-2.177h-2.178l-3.81,4.355-1.633-1.633L532.923,270Zm-105.06,1.633c6.687,1.108,8.4,8.925,10.342,14.7h-3.266c3.594,6.654,9.1,9.83,13.609,15.242q-0.544.816-1.088,1.633-0.273.545-.545,1.088C444.34,293.175,429.658,277.282,432.218,265.645Zm830.142,0h1.63c3.67,20.62,2.12,50.766-1.09,71.855q-2.715,36.741-5.44,73.488-3.54,27.488-7.08,54.98h-0.54q3.81-40.278,7.62-80.565,1.9-28.3,3.81-56.613C1264.03,311.294,1265.72,284.118,1262.36,265.645Zm-25.59.545h1.64c-0.37.544-.73,1.088-1.09,1.633l-3.81,1.633c0.72-.908,1.45-1.815,2.18-2.722Zm-906.347,1.633c1.962,2.324-3.494,18.86-7.621,19.6l-5.443-4.9-2.178.545c-1.917,5.278-.57,12.757-2.177,19.052H312.46l-0.545-.544c-0.327-7.242-2.429-18.648,2.722-21.775h2.722c2.915,1.371,4,3.764,5.988,5.988l1.088-.544C325.078,278.6,327.866,272.7,330.423,267.823ZM762.1,268.367c7.145-.1,13.431,2.888,14.7,8.71l-0.544.544h-2.177c-5.2-6.664-9.8-4.247-17.964-5.988l0.544-1.089Zm-175.282,5.988c22.558-1.009,22.331,22.542,10.342,31.028,1.78-8.263,6.591-10.631,3.811-20.685l-1.089-.545-5.444,2.722c1.513,6-3.383,7.939-7.076,10.343l-3.266-2.178v-5.988c1.129-2.4,2.479-2.82,4.355-4.354l-4.9-5.444C584.216,276.284,585.072,276.03,586.815,274.355Zm635.265,1.089h1.09c-0.73,1.088-1.46,2.177-2.18,3.266l-3.27.544c0.55-.726,1.09-1.452,1.63-2.177Zm-631.455,1.633-2.177,1.088q0.272,1.633.544,3.266a13.362,13.362,0,0,0,9.254,1.089l0.544-1.089-2.177-2.721ZM678.81,387.036c-6.395.078-7.951,2.7-11.431,5.444l-2.177-.545v-0.544l0.544-1.633c2.169-4.252,7.89-5.349,11.976-7.621,1.337-6.776,1.585-25.464-2.178-29.939-2.3-2.734-7.088-2.866-9.254-5.988l-4.9-11.432c-19.456,13.057-32.009-1.361-35.927-20.141-1.894-9.075.157-27.54,6.532-30.484,6.847-1.75,14.544,1.454,21.23.545l13.609-4.355,1.088,1.088c0.857,4.928,1.156,11.53,3.811,14.7,5.932-1.9,21.954-5.251,25.585-3.81,3,14.783,5.587,40.045-2.178,51.169-3.4,4.866-10.861,6.041-13.609,11.431-5.622,17.177,4.638,29.605,10.887,38.65,22.376,2.72,51.149,5.3,53.347,27.762-14.445,22.408-78.16,27.76-116.492,27.762-19.207,0-48.528-.247-55.524-12.52-6.175-10.833,5.728-21.17,10.887-25.041,15.4-11.553,34.784-13.791,58.79-17.419l35.383-.544v-6.533Zm535.65-106.149h1.08l-1.08,2.178q-2.46.816-4.9,1.633l0.54-1.633Q1212.275,281.976,1214.46,280.887Zm-550.347,4.9c-7.78,4.177-23.482-2.331-29.4,2.178-16.953,7.82.638,70.024,25.584,42.459-1.365-8.3-2.246-22.51-.544-31.572l7.077-4.355C666.923,290.329,666.28,287.666,664.113,285.786Zm542.177,0h1.63l-0.54,1.633q-4.08,2.178-8.17,4.355c0.73-1.088,1.46-2.177,2.18-3.266C1203.02,287.6,1204.66,286.693,1206.29,285.786Zm-803.467,2.178L405,289.052c-0.157,12.993,4.17,19.374,6.532,28.307q0.818,10.341,1.633,20.685l2.178-.544c0.59-2.663,5.493-14.612,8.709-8.165,2.549,5.109-4.624,9.758-3.81,14.153,1.049,3.448,2.987,3.587,5.443,5.443q-0.272.545-.544,1.089c-6.974-.544-6.238-5.191-11.431-7.076-0.968,31.079-2.956,64.659,1.633,95.262,1.678,11.194,4.28,35.164,0,45.725l-1.089-.544q-2.177-60.962-4.355-121.935c-2.415-16,3.594-33.941-3.81-45.182l-3.811-1.089c-5.189,8.707-6.631,31.028-4.355,44.638q1.089,45.993,2.178,92c0.138,9.431,4.046,42.806,0,46.814l-2.178-3.266q-0.271-19.868-.544-39.738c-3.872-25.844-1.634-53.442-1.633-79.476,0-13.169,2.733-42.042-1.633-51.714-8.411-.407-6.332-5.185-9.254-10.887l-6.532-5.443c-3.32-5.207.619-14.869,2.721-18.508l1.089,0.544v0.544c-1.018,4.237-3.589,10.783-1.089,14.7l5.444,2.722,3.81,11.431h1.633l0.545-.544c0.065-5.939-1.423-7.985-2.178-12.52h0.545l2.177,1.633c0.525,2.666,1.067,4.491,2.722,5.988,2.245-.567,3.712-0.426,4.9-2.178C403.181,305.251,400.942,294.009,402.823,287.964Zm25.04,1.088c3.444,0,4.127.467,5.988,1.633q1.089,7.349,2.177,14.7l-1.088-.544q-2.178-6.26-4.355-12.52c-5.926.64-10.217,7.768-14.7,4.9l1.089-1.633Zm159.5,0v2.722l3.81-.544v-2.178h-3.81Zm-350.565,1.633,4.9,1.089c5.2,17.819-3.314,27.893-7.621,39.738-3.469,9.539-5.218,35.89-3.811,43.548,4.03-.152,6.02.3,8.165,1.634q-0.271,3.81-.544,7.621l-1.089-.545c-0.068-3.26-.508-3.65-1.633-5.443a39.411,39.411,0,0,0-13.609,2.721c2.359-5.574,5.563-11.335,2.178-16.33-6.2-1.058-16.463-2.223-19.053,3.266q2.45,19.868,4.9,39.738c5.86,33.272-4.153,71.844,1.633,104.516,1.425,8.047,6.362,35.709,2.721,40.827-1.068,1.124-.2.563-2.177,1.088v-1.088q-0.816-11.432-1.633-22.863c-4.231-26.642-2.722-56.76-2.722-86.553,0-8.522,2.062-37.61-2.177-40.826l-4.9-1.089v1.089c-4.475,8.254-2.614,31.634-1.633,43q2.721,44.359,5.443,88.729c1.969,13.915-1.786,27.537,4.9,37.017-1.173,1.643-.892,1.561-3.266,2.177l-1.633-1.633c-3.741-30.753-.509-68.986-5.443-101.25-3.308-21.622-4.151-54.7,1.088-73.488,1.541-5.524-2.022-10.337-1.088-15.786h1.088c-0.078,6.146,1.453,11.454,4.9,14.153h0.545c-0.508-5.42-.959-13.5-3.811-16.875l-2.177,1.089v-3.266c3.163-14.038,12.62-19.85,27.218-12.521,2.7-3.008,5.67-15.7,3.266-21.229-1.485,2.215-1.42,3.4-4.355,4.354l-0.544-.544c0.589-3.987,1.849-6.084,1.088-10.343-6.57-2.874-15.807-3.626-19.052-9.8l-3.811-9.254c-2.378-3.257-6.333-4.8-7.621-9.254l1.089-1.089c10.184,0.317,14.675,6.67,23.407,8.71l1.633-1.633c0.472-7.55-2.037-13.912-1.088-20.141h0.544q1.089,0.816,2.177,1.633c1.213,6.806,5.054,13.427,9.8,16.875,1.645-.686.651,0.01,1.633-1.089,2.462-6.225-3.2-11.224-2.177-15.786Zm533.468,2.722c4.652,1.5,10.392,10.689,10.887,16.331l-0.544,1.089H780.06c-0.675-.425-11.31-14.981-11.431-15.787ZM236.25,294.5l-1.633,2.177c1.008,6.544,3.421,12.391,1.633,19.6l-3.81.545-7.621-7.077v1.089q-0.273,2.177-.545,4.354c0.625,3.229,3.944,7.971,5.988,10.343,7.844-2.78,14.539-20.945,9.254-31.028H236.25Zm954.25,1.633h1.09c-2.72,4.6-24.96,19.531-31.57,17.964V313l0.54-1.089C1171.9,309.882,1182.29,302.118,1190.5,296.129Zm-502.435,1.089c-4.7,1.8-13.914.2-16.875,3.81-2.54,3.887.145,11.4-1.089,16.875l-4.9,9.254c-2.662,8.469,4.565,19.016,10.887,20.686,23.412,6.182,25.811-35.785,17.419-50.625h-5.443Zm-20.686,3.266-3.81.544c-1.009,7.192-1.944,15.856-.545,22.319l0.545,0.544,1.088-.544C666.862,316.526,667.755,309.8,667.379,300.484Zm-157.863.544c2.324,1.83,3.108,5.887,3.266,9.8l-1.088.544c0.135-3.424.381-3.95-2.178-4.9-2.523,11.293-1.082,23.336-4.9,34.838H502.44c-1.718-10.151-8.81-14.451-12.521-22.862l1.089-2.178a6.072,6.072,0,0,1,2.177-2.177l1.634,0.544c-1.218,1.945-1.823,2.324-2.178,5.444l10.343,13.064,1.089-.544q1.088-12.792,2.177-25.585l-3.81,1.089q0.816-1.361,1.633-2.722Zm-207.943,4.355c5.24,2.818,4.49,11.4,8.709,15.242h0.545c0.833-3.164,2.162-6.306,4.354-8.165l1.634,1.088v7.077c-1.451-.927-0.175-0.988-1.634-0.544,0.1,1.884-1.017.956,1.089,2.177-2.353,8.676-8.068,17.66-4.9,30.484l5.988,2.722-2.178,2.721-6.532-2.721c0.773,5.806,5.111,9.107,3.811,13.064l-1.633.545c-6.452-2.656-11.391-7.369-19.053-8.166v0.545c3.862,6.372,12.17,7.631,16.875,13.064v0.544c-7.823-1.074-21.48-9.048-23.407-16.33l1.089-1.089c9.432,0.23,13.268,4.973,21.774,5.988v-0.544c-3.528-7.872-5.056-18.761-10.343-25.041-3.5-4.152-9.777-6.866-13.609-10.887-0.077-3.768.355-5.211,2.722-6.532,3.418-2.96,8.32-.731,11.976.544C298.572,314.378,298.553,308.728,301.573,305.383Zm134.455,2.722c1.712,1.293,1.726,2.311,1.633,5.443h-0.544l-0.544-1.088Q436.3,310.282,436.028,308.105Zm-135,1.633c-2.768,9.113,2.033,21.923,6.532,26.129h0.545v-1.089C311.848,328.022,305.6,312.015,301.028,309.738Zm64.234,0.544,5.444,1.089c10.114,15.218-12.229,51.564-28.307,47.359-7.638-5.374-3.883-17.014,1.633-22.319h0.545c-0.414,7.693-3.138,8.675-3.811,15.242,1.452,2.21,2.992,3.208,4.9,4.9,11.364-.273,34.416-35.184,23.408-43-5.075-3.461-10.357,1.395-13.065,3.811-1.914-1.177-.492-0.837-2.722-1.089-2.839,2.1-4.993,2.4-5.988,6.532l1.089,0.545,4.9-1.633v0.544q-0.816,1.089-1.633,2.177c-6.562,2.993-5.493,5.105-10.887,0l1.089-2.177C347.489,313.554,355.576,315.187,365.262,310.282Zm-162.218,1.089c-1.272,7.3,12.209,12.582,19.053,10.887C220.37,316.712,209.5,311.943,203.044,311.371ZM105.06,346.21c-3.935.23-4.128,1.272-7.076,2.177l-0.544-.544L96.9,343.488c-5.29-.654-6.474-3.764-11.431-3.266l-0.544,1.088c0.734,3.386,2.195,3.792,1.633,7.077l-10.887,3.266V352.2c2.355,6.115,9.123,7.475,13.064,11.975-0.685,1.646.01,0.651-1.089,1.633a70.351,70.351,0,0,1-9.254,2.178l-4.9-3.266,0.544-2.178,7.621,0.545c-1.765-5.948-7.856-5.238-9.254-11.976l2.177-2.722c2.53-.6,5.689-1.4,7.077-3.266l1.633-7.621h7.077v-2.722c-2.03-4.614-9.859-17.166-4.9-22.318l1.633,1.633c-1.979,6.978,6.155,24.8,10.343,28.851v-1.089c4.52-5.9,1.429-12.928,2.177-19.6h2.177l1.089,1.633c2.6,6.877-4.411,14.992-1.633,19.6l3.266-1.089,0.544,0.545v3.266Zm1047.88-30.484c5.09,0.088,8.05,2.327,11.44,4.355,1.32,6.7,1.76,40.7-1.09,44.637,0.19-21.122.27-32.286-8.17-45.182h-2.72c-5.26,2.655-4.17,5.395-6.53,10.887h-1.64l-0.54-1.633c-1.72-4.006,1.02-8.523,2.72-10.887Q1149.68,316.814,1152.94,315.726Zm-702.214,1.089,2.722,1.088c0.215,7.514,1.746,16.6-1.633,21.774l-4.355,4.355c-1.111,2.313-.293,5.821-1.633,7.621v-1.088c-2.829-4.307-1.252-17.839,1.088-21.775h0.545c1.8,2.668.88,4.576,0.544,9.254h1.633C451.12,331.656,448.892,322.229,450.726,316.815Zm342.4,3.81,2.177,0.544Zm-503.528.544-2.178,1.633q-0.544,1.634-1.088,3.267c2.646,5,9.928,9.278,16.33,10.342v-0.544C299.494,329.271,299.133,321.591,289.6,321.169Zm510.06,2.178c-7.225,4.1-23.181,1.994-30.484,2.177-16.8.423-42.162,12.25-42.459,29.395,12.286,24.194,88.981,12.729,115.4,6.533,11.6-2.72,29.384-3.928,29.939-17.42C863.632,324.32,826.011,323.142,799.657,323.347ZM217.742,324.98l-4.355,1.633,1.633,2.177c3.2,1.393,5.81,3.424,10.343,2.178v-0.545C224.3,326.617,222.739,324.953,217.742,324.98Zm37.56,0,3.811,1.633,1.633,5.443c3.743-1.943,4.91-3.146,9.254-2.177,2.664,5.629,2.163,13.2.544,19.6h-1.088c0.294-5.82,1.154-12.146-1.089-16.331L265.1,332.6c-4.26,3.8-6.358,7.207-9.254,12.52h-1.633l-0.545-.544c0.886-4.991,5.594-9.331,3.266-15.242l-1.633-2.178c-2.1,1.586-2.968,2.973-5.987,3.811-0.872-1.08-.707-0.756-1.089-2.722Zm721.815,2.177c1.715,3.624,2.409,14.925,1.089,15.787v-1.089C976.177,339.211,975.866,331.255,977.117,327.157Zm-7.621,3.811h1.089c0.807,5.045-1.5,10.409-2.178,16.33h-0.544Q968.679,339.134,969.5,330.968Zm182.9,0,4.35,0.544c8.11,17.3-3.3,82-4.9,103.428h2.18c4.72-6.351,3.86-15.152,5.99-25.041,0.36-.181.73-0.363,1.09-0.544v17.964c16.98-8.5,30.01-27.386,44.64-39.194,4.37-3.527,6.77-8.623,11.97-11.431-1.73,6.677-8.34,10.346-13.06,14.153q-22.05,20.955-44.1,41.915-0.81,10.886-1.63,21.774-2.985,29.392-5.99,58.791h-0.54q2.715-38.646,5.44-77.3c-10.91,6.087-7.91,20.805-10.34,35.383a556.176,556.176,0,0,0-7.62,90.363h-1.63V554.7c-3.95-14.3.48-36.954,2.72-50.081q3.81-36.2,7.62-72.4c4.4-22.1,11.63-72.056,5.99-97.44-0.37-.181-0.73-0.363-1.09-0.544a38.163,38.163,0,0,0-16.33,7.076v8.166c-0.37.181-.73,0.363-1.09,0.544-0.55-.363-1.09-0.726-1.63-1.089-0.54-3.062-1.84-7.32-.55-10.342,0.55-.907,1.09-1.815,1.63-2.722C1143.39,336.125,1147.88,334.084,1152.4,330.968Zm-732.158,1.088-1.089,3.267,0.545,0.544,1.633-1.089C421.016,332.6,421.356,333.15,420.242,332.056Zm404.456,0c13.389-.463,27.793-0.59,31.572,8.71,2.491,9.747-7.1,12.962-14.153,15.242-16.166,5.223-87.015,11.233-94.718-2.177-4.064-7.076,4.9-11.668,9.254-14.154C776.492,328.342,803.927,339.894,824.7,332.056Zm0.544,2.722c-4.35,2.2-30.934,4.226-31.028,3.811l2.721-1.633v-0.545c-20.172-.42-36.711,1.84-46.27,11.976,0.516,11.622,17.449,9.822,29.395,9.8,23.274-.046,61.318.877,72.944-11.975a15.184,15.184,0,0,0-3.266-7.621C842.791,336.041,835.909,334.725,825.242,334.778ZM472.5,335.867c14.944-.061,13.948,12.454,11.976,24.5q0.816,11.159,1.633,22.318c9.041-.551,14.2,1.569,21.23,2.722l4.355-3.266,1.633,1.089c5.722,21.35,7.15,50.2-13.065,56.613-4.915,1.559-10.218,1.834-14.7-1.089-4.794-3.128-6.5-8.991-10.343-13.065-6.63,3.367-17.795,5.215-23.407,1.634l-8.166-14.154c-3.727-9.356-7.162-41.271,2.178-46.814,8.5-5.046,24.823.378,34.294-3.266-2.622-4.659-2.95-10.949-4.9-16.875H472.5l-6.532,7.621-2.722-.545q-1.634-2.993-3.266-5.988,0.271-.543.544-1.088h4.355C465.567,340.247,468.559,338.511,472.5,335.867Zm2.177,2.177c-0.091,2.825,3.6,19.436,7.621,20.686l0.545-1.089c2.482-8.883.014-15.1-4.9-19.6h-3.267Zm-168.205,2.722-1.089,2.178c0.98,1.785.67,1.846,2.722,2.721v-4.9h-1.633Zm342.4,1.633,2.177,1.089c0.068,9.012-.81,37.508,2.722,43.548,3.886,0.8,6.928,1.555,9.254,3.811v0.544l-0.544,1.089c-10.775-1.275-21.944-1-33.75-.545v-0.544l1.633-2.177c5.237-1.336,13.6-2.357,17.964-4.9C649.731,372.448,644.891,351.352,648.871,342.4Zm330.423,3.266c1.157,1.132,1,1.41,1.089,3.811h-1.089v-3.811Zm-832.863,5.988c4.059,0.082,4.94,1.076,7.621,2.178v1.088c-3.4-.439-4.779-0.93-8.165-0.544Q146.16,353.015,146.431,351.653Zm300.484,1.633,1.633,0.545q0.273,1.361.545,2.721H447.46v-1.088Q447.187,354.375,446.915,353.286Zm-70.221,2.178c2.463,0.467,1.619-.063,2.721,1.633q0.273,6.8.545,13.609,2.993,9.8,5.988,19.6,1.905,31.3,3.81,62.6c0.071,10.293,4.37,26.614.544,36.472l-1.088-1.633q-0.545-15.24-1.089-30.484-3.266-37.012-6.532-74.032l-5.444-2.722-0.544.544q0.544,44.906,1.089,89.819c0,8.4,3.393,27.3-1.089,32.117-2.219-.92-2.127-1-4.355,0-1.529,6.6-1.069,11.259-5.444,15.242-6.249.181-10.467-1.423-13.064-4.9q0.272-.817.544-1.633c6.082,1.064,7.65,3.587,15.242,3.266v-1.633l-1.088-1.089c-1.448,1.006-.969,1.084-3.267,1.633l-0.544-.544v-2.178c14.908-21.147,10.344-57.61,10.343-93.629,0-16.025-3.735-36.628,3.266-44.093C376.331,367.184,374,361.264,376.694,355.464Zm-231.9.544h1.089l-0.544.544c0.523,13.685,6.751,18.433,8.165,29.4l-1.089.544-1.633-1.089c-2.642-8.206-8.991-14.265-13.064-21.23v-0.544c3.161,1.037,4.008,2.93,6.532,3.266Q144.526,361.452,144.8,356.008Zm366.9,1.633c8.366-.2,15.689,1.254,20.685,4.355l1.089,4.355c-7.595,9.7-23.373,12.087-31.028.544v-1.633l1.633-.544c2.532,2.285,4.607,5.92,8.165,7.076,7,2.275,20.093-.659,18.508-7.076-4.526-7.886-17.659-1.21-21.23-5.444Zm-331.513.544c3.687,1.178,5.661,1.92,6.533,5.988h-0.545l-5.443-2.721-2.178,4.354c0.449,5.75,3.086,9.226,7.077,11.432l-0.544,1.089H182.9c-4.658-4.506-6.5-10.645-4.355-19.053Zm93.629,0c6.85,4.379-1.934,20.362-4.354,23.408a33.332,33.332,0,0,1-12.521-1.089l-1.088.544-1.089,10.343h-1.089q-0.544-3.539-1.088-7.076h-0.545q-1.361,9.252-2.721,18.508l-2.722-.545q1.905-13.88,3.81-27.762c-1.1-4.773-4.435-7.829-5.443-13.609l0.544-.544,13.065-.544-1.089,1.633c-3.289.846-6.311,2.023-8.165,4.354,0.738,6.633,11.787,18.013,19.6,13.065C273.555,375.929,274.2,366.092,273.81,358.185Zm962.96,0.545h1.64c-1.4,2.524-3.71,5.319-5.99,3.81ZM126.835,360.363c4.314,1.092,5.914,3.97,7.621,7.621v0.544h-0.545c-2.458-1.905-3.562-3.915-7.076-4.9-1.5,3.406-5.424,7.349-3.266,12.52q1.632,2.178,3.266,4.355c-2.662.314-2.929,0.382-4.9-.544v-1.089C119.7,371.555,123.207,363.781,126.835,360.363Zm196.512,0.544,4.9,0.545c9.383,4.636,4.817,19.018,7.621,30.483l5.443,16.331-4.354-2.177-2.178,3.266c3.22,4.943,10.685,4.263,14.153,8.71H346.21a56.164,56.164,0,0,1-17.964-9.255v-2.721l2.722-2.722-9.254-8.165q0.545-3.538,1.088-7.077c-1.469-6.6-11.675-20.243-1.633-25.585ZM982.016,362c1.112,0.98.385,0.008,1.089,1.633h-1.089V362Zm-657.581,1.089-4.354,3.81c-0.409,12.3,5.944,32.09,15.786,34.3v-0.545q-2.721-6.8-5.444-13.609c-1.558-7.517,4.1-15.164-1.088-21.774C328.081,363.328,327.618,363.189,324.435,363.085Zm305.384,0a14.021,14.021,0,0,0,8.709,3.266l-0.544,1.633c-3.353,1.145-18.95,11.5-19.6,14.7l-0.544-1.088c-1.721-3.784-4.323-11.118-3.811-14.153h0.545c3.213,1.717,4.9,4.937,8.165,7.076,2.425-.829,4.117-1.332,5.443-3.266C629.529,369.047,629.134,364.9,629.819,363.085ZM92,364.173l2.177,1.633v1.634l-1.089,1.088-2.722-.544v-2.178Zm16.875,0,2.722,0.545,2.722,1.633v2.177l-0.545.545c-1.652-1.484-2-2.753-4.355-2.178-8.294,1.514-14.07,12.7-17.419,19.6L89.274,371.25h1.633l2.177,4.9C99.279,374.048,103.522,367.82,108.871,364.173Zm1121.919,0.545c0.91,2.744-1.37,3.876-3.81,4.9V367.44ZM187.8,365.262c1.987,0.934,2.217,1.465,3.267,3.266v0.545h-0.545c-1.392-.889-1.319-0.671-2.177-2.178Q188.074,366.079,187.8,365.262ZM451.815,366.9l-3.267,1.633v0.545c7.481,2.108,22.843-.393,29.94,3.266v0.544c-11.462.435-22.979,2.641-32.661-1.089-3.469,4.152-2.674,17.989-1.633,24.5,3.041,19.028,9.427,37.184,30.483,25.585q0.544-16.6,1.089-33.206c1.63-3.045,4.956-3.968,7.077-6.532,0.382-5.493.115-9.782-2.178-13.609Zm681.535,1.089c2.87,3.008,2.25,32.535,1.63,39.738-2.4,27.7-3.64,55.582-8.17,81.109-1.64,9.27.14,25.853-4.89,32.661q4.89-44.361,9.79-88.73Q1132.535,400.377,1133.35,367.984Zm29.39,1.089v15.786l-0.54-1.089C1160.53,379.937,1161.93,372.675,1162.74,369.073Zm61.51,1.088h1.64c-0.37.545-.73,1.089-1.09,1.633-1.1,2.569-2.37,3.708-5.45,4.355,0.37-.726.73-1.451,1.09-2.177C1221.5,371.793,1222.56,371.563,1224.25,370.161Zm-1112.113.545c1.125,1.068.564,0.2,1.089,2.177l-1.633,1.089h-0.545Zm871.512,0,0.545,1.088Zm-567.218,8.709c14.33-.047,25.539,30.625,14.154,41.916-1.192-15.974,5.878-30.7-10.887-39.738-3.239,2.614-2.584,4.568-5.444,1.088v-0.544ZM617.3,383.226c1.855,3.976-1.125,8.971-3.81,10.343-6.357,4.47-11.337-4.839-18.508-3.267-3.646.8-4.7,3.616-10.343,3.811l-3.266-1.633v-1.089l0.544-1.089c8.635,0.679,10.192-.636,14.7-4.9,4.191,1.992,9.421,8.467,15.786,5.988C615.637,389.9,616.492,387.078,617.3,383.226Zm452.362,1.089c-0.41,1.4.5,1.336-2.18,2.177V385.4C1068.21,385.04,1068.93,384.677,1069.66,384.315ZM492.1,385.948q-0.273.543-.545,1.088L497,387.581l1.089-.545v-0.544L497,385.948h-4.9Zm-384.315.544h4.355v0.544h-1.089l-10.342,5.444-0.545-1.089q0.817-1.361,1.633-2.722Zm-27.217.544c6.763,0.329,9.267,3.425,13.609,3.811l6.533,19.052,1.088-1.089c4.314-2.141,5.138-7.03,9.254-9.254V400.1q-4.626,6.531-9.254,13.064-0.544,4.627-1.088,9.254l-0.545-1.088c-3.111-3.24-3.933-8.779-7.076-11.976L80.02,410.444l-0.544.544,2.177,4.355H81.109a14.319,14.319,0,0,1-5.444-5.444v-0.544c3.964-.965,12.889-1.32,15.786-3.811l-3.266-3.266c-2.63-1.19-3.983-3.124-5.444-5.443,5.211,1.379,5.715,5.456,11.432,6.532v-1.633c-1.966-6.083-4.883-11.531-12.52-11.976V390.3q0.272,2.722.544,5.444l-1.633-1.089-1.633-4.9Zm96.351,1.089v0Zm41.371,0V390.3l-1.088-.544Zm465.968,0c-0.886,3.087-.372,4.361,1.633,5.988l1.633-1.089c-0.113-2.348-.143-2.627-1.089-3.81C685.363,388.089,686.228,388.65,684.254,388.125Zm-179.637,1.633L487.2,391.391l-1.089,20.686c-1.586,5.739-5.542,7.55-5.988,14.7,5.182,10.6,21.592,13.958,29.4,3.266,6.553-8.98,4.3-27.719,2.178-39.738Zm-24.5.544c-3.1,5.39-2.756,18.38-1.633,26.129l1.089,0.545,1.633-1.089c2.177-6.418,5.32-17.758,1.633-25.585h-2.722Zm680.989,0c1.89,2.826,1.56,12.918,0,16.331-0.36-.181-0.73-0.363-1.09-0.544Q1160.56,398.2,1161.11,390.3Zm-997.8,3.811c1.157,1.132,1,1.41,1.089,3.81h-0.544C162.845,396.273,163.021,396.271,163.306,394.113Zm102.884,2.722h1.088l6.532,12.52h-0.544C269.353,407.294,264.7,402.52,266.19,396.835Zm266.733,0q1.362,7.076,2.722,14.153l-1.089-.544C533.613,406.281,531.535,401.913,532.923,396.835Zm106.15,0-13.609,1.633c-14.637,3.617-32.536,8.659-41.916,17.963-3.773,3.743-11.379,11.43-5.988,19.053,6.89,9.741,28.281,9.615,44.638,9.8,33.687,0.378,63.583-3.095,90.362-10.342,10.6-2.869,23.5-2.925,27.763-11.976,5.222-9.661-8.344-15.622-14.154-18.508C705.619,394.248,668.15,396.748,639.073,396.835Zm-463.246.544c2.174,2.736-2.068,13.949-3.267,17.964h-0.544Q173.921,406.361,175.827,397.379Zm-13.065,2.177c1.132,2.058.532,4.234-1.633,5.988h-0.544V405Q161.673,402.279,162.762,399.556Zm878.048,1.089h2.17l-1.08,1.633c-1.82.726-3.63,1.452-5.45,2.178,0.18-.545.36-1.089,0.55-1.633Zm-378.33,3.811c16.387-.524,65.577-1.273,59.335,15.786-9.7,19.2-62.624,14.747-88.73,19.6-14.908,2.769-40.362-3.055-36.472-16.331C600.539,402.534,643.737,411.9,662.48,404.456Zm369.62,1.633h1.63l-0.54,1.633q-4.635,2.177-9.26,4.355c0.18-.545.36-1.089,0.55-1.633Zm-973.854.544,3.266,2.722c-1.487,3.02-.632,4.118,1.089,6.532h4.355L67.5,414.8v-0.544l-4.9-3.81V409.9c4.143,0.364,5.49,1.6,7.621,3.811l-0.544,2.721-3.811,2.722-5.988-2.177c-0.836-2.641-1.538-3.789-1.633-7.621a30.1,30.1,0,0,0-10.887.544L43,415.887l1.089-6.532C47.268,408.224,55.57,408.169,58.246,406.633Zm604.778,1.089c-17.336,6.4-54.656-.914-62.056,14.153-0.8,1.41-1.1,2.26-.545,3.81,1.856,10.032,19.135,13.01,32.662,10.888,28.884-4.532,68.61-.163,84.919-17.42v-2.177C708.038,406.846,682.8,407.6,663.024,407.722Zm355.466,5.443h3.26l-0.54,1.089c-4.22,1.5-6.42,3.832-11.98,4.355,0.19-.363.37-0.726,0.55-1.089Q1014.13,415.344,1018.49,413.165ZM82.742,416.431c6.205,1.118,9.6,5.31,12.52,9.8l-0.544,1.633a10.726,10.726,0,0,0-4.9,5.443l-2.177-1.633L87.1,428.952l5.444-1.633V424.6Zm271.633,1.089c4.984,1.7,10.382,9.889,13.065,14.153v0.545C362.638,430.9,353.556,422.59,354.375,417.52Zm610.766,52.8c-11,.969-31.263,21.886-41.915,27.762-39.255,21.653-74.392,45.135-112.137,68.044-0.4,30.354-.554,65.025-0.545,96.351,0,13.1,3.939,32.083-.544,43.548q-1.361-68.853-2.722-137.722a17.974,17.974,0,0,0-19.052-.544q-0.273,1.905-.545,3.811l1.089,1.088c6.583,0.13,13.275-.33,16.331,3.266v2.178q-2.178,1.36-4.355,2.722,2.45,45.448,4.9,90.907,0.273,47.353.545,94.718v71.31h-1.634v-2.177c3.446-13.177,1.447-44.934-.544-58.246V742.5q-0.544-31.842-1.089-63.69l-1.088.545q-1.361,41.367-2.722,82.742l-1.089-.545q1.634-66.4,3.266-132.822c-2.492-16.586,1.027-33.327-3.266-47.359H797.48c-3.114.718-5.181,2.631-8.165,1.633l-1.089-.544v-0.545l11.431-5.443v-0.545c-5.713-.288-11.434.766-11.976,5.988l-3.266-1.088c0.171-3.27.288-4.725-1.633-5.988-3.767-1.809-8.579.126-10.342,2.177l10.342,2.178q-0.272.543-.544,1.088l-10.887.545a9.936,9.936,0,0,0-1.089,7.076c3.056,0.653,4.689.239,7.077,1.633,2.909,20.625.436,44.662,3.81,66.956,0.958,6.332,3.552,18.664,1.089,25.04h-0.544c-1.094-20.982.069-75.781-7.621-89.274-3.19.147-4.2,0.221-5.444-1.633-2.108-3.71-.279-12.608,1.089-16.331,3.71-1.846,10.886-1.827,15.242-3.81-0.308-5.1-2.152-8.848-.545-12.52,10.582-3.046,24.359-3.536,34.839-7.621,31.057-12.106,66.052-38.009,93.085-56.069C923.535,486.8,948.3,473,954.8,462.157c1.9-3.178,1.1-8.9,2.178-13.064,7.927,0.252,18.636,1.871,25.04-1.089V447.46c-13.16-2.844-11.5-1.842-24.5,0l1.089-2.178,16.875-6.532V426.23c2.262-5.173,20.527-6.8,26.676-5.988l0.54,1.633q-0.54,4.9-1.09,9.8c-0.36-.181-0.72-0.363-1.09-0.544a11.234,11.234,0,0,0-2.173-7.621c-13.576-.348-23.522,3.254-20.141,18.508,4.34,1.962,11.881,2.139,15.786,4.355q-1.089,22.86-2.177,45.726-1.362,56.607-2.722,113.226V660.3c0.031,5.5,1.519,11.572,0,15.242h-2.722q-0.271-.816-0.544-1.633,0.272-33.745.544-67.5,1.361-46.809,2.722-93.629c2.471-16.485,4.226-45.35,0-61.512h-0.545l-14.153,4.9c-1.059-2.244-1.486-2.408-3.266-3.81l-10.887,1.633q0.272,2.176.544,4.355c2.1,2.719,6.392,2.914,7.621,6.532q-0.545,27.214-1.088,54.436-1.633,34.834-3.267,69.677c-6.8,10.562-22.483,19.216-32.661,26.673Q897.1,640.976,862.8,666.29c-9.39,6.528-26.837,11.852-33.205,21.23-3.486,5.133-2.777,14.467-1.633,21.774,2.212,14.129,2.468,76.021-1.633,86.008V654.859h0.544v27.218c8.795-1.191,16.864-7.427,23.407-11.432,28.3-17.316,52.838-37.917,78.932-57.157,9.84-7.256,26.266-15.874,31.028-27.762,3.748-9.357.395-22.5,2.177-33.75C966.433,526.638,965.407,497.684,965.141,470.323Zm-715.282-47.9c12.9-.02,14.893,11.389,11.431,21.775q-0.545.272-1.088,0.544l-5.988-1.633c-0.077-2.678.031-4.12,1.088-5.444,2.385,2.154,2.2,3.479,5.444,2.178,1.133-6.359-.162-11.012-4.9-13.065-3.4-1.778-7.334.1-10.343-1.089q0.272-.816.544-1.633l1.633-.544Zm280.887,0V429.5q2.721,7.349,5.444,14.7l-2.178-1.634C531.272,436.358,526.317,430.066,530.746,422.419Zm-487.2,1.633c1.785,1.941,9,21.864,8.71,23.408H51.714c-3.644-1.988-4.621-5.524-8.71-7.621l-1.089.544a60.7,60.7,0,0,0,1.633,15.242L43,456.169l-1.633-.544q-0.544-9.253-1.089-18.508c2.75-.346,2.7-0.261,3.81-2.177Zm111.593,0,3.266,0.545a22.509,22.509,0,0,1,.545,9.8l-1.089-.544C157.89,428.512,156.4,427.513,155.141,424.052Zm14.7,1.633,3.266,1.089q1.361,11.159,2.722,22.319c3.706,0.247,5.778,1.086,7.076,3.81,3.483,6.854,1.782,22.307.545,30.484-2.945,19.459-.51,44,2.177,61.512,1.01,6.579,3.273,23.8.544,27.762l-1.088-1.633c-3.748-8.616-2.222-21.353-2.722-32.661q-1.089-23.4-2.178-46.815c1.542-11.53,2.861-27.139,0-37.56l-1.088-.544c-5.022.138-8.714,1.861-10.343,5.443-3.878,7.147-.179,25.362,1.089,33.206q3.265,40.005,6.532,80.02l-1.633,2.177-1.633-1.088c0.068-26.722-.839-52.358-4.9-75.666q-1.9-18.506-3.811-37.016l4.9-8.165c0.988-3.66-1.575-6.089-2.177-8.165C165.155,437.423,167.8,430.264,169.839,425.685Zm63.689,0,2.722,0.545,1.633,1.089-1.089,5.443c-2.438.011-3.3-1.066-4.9,1.089-3.843,7.195,3.281,12.18,5.988,16.33,5.907,0.194,8.541-.856,11.976-2.721v1.633l-1.089,1.633C231,455.856,221.767,436.418,233.528,425.685Zm285.242,2.722c3.919,0.138,5.682,1.266,8.165,2.722q-0.271,6.531-.544,13.065h-0.544l-1.633-1.634C520.568,440.65,517.326,433.507,518.77,428.407Zm-215.564.545,9.254,1.088q0.272,0.817.544,1.633l-2.722,4.355c-5.735,1.094-21.535,2.046-25.04,0l1.089-1.088C288.979,430.358,298.984,431.854,303.206,428.952Zm-207.4.544c7.427,2.535,3.322,9.027,5.987,16.331l5.988,7.076C98.714,450.909,95.429,441.117,95.807,429.5Zm223.186,1.633c4.218,1.391,4.232,5.029,7.621,7.077,8.391,2.987,26.455-3.971,35.927,2.177,5.543,18.292,11.369,50.227-4.9,61.512l-13.064,4.355q-0.273,13.063-.545,26.129l-1.088-.544c-0.254-8.991-.058-25.115-5.988-28.851l-8.71-1.633c-1.994-1.235-2.351-4.5-4.355-5.988L307.56,502.44c-2.848,4.518.508,40.251,0.545,40.282,5.961,2.55,11.606,1.807,15.242,6.532-5.9-.623-9.347-2.542-15.242-1.089l-2.722,8.166c-1.722-2.1-2.192-4.288-4.355-5.988-6.125.582-12.018,7.637-16.875,4.355,3.211-6.19,11-9.092,18.508-10.888,1.308-11.466,2.91-30.566.545-41.915-21.263-.615-31.3-22.373-27.218-45.181,0.976-5.449-.513-21.862,3.81-23.952v1.089c4.394,8.643-2.8,20.571-1.633,30.484,2.941,25.048,15.685,39.111,41.371,28.85-4.432-7.873-8.6-36.61.545-44.092,1.79,0.894,1.738,1.106,2.721,2.722-3.481,7.893-10.516,30.253-1.088,37.56,11.238-1.7,9.166-32.721,3.81-40.282l-6.532-3.811,2.722-4.9-3.811-7.077Zm136.089,0c2.5,4.429.752,13.763-2.178,16.331h-0.544v-3.811C453.865,440.24,454.25,435.741,455.081,431.129Zm8.709,1.089,2.178,1.088c2.479,11.54-3.15,28.451.544,38.105,4.987,10.377,16.541,6.58,28.307,5.988q0.272-.544.544-1.089c2.291-10.115-.463-24.07,0-33.2l1.089-.545,2.177,1.089c0.045,8.757-1.4,26.674,2.177,33.206,32.782,1.329,67.154-3.311,90.363,9.8,16.763,9.469,18.5,22.394,2.722,34.839-24.022,18.948-100.241,35.064-144.8,23.407-16.274-4.257-57.091-25.231-25.585-41.915h0.544v0.544q-3.81,5.171-7.621,10.343c-6.381,25.12,47.819,29.939,71.855,29.939,36.054,0,107.847-11.789,113.226-38.1,3.16-15.461-24.966-21.251-37.016-23.952-30.579-6.854-85.378-1.556-109.96,5.988-11.4,3.5-18.27,13.159-30.484,15.242q1.362-1.9,2.722-3.811c7.24-2.548,12.154-8.138,18.508-10.887,7.166-3.1,20.6-3.228,25.585-8.709v-0.545c-9.551-2.858-17.542,1.6-26.129,5.444l-1.633-2.178c4.421-5.614,11.7-7.018,19.052-9.8C465.137,461.041,460.909,443.62,463.79,432.218Zm57.7,0v3.81l1.633,0.545C523.4,433.581,524.207,433.454,521.492,432.218Zm-380.5,5.443c2.016,1.128,2.71,4.113,3.81,5.988l5.988,1.633-2.721,4.355q0.543,2.721,1.088,5.444c-0.725,1.982-3.383,2.072-4.355,4.9h3.811l7.076-2.722V457.8l-4.354,3.811c-2.527,1.569-7.308,1.278-9.8,0v-0.544l3.266-4.9C143.286,449.921,138.369,445.016,140.988,437.661Zm29.939,2.722q0.273,1.361.545,2.722h0.544C171.666,441.126,171.8,441.457,170.927,440.383Zm165.484,0.544-3.81,1.089v1.089h1.089c4.046,2.048,13.5,1.482,16.33-1.089l-0.544-.544Zm463.791,0q1.088,2.178,2.177,4.355h-0.544l-2.178-3.266Zm205.218,1.089c3.93,8.723,1.56,30.226.55,40.282h-0.55V442.016Zm-752.295,2.722c1.275,1.933-.342,2.119-2.177,2.722v-0.545l1.088-.544ZM357.1,445.282c-6.238,4.143-18.462,3.121-27.762,1.633v1.633c3.133,8.441,5.157,21.875,2.721,32.117l-4.354,12.52c33.853,25.619,47.1-19.606,32.117-47.9H357.1Zm69.133,0,3.266,2.178c0.806,7.477-2.5,12.912-5.444,19.052C423.936,459.984,423.923,450.163,426.23,445.282Zm-281.976.545V448h2.177q-0.543-1.089-1.088-2.177h-1.089Zm295.585,3.81,3.81,0.544,1.633,1.089c-0.209,7.25-15.613,31.422-20.685,32.661a10.052,10.052,0,0,1-1.089-8.165l1.633,1.089q0.816,1.632,1.633,3.266l2.722-2.177c1.383-3.787,2.555-9.64,4.9-13.609,2.592-4.389,6.354-1.78,7.621-10.887ZM64.778,455.081h1.089c-1.716,7.239-7.51,21.162-17.419,17.419h1.089l9.8-6.532C61.722,462.636,62.611,458.09,64.778,455.081ZM969.5,456.714l2.722,0.544c0.747,13.637,5.123,42.623,0,55.524v-1.088C971.151,509.731,969.08,458.4,969.5,456.714Zm-856.815.544c1.7,0.878,1.282.5,2.178,2.177A6.147,6.147,0,0,1,112.681,457.258Zm845.928,7.077-41.371,30.484c-5.625,3.911-12.222,6.046-16.331,11.431v0.544c13.848-2.729,54.266-30.663,60.424-41.371v-0.544Zm-459.436,19.6c25.557-.478,50.084.749,68.045,8.166,6.866,2.835,17.965,8,12.52,19.052-10.147,20.6-63.3,25.367-95.807,26.129-21.744.51-49.8-.071-50.08-20.685,3.745-7.4,12.6-15.609,22.863-16.331v0.544h-1.089c-6.4,6.358-17.085,7.637-17.964,19.6,16.343,24.537,90.454,11.86,114.859,3.266,10.658-3.752,24.19-5.06,24.5-19.052-7.985-15.727-63.4-21.259-89.274-16.331-12.244,2.333-23.589,6.99-34.839,8.71l1.089-2.177,17.419-6.533ZM54.98,485.02c1.125,1.069.564,0.2,1.089,2.178l-2.722,1.088Zm-22.318,1.633,0.544,1.633H32.661v-1.633Zm1060.949,4.9h2.18c-0.37.182-.73,0.363-1.09,0.545a27.16,27.16,0,0,1-10.35,7.621l3.27-4.355C1089.62,494.093,1091.61,492.822,1093.61,491.552ZM49.536,492.641c1.888,2.163,2.5,8.632,3.811,10.887,3.824,1.414,6.237,2.695,11.976,2.722l-0.544,1.089c-7.906.784-14.429-.867-16.875-7.077C46.991,497.01,48.115,494.9,49.536,492.641ZM28.851,493.73c5.074,2.4,10.8,2.051,16.875,3.266v0.544l-1.633,2.722C36.837,500.619,30.445,499.055,28.851,493.73Zm1052.779,7.076h2.18v0.545c-0.36.181-.73,0.363-1.09,0.544a20.578,20.578,0,0,1-9.8,6.532Q1077.285,504.617,1081.63,500.806Zm-970.582,5.988c6.787-.247,10.942.393,14.7,2.722,0.482,3.826-.314,5.271-1.089,8.71,3.578,2.064,5.849,3.6,5.988,9.254l-1.089,1.089c-0.5-8.36-7.522-6.245-11.431-10.888l1.089-1.633,4.9-1.633c-0.332-3.138-.884-3.063-2.178-4.9-5.836-1.556-14.478,1.17-19.052,0h1.089ZM897.1,507.339l-2.178,2.721,4.355-2.721H897.1Zm-659.214.544c3.962,1.246,4.059,3.026,6.532,5.444,4.938-.2,7.274-6.342,15.242-4.9,2.01,1.561,2.752,2.843,3.266,5.988h-0.544l-3.81-3.81-1.089-.545c-4.705-.149-7.64.89-9.254,3.811-3.952,7.082-5.882,13.662-10.343,19.6v2.177c2.776,2.149,7.678,6.174,13.065,3.811l5.443-3.266v0.544c-5.573,11.714-28.106,3.435-22.863-8.165,2.943-3.693,12.25-4.74,9.254-12.521l-4.355-4.9-1.633,1.089c0.5,3.81,2.57,5.984,0,7.621l-1.088-.544c-0.485-3.505-1.234-6.142-.545-9.8Zm833.407,0.544h1.63c-0.54.908-1.09,1.815-1.63,2.722-13.96,7.477-31.29,26.211-44.09,36.472-6.28,5.032-16.03,8.137-20.69,14.7-3,4.227-.89,9.172-2.72,14.153-0.36-.182-0.73-0.363-1.09-0.545-0.03-6.744-1.53-8.3-4.9-11.431,4.258-4.235,2.408-7.451,4.9-14.153,0.55,0.363,1.09.726,1.63,1.088q0.285,3.538.55,7.077h0.54c7.41-2.369,12.71-8.859,18.51-13.064C1038.98,534.528,1056.99,521.96,1071.29,508.427ZM94.718,512.238h1.633v6.532H95.807l-2.177-1.633-1.089-3.266Zm876.411,11.976q-1.089,62.866-2.177,125.746c0,7.648,1.021,37.413-2.178,40.826l-1.633-1.088v-0.545c2.843-19.738-2.252-44.225,1.089-66.411q0.544-25.582,1.089-51.169Q969.224,547.9,971.129,524.214Zm-102.339.544-35.927,21.774L816.532,554.7v2.721c10.248-2.094,47.988-25.175,54.436-32.117ZM34.839,525.3c4.6,2.746,7.25,6.384,14.153,7.077l-0.544,1.089C40.964,533.618,36.636,530.834,34.839,525.3Zm601.512,0.545h1.633l-0.544,1.088-54.98,31.029c-2.726,9.7,2.244,17.271,2.721,27.217l-1.088-.544c-0.177-7.954-2.638-26.372-10.343-21.774v0.544c1.163,9.687,9.518,24.293,7.077,33.206l-1.089-.544c-1.407-9.212-4.385-22.639-8.71-29.94-12.41,1.608-18.5,12.821-29.939,15.242l1.088-1.633,52.258-32.117C607.834,539.42,622.62,534.269,636.351,525.847Zm-376.694.544c1.425,1.43.97,2.2,0.545,4.355l-0.545.544-1.088-.544V530.2Q259.112,528.3,259.657,526.391Zm23.952,2.178c14.583,5.439,4.723,20.892-4.9,24.5-4.427-3.586-7.957-12.689-8.166-20.142l1.089-1.088h0.544c1.749,6.316,3.784,14.555,9.254,17.419,3.763-2.661,6.869-4.561,7.077-10.887Q286.059,533.468,283.609,528.569Zm-130.645.544q-0.273,7.891-.545,15.786c2.126,6.351,9.326,7.5,7.621,17.42l-1.633.544c-5.844,2.778-18.14.927-21.23-2.722,2.567-3.041,13.829,1.385,20.686,0l0.544-1.089c-2.189-6.593-5.066-9.457-8.709-14.153Q151.33,537.008,152.964,529.113Zm-24.5,4.9c2.51,3.212-.588,6.313-2.722,8.165-3.26-.068-3.651-0.508-5.444-1.633-0.3-2.781-.65-3.573.545-5.443l1.088,0.544,1.089,3.266a8.182,8.182,0,0,0,4.355-1.088Zm875.322,0.544c1.78,4,.23,9.347-0.54,13.609h-0.55Q1003.24,541.361,1003.79,534.556ZM92.54,535.1h1.633c-0.285,4.8-.017,7.985,2.722,9.8l7.621,1.089c4.111,1.369,7.59,5.2,11.976,6.532l-3.811,2.178c-3.667-1.526-5.252-4.409-8.165-5.988-3.188-1.729-7.69-.258-10.887-2.178C92.218,542.117,91.67,539.956,92.54,535.1Zm-51.169,7.076H43c-1.293,3.14-3.023,3.236-3.81,7.077,3.849,2.375,9.689,4.126,11.432,8.71v2.721l-5.988,6.533-1.089-.545v-0.544c1.092-5,4.529-5.043,4.355-9.254l-12.52-5.988v-2.722C37.3,545.945,39.415,544.289,41.371,542.177Zm299.4,4.355c10.391-.3,18.4,1.36,25.04,4.9v0.545l-2.177,4.355c3.537,2.684,9.584,2.082,14.7,3.266,18.813,4.355,48.048,7.455,51.713,26.673,3.617,18.961-26.142,31.516-38.649,36.472-36.646,14.52-89.3,24.635-133.911,14.7-20.223-4.505-36.582-6.188-43.549-23.408-4.59-11.345,8.3-24.585,14.7-29.4,22.862-17.177,57.451-21,90.363-28.306,11.027-2.448,31.246,3.09,39.193-3.266V552.52c-9.032-1.987-17.817-3.028-26.673.545l-1.089-.545v-1.633ZM212.3,557.964h4.355l5.988,4.9L222.1,564.5l-2.722,2.722-1.633-1.089c-0.467-2.809-.89-3.91-3.266-4.9V564.5h-0.545l-2.177-1.089A7.662,7.662,0,0,1,212.3,557.964Zm596.069,0c-1.923,1.517-3.327,1.792-4.355,4.355l2.722,1.088c3.812-.719,4-2.045,5.988-4.355v-0.544l-0.545-.544h-3.81Zm-477.944,1.088-30.483,3.811c-24.035,5.307-48.7,10.48-66.412,22.318-6.308,4.217-20.564,15.976-15.786,28.307,5.526,14.261,20.176,16.166,36.472,20.141,48.218,11.761,103.667-1.323,140.443-16.331,11.614-4.739,26.866-10.42,31.028-22.318,4.169-11.917-6.732-18.471-13.608-21.774C390.709,562.939,360.792,558.763,330.423,559.052Zm459.98,1.089c0.871,1.469.185,0.75,1.633,1.633a7.343,7.343,0,0,0,7.077-1.089q-0.273-.271-0.544-0.544H790.4Zm31.573,4.355c3.5,2.77.558,15.453,1.089,21.774,0.9,10.689,5.458,51.765,2.177,59.879C822.945,619.74,821.984,592.32,821.976,564.5Zm-495.363,3.81c24.66-.4,88.7,2.14,79.476,27.763-3.476,9.658-17.163,11.467-27.218,14.7-23.468,7.54-121.959,30.871-136.633-1.089-4.673-10.176,4.967-18.824,10.343-22.862,14.659-11.014,34.879-13.364,57.157-17.42ZM163.851,569.94c2.464,0.467,1.62-.064,2.722,1.633q-0.273,3.266-.545,6.532H164.4q0.273-2.178.545-4.355c-3.436,1.231-3.665,4.122-6.533,5.988l-2.722-.544q0.817-3.811,1.634-7.621l1.633-.545q0.816,1.36,1.633,2.722Zm169.294,2.177-18.508,1.089c-21.716,3.524-43.622,3.977-58.246,14.153-5.348,3.721-15.761,13.588-9.254,23.407,6.021,9.086,27.63,13.526,44.637,10.887l33.206-1.633c22.805-3.815,69.935-10.428,78.387-26.673C396.154,571.444,362.161,571.88,333.145,572.117ZM1003.25,583c2.19,3.837,2.57,21.4.54,26.129C1002.58,601.207,1001.58,591.317,1003.25,583Zm-469.238,2.177c1.579,0.969.244,1.155-.544,2.722l-3.811,1.089,1.089-2.177ZM52.8,586.27l4.355,1.633v0.545C54.4,588.1,54.159,587.828,52.8,586.27Zm6.532,2.178,8.165,1.088-0.544,1.089-6.532-.544C59.312,589.1,60.039,590.072,59.335,588.448Zm78.387,3.266c4.313,1.421,6.7,1.93,11.431,1.088-1.531,2.325-2.117,3.1-5.988,3.267C140.539,594.942,139.148,594.033,137.722,591.714Zm-22.863.544c2.122,2.715,2.321,10.946.544,14.7-0.88,1.859-.886,1.821-2.722,2.721C113.846,605.329,113.476,597.463,114.859,592.258Zm407.177,0c1.064,1.338.309,0.22,0.545,1.633l-3.266,1.089,1.633-2.178ZM789.859,592.8c2.386,4.544,2.475,13.842,1.633,19.6h-1.633V592.8ZM99.073,595.524c1.507,0.629.286,0.168,0,1.633-7.963,2.67-19.414,7.276-30.484,3.811v-0.545C79.855,600.74,92.122,600.018,99.073,595.524Zm22.318,6.532,4.9,1.634v0.544l-1.088.544Zm459.98,0c2.033,1.741,2.63,5.66,3.266,8.71l-2.177-.544Zm-451.815,1.089h0Zm360.363,9.8c-0.055,1.709.093,1.4-1.633,2.721h-0.544l1.089-2.177Zm94.718,0q0.273,1.632.544,3.266l-1.088-.545v-0.544Q584.365,614.032,584.637,612.944Zm153.508,2.721c1.15,2.787-3.64,4.917-5.988,5.988l2.178-3.266Zm-254.214.545,2.722,0.544-0.544,1.089-3.266,1.633-1.089-.545Zm306.472,0c2.353,2.27.692,51.7-.544,59.879-5.138,33.988-3.349,79.717,1.633,111.592,1.325,8.476-2.283,20.518-.544,32.117q1.087,23.406,2.177,46.815h-0.544q-1.9-28.032-3.811-56.069-0.544-22.86-1.089-45.725-1.088-22.317-2.177-44.638,0.271,2.722.544,5.444h0.545Q788.5,670.923,790.4,616.21Zm-316.27,7.076c1.2,1.393.653,0.316,0.544,2.178l-1.633.544-0.544-1.633Zm247.137,4.355h2.178l-2.178,2.722-3.81,1.089q0.271-.817.544-1.633Zm-259.657,3.811H462.7l-1.089,2.177-2.178,1.089-1.088-.545q0.544-.816,1.088-1.633Zm250.947,2.177h1.634q-0.817,1.089-1.634,2.177l-23.951,15.242-42.46,19.6c-4.806,2.291-19.49,12.074-24.5,8.71l1.089-1.633C647.007,673.23,695.4,647.313,712.56,633.629ZM604.234,680.444l11.431,1.088v0.545l-21.774,3.266,1.089-2.178Zm16.875,5.443h2.177V689.7c4.058,14.894-.89,33.722,1.633,50.625q1.089,30.753,2.178,61.512c0.177,7.711,2.689,34.748,0,38.649V839.4q-2.178-58.783-4.355-117.58c-1.672-11.014,1.794-23.733-2.722-31.573h-0.544l-10.343,3.266q-0.272-1.634-.544-3.266C613.89,690.794,618.364,689.345,621.109,685.887Zm-26.129,1.089,13.064,2.177-0.544,1.089h-1.089c-3.233,1.429-11.6-.062-14.153-1.633v-0.544Zm187.258,3.266c2.612,4.467,3.451,17.712,2.722,22.863h-0.545l-1.088-.545C782.145,705.055,781.094,698.173,782.238,690.242Zm-212.3,25.04c-12.952.3-32.313,19.212-42.46,25.585-26.961,16.931-56.127,29.739-84.375,46.27-11.9,6.964-30.155,18.23-45.726,19.6V806.19l41.371-18.509c27.98-14.294,55.428-30.236,81.653-46.27,8.626-5.274,41.265-22.732,45.182-29.395q0.816-5.443,1.633-10.887c6.866-2.366,18.507-3.647,23.951-7.621,0.926,2.826,1.752,3.707,4.9,4.355l-0.545,1.089h-1.089c-5.247,2.041-14.643-1.11-19.052,2.721v0.545l14.153,3.81c6.6,0.844,11.438-4.967,18.508-2.177,1.99,0.9,2.347,1.3,3.266,3.266l3.267,20.141-1.089-.544a7.927,7.927,0,0,0-1.633-3.811q0.816,46.266,1.633,92.541L612.4,814.9c0.363-27.11.382-55.747-3.81-81.653-1.344-8.3,1.246-24.15-4.355-28.306-4.872,1.43-10.987,2.194-13.065,6.532-2.169,10.347,5.475,52.449-.544,60.968h-0.544c-2.244-19.564,4.586-48.6-4.355-64.234-4.3-1.395-11.217-3.535-16.331-1.089Q569.668,711.2,569.94,715.282Zm1.088,0,4.9,1.089c6.784,12.895,2.722,36.789,2.722,55.524,0,40.348,1.5,79.216,2.722,117.581q0.272,28.3.544,56.613c-2.752-32.507-4.355-66.329-4.355-101.8q-0.271-33.745-.544-67.5c-3.207-21.438,5.94-46.982-6.532-58.246Q570.756,716.916,571.028,715.282Zm205.222,3.811c2.883,3.216,2.564,11.238,1.633,16.875-2.529,15.308,3.592,50.849-2.177,60.967h-0.545l-2.177-.544c0.27-3.235.5-4.3-.544-6.532-19.4-2.621-40.785.49-58.246,3.266-14.669,2.332-29.879,1.693-43,3.81-4.117.665-6.484-1.92-8.71-1.633-10.007,1.292-20.755,16.92-33.75,18.508q-0.273-.816-0.545-1.633,0.273-.543.545-1.088c25.339-7.619,41.137-28.052,64.778-35.928-7.529,8.659-20.805,11.471-28.851,19.6l30.484-3.81c16.415-2.551,30.868-.994,45.726-3.267,10.475-1.6,24.919,2.938,32.661-.544C777.346,770.646,770.274,732.351,776.25,719.093ZM554.7,731.069h1.088l-3.266,2.721,1.089-2.177Zm-6.533,4.354c0.527,1.7-.176,3.369-3.81,3.811l1.633-2.722Zm-6.532,4.9h1.089c-3.368,6.556-15.03,10.26-21.23,14.153-10.682,6.707-53.366,35.973-65.867,34.294v-0.544c23.975-8.895,45.594-23.691,65.867-36.472Zm197.6,4.354h1.089a13.286,13.286,0,0,1-7.077,4.9v-0.545ZM720.181,757.2h1.089c-1.33,2.956-3.687,4.516-7.621,4.9l1.089-1.633Zm-9.254,5.987h1.089q-0.816,1.362-1.633,2.722l-7.621,3.266,2.178-2.721Zm88.186,1.634c2.637,2.8,1.418,16.666.544,20.685h-0.544C798.965,777.74,798.148,771.661,799.113,764.819ZM223.73,771.351h2.177l-1.088,1.633-4.9,1.633,1.633-2.177ZM207.4,781.694h1.633l-1.633,2.177-3.81,1.633,1.088-2.177Zm382.137,4.9c3.1,7.74-.119,61.226-1.633,71.31q-0.272,10.342-.544,20.686h-0.544c-0.159-22.768-1.691-47.749,1.633-69.678Q588.991,797.754,589.536,786.593ZM192.7,790.948h1.633v1.088l-2.178,1.089-1.088-.544v-0.545Q191.885,791.492,192.7,790.948Zm254.758,1.088h1.088c-0.933,2.165-.3,1.516-2.721,2.178q0.271-.818.544-1.633Zm-9.254,4.9h2.721l-0.544,1.089-21.774,9.8q0.272-.817.544-1.633Zm-67.5,11.432,8.709,1.089v1.088h-1.088c-8.143,2.938-18.227.381-23.408,5.988l11.432,3.266-0.545,1.089c-5.433.035-10.7-.589-13.064-3.81l-0.544,1.088c-6.446,7.818-.123,29.645,0,40.283,0.438,38.046,5.488,73.778,5.987,109.959l-1.088-.544c-0.664-8.729-.305-23.577-3.811-30.484l-1.088-.544c-11.379.222-19.51,8.322-28.307,6.532v-0.544l1.633-1.633c9.354-3.385,15.028-6.94,27.218-9.255q0.272-.816.544-1.633c3.375-8.745-1.346-26.883-2.721-35.383V854.093q-1.089-18.507-2.178-37.016C352.949,810.222,362.5,811.81,370.706,808.367Zm44.092,0h1.089c-1.15,2.088-1.95,2.406-4.9,2.722V810ZM383.77,813.81H385.4q-0.272.818-.544,1.634l-8.165,2.177,1.088-1.633Zm370.706,0,0.544,1.089Zm-602.057.545h1.633l-2.177,2.722L144.8,819.8V818.71Zm241.15,0c3.079,2.487,1.423,9.9,2.177,14.7,2.567,16.321,2.725,33.224,2.722,51.714-0.011,56.377,2.852,117.245,6.532,173.1h-2.177q-2.449-59.055-4.9-118.124-0.543-32.114-1.088-64.234C394.182,854.139,392.11,830.987,393.569,814.355ZM825.242,819.8c1.452,3.226,1.123,15.267,0,16.875v-1.088C823.273,831.934,824,823.752,825.242,819.8Zm-212.3,2.178c5.971,6.068.183,24.474,1.633,34.294q1.632,36.468,3.266,72.944c1.229,8.269,4.344,25.456,1.088,33.75C616.205,917.624,613.077,871.434,612.944,821.976Zm-479.577,3.81c-0.094,1.605.463,0.828-1.089,2.178h-0.544v-0.545Q132.55,826.6,133.367,825.786Zm-16.331,9.254h1.089c-0.871,1.469-.185.75-1.633,1.633l-2.722,1.089v-1.089Q115.4,835.857,117.036,835.04Zm-6.532,3.266h2.177l-1.633,2.178-5.443,1.633,0.544-1.633Zm694.6,1.634c3.457,5.147,1.8,14.687,1.633,22.318l-1.089-.544Q805.374,850.827,805.1,839.94ZM628.185,852.46c2.705,3.58,3.937,21.88,1.634,27.217v-1.088Q629,865.526,628.185,852.46ZM372.339,865.524q0.816,13.88,1.633,27.762c2.933,19.638,5.2,57.774,2.722,77.3h-0.545C376.28,935.357,372.464,902.223,372.339,865.524ZM673.367,881.31c0.19,2.437-.694,2.7-3.266,3.811q1.089-1.633,2.177-3.266ZM659.758,892.2c0.255,1.483.109,1.222-.544,2.721l-2.178.545q0.818-1.361,1.633-2.722Zm-27.218,16.33c3.664-.452,5.257-2.2,7.077-1.088v0.544c-13.866,5.773.1,25.4-4.355,38.105V945c-4.87-10.9-5.575-34.367-3.81-47.9H632Q632.268,902.812,632.54,908.528Zm-45.181-10.343c1.624,3.085,1.728,7.76,1.633,12.521l-1.089-.545v-1.088C586.586,906.284,586.663,901.4,587.359,898.185Zm64.234,0h1.088l-7.076,5.444h-1.633L645.06,902Q648.327,900.091,651.593,898.185Zm-150.787,5.444h1.634l-1.634,2.722-4.9,2.177q0.818-1.361,1.633-2.722Zm-8.165,5.988h1.633a2.074,2.074,0,0,1-1.089,1.089,22.956,22.956,0,0,1-11.975,7.076l3.266-3.81ZM477.4,918.871h2.178q-0.273.816-.545,1.633c-2.234,1.268-2.781,2.2-5.988,2.722q0.273-.816.545-1.633Zm81.653,0.544a15.071,15.071,0,0,1,7.621,1.633v0.545q-0.272,1.361-.544,2.722c-16.106-.124-32.221-0.609-47.359,2.177-12.445,2.29-28.385,6.859-42.46,4.355v-1.633H477.4Zm-89.274,4.9h1.633q-0.545,1.087-1.088,2.177l-5.444,2.722L467.6,925.4Zm-8.165,5.443h1.633l-2.722,3.266-9.8,4.9,1.089-1.088C453.868,933.307,458.462,932.182,461.613,929.758ZM448,938.468l1.089,1.088-0.545,1.089C433.834,946.5,421.006,957.386,405,963.508,406.95,958.354,441.286,943.214,448,938.468Zm-89.819,33.205c1.7,2.869,2.815,13.018,1.089,16.875Zm178.549,17.964h1.089c-1.819,2.556-4.264,5.514-7.621,6.532q0.272-.816.544-1.633Zm-158.407,5.988v0Zm149.7,1.633c0.518,2.622-1.281,4.732-4.355,5.442Q525.847,999.985,528.024,997.258Zm-7.621,7.622h1.089c-1.051,4.54-5.862,8.68-9.8,10.34Q516.047,1010.045,520.4,1004.88Zm-159.5.54c0.363,0.18.726,0.37,1.089,0.55,0.077,2.68-.032,4.12-1.089,5.44v-5.99Zm0.545,9.26c2.9,2.19,4.768,32.65,4.9,39.19h-1.633Q363.085,1034.28,361.452,1014.68Zm143.709,5.44h1.633c-0.363.73-.725,1.45-1.088,2.18l-10.887,8.16C497.3,1026.2,501.683,1023.42,505.161,1020.12Zm-126.29,1.09H380.5v3.27h-1.633v-3.27ZM492.1,1032.1c-0.17,3.07-3.972,6.34-7.621,7.62,0.363-.55.726-1.09,1.089-1.64C487.025,1035.03,489.626,1034.08,492.1,1032.1Zm-112.137,1.63c2.38,2.93,2.911,13.39,1.088,16.87Q380.505,1042.17,379.96,1033.73Zm100.705,8.17H482.3c-0.181.54-.363,1.08-0.544,1.63l-5.988,3.81c1.27-1.63,2.541-3.27,3.811-4.9Zm-12.52,10.88h1.633v1.09C467.838,1053.58,467.171,1054.48,468.145,1052.78Z"/>
</svg>
