<svg xmlns="http://www.w3.org/2000/svg" width="2480" height="3508" viewBox="0 0 2480 3508">
  <defs>
    <style>
      .cls-1 {
        fill: #7c8558;
        fill-rule: evenodd;
      }
    </style>
  </defs>
  <path id="Preenchimento_de_Cor_1" data-name="Preenchimento de Cor 1" class="cls-1" d="M2216,1271c-0.22-7.04.02-8.01,3-13,5.85-1.11,5.58-1.05,12,0,0.67,1,1.33,2,2,3-0.1,9.07-2.56,10.07-4,17q1.995,4.995,4,10c6.84-4.32,12.81-5.34,22-3,1.33,1.67,2.67,3.33,4,5-0.22,9.31-3.08,10.97-7,16-11.99,3.69-24.4,10.53-31,20q9,1.005,18,2c2.23-5.43,4.22-7.41,8-11h9c3.96,4.72,6.01,5.59,6,15q7.995,0.495,16,1v-1l-5-5c-1.79-6.67-4.41-10-3-18l5-5h8c6.58,4.28,12.66,16.2,10,26,10.07-4.33,16.83-13.93,27-14-0.94,11.43-9.62,11.85-17,19,3.93,6.89,5.93,9.16,4,18-3.17,4.37-5.73,6.5-13,7-8.59-4.01-13.39-9.01-16-19-3.67.33-7.33,0.67-11,1,3.06,6.55,2.63,10.97-1,17-3.33.67-6.67,1.33-10,2-11.86-7-12.48-17.87-20-26-23.25,3-53.78-2.66-69,16-10.68,13.09-5,82.81-5,108q0.495,91.485,1,183c0.67-.33,1.33-0.67,2-1,7.6-19.2,30.06-33.2,52-38,4.4-.96,11.6,3.61,15,0,9.47-14.26-7.49-28.87-14-37-3.42,2.42-7.54,5.4-13,3-13.09-5.22-26.21-49.59-18-67h5c14.34,18.82,80.99,19.84,36,64,8.95,5.04,14.06,16.97,14,31,1.67-1.33,3.33-2.67,5-4,9.4-43.23,1.49-46.28-14-83q-2.505-10.005-5-20-7.005-4.5-14-9c-8.15-8.41-11.71-20.38-2-30,10.45,0.54,12.69,7.69,18,9,0.33-6.05,1.58-7.07,8-10h-2c-3.08-5.87-13.65-7.83-19-15,3.42-14.54-5.71-29.6,6-44,18.91-.91,42.9-8.99,53,10q2.505,15.495,5,31c-3.2,7.29-7.13,11.21-17,9l-1-1c0.33-1.67.67-3.33,1-5,2.67-1.33,5.33-2.67,8-4,0.09-6.73-4.33-15-1-24-5.62-5.76-17.94-11.56-27-13-3.35,1.71-16.57,4.78-19,8-2.87,4.79-1.25,8.57-2,12,10.66,6.39.35,13.57,5,23,11.71-.14,12.94,4.07,18,10,1.67-.33,3.33-0.67,5-1,4.56-2.63,3.29-5.22,9-7,1,1.33,2,2.67,3,4q-3,4.995-6,10c-2.33,1-4.67,2-7,3q-6-1.995-12-4c0.76,10.73-5.76,18.62-3,33,0.67,0.33,1.33.67,2,1,6.67-5.1,9.57-8.85,19-12,5.48,1.96,8.58,2.85,11,8,8.68,14.63-10.44,32.05-20,36q4.995,12.495,10,25h1c9.09-3.41,13.9-8.7,18-17l-2-2q-4.995,4.5-10,9c-1.67-.33-3.33-0.67-5-1v-6c6.89-6.21,9.37-11.7,22-10,0.67,1,1.33,2,2,3,0.56,19.4-9.82,25.59-24,33,8.71,24.24-5.3,48.9-19,58h2c13.32,12.36,26.51,28.18,31,49,14.65-8.47,47.99-12,40,22q-6.495,13.5-13,27-2.505,15.495-5,31c-1.33.67-2.67,1.33-4,2-1-.33-2-0.67-3-1l-18-24c-19.72-15.93-56.17-29.59-27-62,11.1-.49,13.87,2.37,22,6v-1c-21.39-47.62-54.99-66.86-92-18-20.11,26.55-10,142.56-10,190q0.495,30.495,1,61c0.33-.67.67-1.33,1-2,9.66-8.02,30.82-65.83,27-84-2.64-12.52-8.43-33.32,1-49,7.34,0.01,8.12,1.25,12,4q1.995,5.505,4,11v-2l16-19c1.33,0.33,2.67.67,4,1v5c-7.06,9.93-13.58,19.83-20,31,7.62-4.08,19.38-8.98,27-3,3.69,3.05,2.97,6.64,2,12l-42,30q-3.495,15.495-7,31c8.06-6.01,14.05-15.19,27-16v6a178.592,178.592,0,0,0-32,26c-8.86,9.24-6.25,23.05-21,27q0.495,63.495,1,127c0.66,11.09-4.84,34.82,1,42,3.29-7.88,11.42-16.51,19-20-4.98-14.31-3.8-28.56,3-39,3.33-.33,6.67-0.67,10-1,7.96,2.69,10.5,8.85,10,20,6.72-4.11,14.61-9.58,18-17-7.79-3.45-18.1-19.24-13-29,8.15-16.43,22.62,5.31,26,11h1q7.005-16.5,14-33c-8.6-2.5-7.4-7.83-13-12-12.28-9.14-32.84-26.5-27-49,1.3-4.99,6.69-8.43,8-12q-0.495-7.005-1-14c5.59-13.91,11.49-21.13,23-31,4.18-3.59,4.75-10.19,11-12,21.98-6.36,55.7,24.07,61,37q1.995,10.995,4,22c3.12,7.22,13.87,15.12,9,27-2.22,4.78-5.24,5.94-9,9,8.49,15.46-3.97,33.8-17,42-7.61-1.49-8.29-5.07-13-9-5.25,10.15-18.52,5.93-29,4-3.22,19.7-15.73,36.3-25,51,21.36-7.19,38.7,3.92,51,12,1-12.43,5.83-16.04,13-22,3,0.33,6,.67,9,1,2.33,1.67,4.67,3.33,7,5,1.42,15.81-12.21,25.4-11,32q7.995,6,16,12c-1.64-27.79,15.65-63.1,49-54q3.495,4.5,7,9c-0.78,29.76-34.62,24.08-49,40,1.74,12.01,61.68,3.12,72,24,1.96,6.96-.76,8.86-4,13-29.58,7.99-51.43-10.73-74-20-1.06,15.86,37.88,75.36-3,68-17.72-27.22-18.09-41.91-3-74q-7.5-5.505-15-11c1.89,17.08.65,38.41-19,40q-4.995-4.5-10-9c3.03-17.98,2.69-29.72,15-42-6.21-8.42-34.92-28.03-51-15,14,2.23,30.83,17.39,22,33-4.73,1.26-7.81,1.96-13,1-11.23-8.38-13.44-20.04-31-23l-25,22c13.53-2.68,21.44,4.01,29,10-0.33,3.33-.67,6.67-1,10-15.55,7.45-33.44,6.41-51,11q-0.495,34.995-1,70c0.67-.33,1.33-0.67,2-1,1.32-4.5,2.3-4.33,5-7,6.9,0.17,7.27,1.36,11,4,2.08,7.55,3.05,10.61,3,22,9.66-6.96,6.79-10.12,12-20,5.91-11.21,16.25-14.36,27-21l9,3c0.33,0.67.67,1.33,1,2-2.05,28.25-42.28,35.48-57,56,8.39-5.15,16.86-6.51,26-1,0.67,3,1.33,6,2,9-6.85,10.45-25.54,24.68-41,22q0.495,7.5,1,15c2.01-3.83,1.53-3.49,7-4l1,1v5c-7.55,11.87-19.4,22.64-24,37q-1.995,23.505-4,47c-3.2,16.27-11.65,26.11-19,38-1.67.33-3.33,0.67-5,1-2.23-10.17.63-25.73,1-38q-2.505-26.49-5-53c-0.22-11.07,6.07-16.71,8-24q-0.495-121.485-1-243-0.495-200.985-1-402c6.12-80.38-6.44-162.31,0-214q1.995-52.5,4-105c-0.41-15.05,11.08-30.91,11-43-0.13-21.48-39.5-49.68-46-76-9.53-38.6,18.54-69.83,49-73-37.66-76.93,18.81-123.753,35-180,4.76-16.546-1.84-33.938-5-48-9.81-43.625-90.96-125.417-131-145-14.94-7.308-71.38-47.776-89-40-4.38,9.759-13.1,15.527-22,21-40.3,24.793-59.06-32.051-82-41l-56,4-52,8-41,1-74,13v1c16.66,4.113,25.18,19.126,39,26,3.34-9.331,23.18-15.262,29-4,1.68,2.1,1.55,1.975,2,6-2.99,7.43-6.44,12.046-16,13,7.31,10.606,20.21,21.08,33,26,2.88-16.85,23.95-22.722,34-9,6.42,8.768,12.75,45.445,14,58l-6,5c-23.01-3.288-59.65-4.848-59-34,2.84-5.955,5.65-9.571,11-13-0.33-.667-0.67-1.333-1-2-25.81-6.422-41.86-38.312-63-52,1.21,9.094,1.27,15.651-6,19-5.02,1.4-10.09.211-15-1-5.03-6.295-11.46-13.087-8-25-26.73,11.5-14.58,41.752-13,68,12.22-6.2,21.94-7.19,34-1,2.36,13.007,5.4,16.452,5,27,8.25,3.464,9.4,8.8,12,18-1.33,2.666-2.67,5.334-4,8-6.26.336-9.83-1.106-14-1,0.5,3.126.49,5.412-2,8-12.99,13.511-25.66-18.531-28-27h-1q-2.505,11.5-5,23c15.97,4.821,28.13,29.338,25,47-0.67,1-1.33,2-2,3h-10c-12.19-9.256-9.19-25.922-18-36-0.67.333-1.33,0.667-2,1l-6,12q2.505,11.5,5,23,5.505,9.5,11,19c6.02-2.467,9.07-3.089,15-5,9.47,4.258,35.96,22.788,23,34-1.67-.333-3.33-0.667-5-1v-8l-6-1c0.47-8.341,1.18-8-5-11l-9,3c-1.64-3.016-1.68-4.321-5-6-2.81,3.446-5.14,2.447-9,3-12.8-9.98-12.96-20.606-20-37h-1c-4.75,29.453-12.08,35.325-36,45a19.26,19.26,0,0,1,1,12c4.72,1.235,3.86.067,5,5-2.84,4.94-2.2,5.652-1,11,8.14,0.34,7.85,3.705,5,9h-5c-10.56-5.766-15.35-26.9-12-38,5.24-12.3,17.73-11.73,28-19,0.13-12.12,8.85-29.585,14-41-10.24,3.992-33.37,11.857-40-3-2.52-5-.94-8.765,2-13,15.95-5.029,26.79-.326,42,3q2.505-3.5,5-7c-0.33-.333-0.67-0.667-1-1-11.74,3.732-26.64-1.806-31-9-1.96-2.885-2.09-5.215-1-9l3-5c13.07-3.867,24.38.755,38,4-0.27-60.428-22.37-81.093,19-118-49.1,10-39.03-32.8-94-4,0.33,0.667.67,1.333,1,2,12.37,2.466,8.05,12.268,12,17-5.49,11.943-53.61,39.928-64,36l6-29c1.55-17.559-2.72-35.254,5-50,3.33-.667,6.67-1.333,10-2,10.54,4.7,17.66,10.052,20,23q14.505-7.5,29-15c-14.17-4.662-26.65-23.6-23-40,3.88-2.626,5.74-4.233,12-5,11.35,7.666,27.61,23.69,23,43l13,1c-9.72-31.674,20.07-66.283,50-65v2c2.29,10.454-10.77,20.259-8,35,5.3,3.76,12.08,6.012,17,8,17.65-14.8,30.42-33.4,51-46,9.3-5.69,29.83-8.261,36-17q5.505-11.5,11-23c-8-6.216-29.91-27.04-26-40,0.68-4.511.24-3.872,3-6,1.33-1,2.67-2,4-3,21.81,6.483,20.8,18.047,29,38,0.33-.667.67-1.333,1-2,11.69-11.281,11.36-29.187,20-44q13.005-17.5,26-35c3.41-7.238.52-18.1,5-23,0.67,0.333,1.33.667,2,1a11.928,11.928,0,0,1,4-13c19.22,4.873,33.53,4.574,43,19-0.84,2.581-1.53,5.236-3,7-1.74,2.66-1.92,2.615-5,4-14.76,4.174-27.5-6.368-36-14,2.35,16.434-5.96,26.822-14,38,13.04-1.117,23.96,1.334,30,10v8c-2,2.3-2.09,3.345-5,5-5.87,3.6-12.47,2.063-20,1-19.55-2.759-26.42,18.477-33,30,12.37-3.4,32.4-7.786,39,4,11.42,17.769-55.29,20.155-63,32l-3,6c53.75-3.078,93.19,10.1,123-32-5.59-10.331-11.03-24.135,2-30,4.36,1.544,7.84,4.445,13,7,0.33-2,.67-4,1-6-7.09-3.35-10.74-7.172-16-12-0.17-8.417,1.1-9.2,5-13q8.505,2,17,4c0.33-3.333.67-6.667,1-10-0.33-.667-0.67-1.333-1-2-8.92.994-17.7-5.147-23-11,0.33-2.666.67-5.334,1-8,3.67-7.712,12.04-7.25,21-5v-6c-0.67-2.666-1.33-5.334-2-8l-3,4c-7.43-2.845-10.69-5.155-15-11,0.67-2.333,1.33-4.667,2-7,4.67-2.3,7.13-3.829,13-3-3.35-8.724-8.61-25.188-2-35l6,1c9.08,4.922,1.34,22.382,3,31,3.38-2.736,5.4-6.2,11-4,1.33,0.667,2.67,1.333,4,2,3.05,13.1-9.79,27.247-9,30-0.19,2.611-.26,6.356,2,9,2.54-5.153,7.76-7.6,15-8l6,4c0.33,2.333.67,4.667,1,7-7.42,11.577-14.76,15.88-24,25v4c7.4-.924,12.66-0.851,18,2l3,7c-2.35,10.442-11.08,20.986-25,16-1.33,2.666-2.67,5.334-4,8,8.24,0.715,16.59,4.772,15,12,50.61-16.222,46.03-115.04,61-165,8.12-27.082,25.69-38.281,41-59-7.42-9.608-14.64-22.438-6-36,14.72-.09,16.09,10.864,19,19,0.67-.333,1.33-0.667,2-1,1.33-2.333,2.67-4.667,4-7-9.15-7.483-9.81-17.023-6-30l3-1h7c7.75,3.388,10.35,13.765,8,24q7.995-5.5,16-11c-14.15-4.064-27.99-18.025-24-37,2.71-3.056,4.27-3.69,10-4,11.81,7.634,16.79,14.753,23,28,0.67-.333,1.33-0.667,2-1,4.78-11.893,18.19-25.044,32-22,1.33,2.666,2.67,5.334,4,8-2.66,9.8-5.98,19.67-17,24,0.67,1,1.33,2,2,3,7.93,1.822,13.46,7.658,14,17-1.33,2-2.67,4-4,6-24.74.614-26.64-22.07-49-8,0.33,0.667.67,1.333,1,2,12.44,1.448,19.51,8.535,26,16,0.01,6.328-.86,7.582-3,11h-1c-19.24-.22-27.59-10.891-36-22h-1q-4.005,6-8,12c11.69,0.314,36.66,10.343,28,26-2.35,4.808-4.5,4.5-9,7-13.02-4.147-19.22-12.552-32-15-9.5,12.24-22.86,21.207-31,35-11.47,19.446-26.87,95.6-28,121,0.67-.333,1.33-0.667,2-1,6.33-14.891,21.7-26.785,35-35,0.17-15.435,7.55-23.473,13-34-6.54-.993-6.63-3.29-10-7-0.14-4.919.06-7.568,2-10,5.4-6.911,13.52-1.4,16,4,4.96,17.934-9.99,27.939-13,42h1c13.39-6,54.88-13.5,63-23-0.67-.667-1.33-1.333-2-2-1.61-1.838-2.58-1.92-5-3q-5.505,5-11,10h-4v-2c0.38-13.786,12.27-17.95,26-13,1.33,2.666,2.67,5.334,4,8l-3,10c-16.82,8.929-43.56,14.843-62,21,16.33,8.233,29.68,8.886,39,24,5.98-4.837,16.29-7.909,21,1a8.039,8.039,0,0,1,1,9l-6,7c-20.84-.748-19.08-14.783-31-23-35.98-24.793-63.01,6.382-77,34,12.97-6.676,32.26-12.8,47-4v11c-9.95,12.392-36.75,12.092-55,12-6.95,19.82-32.7,36.013-57,38,0.33,0.667.67,1.333,1,2q14.505,5,29,10c2.29-11.689,13.2-21.652,27-22,13.47,7.576,1.3,20.711-4,27l16-1c-3.24-11.549-3.07-20.839,2-30,14.55-1.529,12.2,10.086,16,19,0.67-.333,1.33-0.667,2-1q5.505-8.5,11-17l3-1c0.67,0.667,1.33,1.333,2,2-1.69,14.913-11.47,20.164-19,29,6.78,1.309,33.25,18.041,18,27-14.36,8.44-28.69-12.606-31-21l-20,3c4.18,6.747,5.23,12.161,3,21l-10,3c-15.34-10.413-18.76-30.205-33-34,3.11,5.478,5.55,9.624,6,18-4.02,6.663-11.88,7.591-17,1-12.57-5.44-5.85-25.307-10-28-2.74-1.829-5.87-2.1-11-2-8.18,13.366-23.61,15.945-35,26h2q8.505,4,17,8c9.69,5.6,29.94,26.692,38,29,14.07,4.031,38.21-5.431,57-2,31.07,5.675,63.7,8.665,94,19,44.93,15.326,76.95,38.965,113,62q9.495,8.5,19,17c-8.39-19.256-21.82-29.478-33-45-15.31-21.254-18.26-46.774-43-59-0.87,5.472-1.76,6.1-6,8-16.69,7.6-44.45-29.468-52-40,0.5-20.234,21.82-9.126,33-7,13.04,2.48,18.34-1.055,30,2,5.76,15.431,5.3,16.064-2,30,10.7,2.53,22.17,12.442,26,22,0.33-.667.67-1.333,1-2,5.27-7.056,7.46-13.133,15-18-32.97-37.324,11.08-42.121,39-56q14.505-9.5,29-19l6,3c1.02,31.848,17.13,102.209-24,102-16.81-5.7-25.94-16.492-40-27-22.1,11.546-22.39,35.241-7,54q14.505,17,29,34,10.995,25.5,22,51c22.15,47.5,52.53,75,52,142,1.67-1.333,3.33-2.667,5-4,7.37-18.673,16.66-36.97,22-60-10.14-1.684-16.63-3.419-20-12-3.25-11.259,4.07-18.725,10-24,6.7-.059,9.84,1.05,14,3V792c-0.67-.667-1.33-1.333-2-2-13.48,2.894-20.86,1.4-30-5v-6c5.44-8.03,16.37-9.144,29-7v-1c-0.67-2.333-1.33-4.667-2-7-7.96-1.87-19.04-5.832-23-12-2.21-3.656-2.05-8.286-1-13,4.19-4.341,11.55-5.078,12-8,0.33-.333.67-0.667,1-1-6.27-6.148-12.52-6.487-13-19,0.33-1,.67-2,1-3l6-6c9.42,0,11.45,2.705,17,6,2.3,10.64-.51,32.967,2,33,4.86-3.868,10.84-11.774,19-9,3.63,0.644,3.03.4,5,2,2.91,2.409,3.07,4.47,3,10-4.81,9.526-17.77,16.89-20,26,0.33,2,.67,4,1,6,15.24-2.812,28.8-4.2,34,9v3c-6.91,10.676-19.33,11.722-32,6,0.67,3,1.33,6,2,9,15.85-5.469,46.81,14.8,28,26-9.99,5.082-25.21,2.909-34,8,0.15,14.087-9.78,39.717-17,54,23.79-6.174,24.58-30.639,50-33l5,2c0.67,2,1.33,4,2,6-1.55,6.932-5.58,9.978-9,15v1l6,1c5.24-10.642,7.53-19.513,23-20l6,4c0.33,10.978-4.18,14.036-7,23l10,4c5.45-5,7.58-7.236,16-10,7.58,2.482,12.89,5.117,16,12,6.14,11.015-2.6,16.654-8,22-7.5.159-11.24-.98-16-3,0.33-2.333.67-4.667,1-7,9.05,1.029,10.51,1.895,17-2-0.42-5.923-1.76-7.378-4-11-4.23-1.424-6.91-1.981-12-1v13h-1q-11.505-5-23-10v1c2.19,5.474,4.77,14.392,1,20-2.23,2.7-3.12,2.731-8,3l-6-5c-2.05-7.6-4.66-22.862-8-26l-4,1c0.33,1,.67,2,1,3-0.78,9.807-.64,15.365-6,23l-6,1c-10.42-5.017-13.43-13.079-15-24l7-1c1.61,7.7,4.24,11.894,8,17l3-2c0.33-.667.67-1.333,1-2q-1.005-8-2-16c-58.43-.463-48.21,34.775-64,71q-15,22-30,44c-6.69,12.63-7.78,31.43-9,42-2.29,19.79,14.8,37.96,12,52,35.01,6.48,63.7,36.5,63,76,29.07-19.73-8.03-72.13-15-90-15.62-.12-31.28-6.97-28-23,4.34-5.3,9.13-4.97,16-8-2.67-7.94-.42-15.97-2-24-2.69-13.65-18.38-37.93,0-51l7,1c16.69,7.336,3.5,39.16,0,55h1c2.81-5.96,6.34-9.65,15-10,3.5,1.5,4.99,1.98,7,5,0.67,2.33,1.33,4.67,2,7-3.79,11.18-9.16,18.88-21,22q2.505,6.495,5,13c4.06-2.98,5.45-5.03,12-6,2.33,1.33,4.67,2.67,7,4,2.67,11.47-6.81,24.13-5,28,3.61,27.92,28.99,42.05,10,79,11.73,10.74,25.45,16.91,31,34,11.9,0.71,17.7,4.05,24,10,1.94,9.63-.41,11.78-9,15,1.33,1.67,2.67,3.33,4,5,1,0.33,2,.67,3,1,10.1-5.27,21.1-8.05,31-1v1c-0.33,2-.67,4-1,6-2.45,3.75-6.26,5.31-7,8q9.495,3,19,6v5c-1,.67-2,1.33-3,2q-13.005-4.005-26-8l-1,1c0.49,10.04.44,18.66-6,23-1,.67-2,1.33-3,2l-9-3c-10.05-18.47,1.8-27.5,0-36q-7.005-6-14-12v2c-5.8,5.24-6.21,10.14-17,11-2-1.33-4-2.67-6-4-2.48-7.61-5.53-13.18-2-20,2.66-6.05,8.19-10.08,16-11-5.94-12.71-17.91-28.7-35-30-0.67.33-1.33,0.67-2,1-1.06,14.41-10.85,29.25-21,35-3.83-1.32-2.08,0-4-3q-3.495-13.995-7-28c-18.59,11.68-45.11,39.92-50,64v92c23.89-16.9,69.48-17.15,63-59-10.56,4.71-19.97,7.16-30,0v-1C2195.3,1272.98,2203.34,1270.32,2216,1271ZM2008,247c0.3,13.223,8.99,21.7,19,25v-1C2023.23,261.623,2017.82,250.321,2008,247Zm53,4c-8.87,7.771-16.68,14.62-23,25C2045.71,274.11,2071.28,259.247,2061,251Zm-65,24c-0.14,6.192.55,9.7,3,13,0.33,0.667.67,1.333,1,2,0.67-.333,1.33-0.667,2-1v-8C2000.03,277.562,2000.22,276.583,1996,275Zm51,9c-0.33.333-.67,0.667-1,1,3.69,4.6,9.88,7.92,17,9-0.67-.667-1.33-1.333-2-2C2058.36,286.783,2053.38,285.35,2047,284Zm-71,12c-0.08,8.788,1.96,12.026,4,18l4,1c-0.33-.667-0.67-1.333-1-2C1985.05,306.459,1981.28,298.556,1976,296Zm41,7c4.37,5.5,9.97,10.072,19,11-0.33-.667-0.67-1.333-1-2Zm-28,18c3.21,7.364,20.09,16.421,29,15C2015.3,323.453,2003.17,320.4,1989,321Zm-199,49,8,1c2.56,1.9,6.14,5.547,5,8,5,17.93-11.85,31.138-21,39l-7-1C1766.97,396.525,1778.61,378.143,1790,370Zm-44,2,10,1c12.03,8.065,14.21,26.641,10,42h-4c-10.32-6.138-26.61-18.777-22-36C1737.96,377.293,1744.19,373.387,1746,372Zm46,6c-7.48,7.145-11.93,15.273-12,30h1q3.495-3,7-6C1790.9,396.525,1801.88,383.676,1792,378Zm-44,2c-0.33,2.333-.67,4.667-1,7,3.01,6.463,6.57,11.965,12,16h1v-7l-6-15Zm-37,13c18.15,4.236,39.11,18,49,31-0.33,1.333-.67,2.667-1,4l-5,1a131.745,131.745,0,0,0-43-28c-1.33.667-2.67,1.333-4,2,0.33,1,.67,2,1,3,10.92,8.108,20.81,13.285,37,17,0.33,0.667.67,1.333,1,2v4c-0.67.667-1.33,1.333-2,2-11.96-.925-49.35-16.114-44-26a16.321,16.321,0,0,1,3-10Zm107,10,12,1c1.33,2,2.67,4,4,6,1.41,7.441-3.13,10.229-7,15-18.7,7.192-30.01,11.01-46,1l3-8A370.2,370.2,0,0,0,1818,403Zm153,2,3,5h1C1973.78,405.507,1974.94,406.777,1971,405Zm-153,6-25,11c0.33,0.667.67,1.333,1,2,16.28,0.845,24.29-2.253,33-11-0.33-.667-0.67-1.333-1-2h-8Zm-52,9,9,2c2.27,4.567,3.22,7.884,2,14l-6,5-8-1-3,9c4.65-2.364,6.78-4.231,12-4,0.33,0.667.67,1.333,1,2,0.6,18.521-10.02,27.121-26,32-3.2-1.622-4.19-1.849-6-5-2.08-5.218.63-8.569,3-12-12.65,3.107-21.7,4.128-31-2V448c11.29-8.565,26.21-18.712,43-16,0.33,2,.67,4,1,6l5-1C1759.78,430.492,1762.66,423.909,1766,420Zm3,9v0Zm102,8c-1.67,2-3.33,4-5,6v6C1869.61,446.719,1872.56,441.342,1871,437Zm-121,2c-10.98,5.3-20.97,7.164-30,13v3c0.33,0.333.67,0.667,1,1,19.43,0.694,27.97-4.549,35-16v-1h-6Zm103,4-3,2c0.33,0.667.67,1.333,1,2q4.005,2,8,4c-0.33-2.333-.67-4.667-1-7Zm-61,1c4.85,9.425,19.42,14.09,29,13C1817.47,445.853,1802.65,446.859,1792,444Zm-28,11c-4.71,5.667-11.66,7.858-15,15h1C1755.33,467.646,1765.49,460.52,1764,455Zm119,15q-6.495,5.5-13,11v5h1c0.67-.667,1.33-1.333,2-2q5.505-5,11-10C1883.67,472.667,1883.33,471.333,1883,470Zm-35,4c-0.33,1.333-.67,2.667-1,4,5.13,2,10.86,5.918,16,5-0.33-.667-0.67-1.333-1-2v-4C1857.76,475.064,1854.75,474.075,1848,474Zm175,5c-0.87,4.512-1.55,3.388,4,6l3-1c-0.67-1.666-1.33-3.334-2-5h-5Zm-252,18-9,4q-2.505,4.5-5,9v1h1c9.2-5.2,30.01-1.047,37-8-0.67-1-1.33-2-2-3A71.645,71.645,0,0,0,1771,497Zm177,6q-13.005,5.5-26,11v1c12.88-.259,33.62-0.538,41-9v-1Zm-100,4q4.005,4.5,8,9c4.2-1.537,2.45.184,4-4Zm27,2c-2.33.667-4.67,1.333-7,2v3c-0.74,3.5-.95,3.376,1,6,0.67-.333,1.33-0.667,2-1,5.09,0.947,7.67-1.531,11-5v-3c-0.67-.667-1.33-1.333-2-2h-5Zm-175,13c1.43,10.892,12.81,24.63,21,29v-1C1717.58,537.642,1713.81,523.949,1700,522Zm141,10q1.995,6.5,4,13l3-2c0.33-.667.67-1.333,1-2-0.88-4.8-1.4-5.948-5-8Zm-498,11c1.67,0.333,3.33.667,5,1,3.62,19.287-3.83,28.283,4,45,10.93,23.333,35.68,33.176,47,55,4.71,9.082,1.74,24.037-5,30h-5c-4.99-24.409-34.05-28.262-51-41C1309.49,611.567,1319.12,564.2,1343,543Zm517,0c-4.48,3.108-6.36,5.047-9,10h4q6.495-2.5,13-5v-3Zm-99,4c-12.83,5.7-24.78,4.659-31,17l46-13c-1.67-1-3.33-2-5-3Zm417,4c-15.42,16.673-71.3,24.631-69,50,9.66,8.155,26.55,7.878,32,13-2.59,8.728.31,7.854,6,15,36.43,17.409,41.55-9.515,34-43Q2179.5,568.5,2178,551Zm-245,4c-1.41,5.467-.34,11.026,1,18h1c0.67-.333,1.33-0.667,2-1v-1C1936.23,565.592,1935.84,558.377,1933,555Zm-593,3c-40.53,73.817,26.5,63.883,52,102,0.67-.333,1.33-0.667,2-1v-1c-5.68-26.876-31.79-34.374-44-55C1341.77,589.1,1345.35,572.266,1340,558Zm572,1c-7.5,4.6-12.23,7.8-17,15,9.9-1.439,15.05-5.617,19-13C1913.33,560.333,1912.67,559.667,1912,559Zm-53,13c-2.12,9.407,1.77,17.887,10,20C1867.75,588.386,1863.91,575.116,1859,572Zm32,11c1.56,9.481,7.77,17.136,16,20v-2c0.33-1,.67-2,1-3q-4.005-7-8-14Zm127,2c5.09,9.494,27.85,36.779,42,37v-2c0.33-.333.67-0.667,1-1-1.52-6.741-4.18-6.01-6-12,0.67-1,1.33-2,2-3,5.82,0.655,13.26,3.163,14-7l-6-8-25,1Q2029.005,587.5,2018,585Zm-77,1c3.91,6.132,7.26,11.435,17,12-0.33-1.333-.67-2.667-1-4C1951.15,590.991,1949.17,587.487,1941,586Zm-203,4-32,6c-28.24,8.664-59.18,29.4-74,52,50.15-1.175,46.11-60.53,113-54,48.06,4.691,93.46,29.972,116,61,10.71,14.745,15.92,28.932,31,39,23.51,15.7,47.55-3.046,56-23,32.57,1.075,63.7,24.091,86,38,57.26,35.717,112.13,83.014,141,143,7.77,16.135,6.8,32.034,10,52,4.22,26.376-26.88,63.968-36,83-20.1,41.93-13.27,65.69,0,107q13.005,1.005,26,2v-1c-41.11-87.01,32.04-103.046,37-173,11.96-168.53-164-299.2-342-286,0.67,0.333,1.33.667,2,1,7.84,9.826,27.18,27.032,42,32,10.36,3.473,12.51-5.244,19-3v1l-3,8c-31.81,9.081-56.53-26.518-75-42C1819.79,603.486,1790.87,594.493,1738,590Zm-443,9,6,1c5.63,19.13,19.26,37.973,36,46,9.16,4.391,19.59,5.124,25,13q1.995,8.5,4,17c-0.67.333-1.33,0.667-2,1-6.4,2.485-17.2-1.956-23-4C1308.16,661.427,1273.49,640.646,1295,599Zm432,3c-31.81,13.334-35.93,14.351-58,40,28.95-.974,76.47-2.977,106-8l49-2h-2C1802.66,612.038,1762.86,601.884,1727,602Zm-305,1,11,3c4.29,15.441-5.15,29.772-16,36l-4-1C1412.98,624.632,1407.79,612.581,1422,603Zm1,8c-4.02,6.575-4.75,10.585-4,18,0.33-.667.67-1.333,1-2,3.89-3.5,6.24-7.243,7-14C1425.67,612.333,1424.33,611.667,1423,611Zm177,2q-10.005,6.5-20,13c-14.86,17.606-17.25,52.751,10,59,15.96,3.659,68.13-12.954,86-16l170-15c-9.38-16.485-38.34-16.2-64-12-26.72,4.371-62.17,5.211-86,4-25.39-1.291-46.73,16.224-74,11-12.09-2.317-24.01-6.531-27-18C1592.65,630,1601.39,614.326,1600,613Zm-303,2c-0.08,32.233,25.5,52.983,60,53-0.33-1-.67-2-1-3-10.94-7.884-26.09-12.813-37-21C1309.62,636.963,1305.02,619.7,1297,615Zm226,17-3,4c3.29,11.123,11.85,22.668,22,27v-1C1537.99,648.273,1534.79,637.917,1523,632Zm-91,9c10.71-.023,13.55,3.465,20,7q1.005,6,2,12c-5.36,10.67-26.37,17.887-39,20-2.1-2.756-2.61-1.565-2-5C1411.12,659.249,1420.63,649.407,1432,641Zm3,8c-7.89,5.4-11.15,9.43-15,19,7.89-1.381,19.84-4.3,26-8-0.3-5.588-1.02-5.838-3-9Zm-77,20,3,1Zm125,1c-8.17,13.874-2.69,41.854-5,60,13.53-7.346,41.84-10.542,45-28l-6-6c-6.87,2.565-12.84,2.9-17-2,2.01-10.063-1.81-20.6-11-23Zm-170,2c15.79,2.57,25.38,13.091,34,23-0.33,1.333-.67,2.667-1,4q-13.995,13.5-28,27c-1.67-.333-3.33-0.667-5-1-1.33-.667-2.67-1.333-4-2,0.33-2.333.67-4.667,1-7,10.61-.337,17.23-8.764,22-15-19.21-.008-28.44.9-45-2,1.99,5.7,4.6,4.319,8,8,0.33,1,.67,2,1,3-1.33,1-2.67,2-4,3-9.24-2.434-14.44-5.986-12-17q4.005-3,8-6c14.2,4.966,26,3.216,45,3v-1c-6.04-6.412-13.71-8.6-23-12v-6Zm69,7c25.82,6.84,43.94,14.493,65,28l-3,6c-33.56-1.541-63.66,18.591-86-16,0.33-1.333.67-2.667,1-4,1.67-.333,3.33-0.667,5-1,12.26,15.023,40.48,27.036,62,14v-1q-13.995-7.5-28-15c-11.15-3.194-23.38.326-33-1,0.33-1.333.67-2.667,1-4,0.33-1,.67-2,1-3Zm237,17c2.72,10.788-2.14,18.934,10,25,1.67-.333,3.33-0.667,5-1v-6c-2.2-6.749-4.49-12.6-10-16Zm612,14c-3.54,7.35,4.02,12.321,10,12v-1c-0.33-1.667-.67-3.333-1-5C2237.46,712.689,2235.79,711.25,2231,710Zm-553,3q-4.995,3.5-10,7c0.33,0.667.67,1.333,1,2l15-2c0.67-1.333,1.33-2.667,2-4l-3-2C1681.33,713.667,1679.67,713.333,1678,713Zm-324,5c4.85,1.181,8.47,2.268,6,10-19.08,1.748-35.85,32.108-38,51-1.32,11.6,6.32,23.331-2,31-26.58-13.422-18.33-62.643,2-80C1330.61,722.648,1343.71,724.417,1354,718Zm-16,12c-20.2,15.286-29.74,28.3-24,60h1c-0.22-32.373,13.93-39.1,24-58C1340.04,730.044,1340.16,730.575,1338,730Zm51,0c4.97,0.555,3.87-.19,6,3,4.28,13.649-36.85,47.247-43,64-3.1,8.448.79,26.951-5,33l-6-3c-10.08-30.873-14.67-64.577,17-84Q1373.5,736.5,1389,730Zm21,2,11,3c4.58,9.616,19.38,31.6,11,42-2.94,5.485-10.54,7.621-17,4C1397.38,773.919,1402.09,745.559,1410,732Zm854,7c-6.67,4.377-9.87,7.111-14,14,0.67,1.667,1.33,3.333,2,5,7.34-4.147,11.37-10.113,15-18Zm-850,2q-1.995,11-4,22c3.53,5.726,5.07,7.9,10,12,2.33-1,4.67-2,7-3C1426.58,762.812,1419.21,747.04,1414,741Zm-33,1c-21.22,12.47-41.48,20.887-41,46,0.14,7.086-1.38,14.832,3,20,1.14-32.764,26.97-46.437,42-66h-4Zm848,0c-0.67,1-1.33,2-2,3,3.46,4.768,9.67,8.15,15,8v-1c-2.31-2.968-3.63-5.984-7-8Zm-504,6c-4.55,5.067-3.56,12-8,18-4.64,6.276-16.4,4.88-15,15,0.67,2.666,1.33,5.334,2,8,12.03,5.624,32.99,7.311,46,12-4.97-13.668-2.05-44.947-17-52Zm-337,15,5,2c-0.35,11.883,6.54,21.253-1,34l-5,2c-1.67-.333-3.33-0.667-5-1-3.66-2.932-4.51-5.807-7-10C1377.73,779.959,1381,771.072,1388,763Zm230,9-18,7c0.33,3.333.67,6.667,1,10,12.66,6.936,9.33,29.185,24,34-0.64-5.4-2.31-11.6,1-15,6.27-1.582,9.37,4.138,16,6-0.33-2-.67-4-1-6-5.53-3.121-10.74-6.715-17-10v-5c2.33-1.667,4.67-3.333,7-5-0.33-.667-0.67-1.333-1-2l-11-1c-0.33-1.667-.67-3.333-1-5l9-5Zm-232,7c-2.65,4.836-4.31,8.832,0,13,0.67-.333,1.33-0.667,2-1,0.33-1,.67-2,1-3C1388.05,784.11,1389.07,781.93,1386,779Zm844,0-3,3c6.44,1.068,15.87,1.79,21-1Zm40,3-13,2c0.67,0.333,1.33.667,2,1,6.62,5.535,13.9,5.094,22,2v-1C2277.9,781.882,2274.24,782.446,2270,782Zm-31,26-6,7c-0.02,6.278.34,7.548,4,10l11,3v-6c1.34-3.647,1.51-7.541-1-10Q2243,810,2239,808Zm23,2-4,1q-1.005,7.5-2,15l28-4C2281.79,811.809,2270.98,810.317,2262,810Zm-701,1c-0.67,1-1.33,2-2,3,0.33,0.667.67,1.333,1,2,10.64,3.906,19.04,6.015,30,1v-1Zm38,25c4.72,9.943,7.52,22.181,12,31h3v-1C1609.31,854.909,1609.19,840.969,1599,836Zm-49,1q-4.005,2-8,4l3,4c9.21,2.2,18.02,1.728,25-3C1564.34,838.505,1555.93,837.621,1550,837Zm729,30c-4.92,5.251-9.92,8.659-14,15l11-1q4.005-7,8-14h-5Zm30,4c-5.49,4.015-8.11,6.184-11,13l3,1,3,1q4.005-6.5,8-13c-0.33-.667-0.67-1.333-1-2h-2Zm-12,22c0.51,6.057,1.39,15.3,7,19l-3-18Zm-728,7c3.23,0.685,5.15,1.008,7,3,1.33,2,2.67,4,4,6-1.8,11.254-2.64,22.454-5,33l-6,4c-7.8-1.5-15.33-8.988-20-14,0.67-1.667,1.33-3.333,2-5l7,1v5c6.26-.858,5.43,1.872,11,4-3.26-8.569-3.17-21.134,3-26l-6-7Zm48,4h6v8h-5l-3-3C1615.67,907.333,1616.33,905.667,1617,904Zm-67,5c2.33,0.667,4.67,1.333,7,2v6c-1.33.667-2.67,1.333-4,2l-3-1c-0.33-.667-0.67-1.333-1-2C1549.33,913.667,1549.67,911.333,1550,909Zm49,4c1.67,0.333,3.33.667,5,1-0.69,7.046,2.88,5.339,4,13-1.67,1-3.33,2-5,3q-4.005-2.5-8-5c-0.33-1.667-.67-3.333-1-5Q1596.505,916.5,1599,913Zm-40,4,6,1c-1.29,5.036-.14,7.4-7,7-0.33-1.667-.67-3.333-1-5C1557.67,919,1558.33,918,1559,917Zm59,1,7,1c1.31,4,.51,5.9-1,9-4.57-.667-4.38-1.065-7-3C1617.33,922.667,1617.67,920.333,1618,918Zm11,5,6,1v12c-1.33,1-2.67,2-4,3l-6-1Q1627,930.5,1629,923Zm-22,7c4.74,1.668,11.6,4.035,15,7-1.49,3.067-1.11,3.215-4,5-7.47,2.951-13.43-1.369-14-9Zm612,57c-5.34,9.472-3.14,16.68,0,28h1q2.505-11,5-22C2222.72,989.952,2222.72,988.845,2219,987Zm19,46c-5.77,4.34-11.53,11.57-12,18,7.92-3.04,13.8-7.22,15-17C2240,1033.67,2239,1033.33,2238,1033Zm130,4c2.67,0.33,5.33.67,8,1,11.96,9.22-1.87,36.98-5,57,12.32-5.84,23.04-19.87,34-21,2.33,1.33,4.67,2.67,7,4,1.39,4.67,2.09,8.53,1,14-1.67,2-3.33,4-5,6-2-.33-4-0.67-6-1v-4c1.67-2,3.33-4,5-6-2.74-3.74-2.65-6.03-7-3-2.97,2.42-1.45,6.39-4,9-6.85,7.01-19.67,6.22-26,14,7.75-1.22,25.69-2.83,34-1,1.33,1.67,2.67,3.33,4,5-0.67,3-1.33,6-2,9h-9c0.29-4.37.58-4.64,2-7-4.51,1.05-35.35,3.34-37,2-6.45,4.44-4.85,9.79-15,9v-4c9.96-13.25,16.08-22.52,20-41q0.495-10.5,1-21c1.66-4.67,5.63-3.48,7-10-1.33-1-2.67-2-4-3l-2,2v7h-4c-1.33-2-2.67-4-4-6,0.67-2.67,1.33-5.33,2-8C2364.67,1039,2366.33,1038,2368,1037Zm-35,9c3.33,0.33,6.67.67,10,1,31.41,22.6-2.43,91.15-32,81v-4C2331.08,1102.14,2312.49,1065.8,2333,1046Zm-38,7c9.32-.23,11.92,1.67,17,5,7.71,30.44-24.54,46.64-19,74-1.33,1-2.67,2-4,3-1-.33-2-0.67-3-1C2272.46,1102.7,2266.35,1075.65,2295,1053Zm41,1c-1,1.33-2,2.67-3,4-9.02,13.91-3.71,41.4-7,58,19.95-13.33,26.68-36.46,15-61C2339.33,1054.67,2337.67,1054.33,2336,1054Zm-39,7c-12.97,13.07-16.84,25.02-13,50h1c0.67-.33,1.33-0.67,2-1,3.9-13.71,23.89-29.47,19-44C2303.94,1061.77,2303.02,1061.33,2297,1061Zm-82,2c-3.16,2.47-3.48,1.43-5,6h2c2.87,4.51,7.5,6.14,14,7v-1q-1.995-5.505-4-11C2219.67,1063.67,2217.33,1063.33,2215,1063Zm26,12-3,6,3,6c1.33-1,2.67-2,4-3v-9h-4Zm-96,27c-11.33,4.92-21.63,5.67-30,13-49.72,43.53,20.09,87.46,30,125,3.73,14.12-7.81,29.75-10,44q-2.505,67.5-5,135,1.5,407.46,3,815,3.495-4.995,7-10c1.67,0.67,3.33,1.33,5,2-1.63,18.79-16.37,28.16-20,47-3.84,19.91,6.07,53.02,3,73,0.67-.33,1.33-0.67,2-1,11.1-30.16,5.87-74.55,29-96-9.24-17.19-3-59.7-3-83V1960q-1.005-304.47-2-609c-2.07-25.15-4.47-84.74,2-106,4.16-13.68,15.68-20.34,20-33q0.495-13.005,1-26c2.37-13.07,8.46-20.56,15-29l-11-11-2,2c-20.94,10.68-19.52,54.77-26,74h-5c-18.37-16.96-56.56-72.58-14-91,52.34-22.66,80.67,40.64,91,76,0.67-.33,1.33-0.67,2-1C2253.45,1143.69,2214.05,1101.16,2145,1102Zm227,28c25.35-.8,47.93,15.64,41,43-1.33,2-2.67,4-4,6-19.54,2.68-28.32-11.28-47-16-13.21-3.34-21.33,2.04-31-1C2338.26,1139.92,2351.9,1139.22,2372,1130Zm-228,6c-33.71,19.87-22.98,50.44,4,71,3.64-27.31,11.03-47.73,25-66C2164.52,1137.48,2157.19,1135.85,2144,1136Zm155,1c2,0.33,4,.67,6,1,5.32,2.52,9.74,15.47,8,21-1.3,5.53-3,5.66-6,9-22.58,1.16-16.5-16.28-12-29C2296.33,1138.33,2297.67,1137.67,2299,1137Zm77,1c-14.34,5.56-24.78,5.85-33,17,23.94-6.82,43.44,10.67,59,17,2.56-1.63,2.42-1.23,4-4C2414.15,1148.98,2387.55,1139.77,2376,1138Zm-75,8c-1.96,5.58-3.66,8.41-1,14,2-.33,4-0.67,6-1C2305.38,1154.64,2303.7,1148.52,2301,1146Zm-104,17c-5.71,7.57-17.77,23.1-11,39v-2c6.15-4.46,19.02-13.82,22-21Q2202.5,1171.005,2197,1163Zm131,15c17.2,2.6,58.17,6.45,49,28-0.67,2.33-1.33,4.67-2,7-23.38,9.75-65.66-7.5-67-33h2Q2319,1178.995,2328,1178Zm-7,9c9.78,11.75,30.82,28.42,49,19-0.33-1-.67-2-1-3C2364.08,1186.64,2343.18,1186.28,2321,1187Zm-28,32c0.67,2.67,1.33,5.33,2,8,0.67,0.33,1.33.67,2,1,2.67-.33,5.33-0.67,8-1-0.33-1-.67-2-1-3Q2298.5,1221.495,2293,1219Zm-11,2q-4.995,3-10,6c-0.7,5.48-.85,8.13,2,12v2c6.32-1.85,11.09-8.85,12-16C2284.39,1223.28,2284.12,1222.41,2282,1221Zm43,23c-2,.67-4,1.33-6,2,0.33,1.33.67,2.67,1,4h4q4.005-2.505,8-5c-0.67-.33-1.33-0.67-2-1h-5Zm-15,9c-2.03,9.19-9.76,20.54,3,25,1.56-6.05.4-16.21,4-22C2314.67,1255,2312.33,1254,2310,1253Zm-86,12c-0.33.67-.67,1.33-1,2l1,1h1c0.33-1,.67-2,1-3h-2Zm-16,14c-1.33.67-2.67,1.33-4,2v2h7l6-3C2214,1279.67,2211,1279.33,2208,1279Zm37,12q-5.505,3-11,6c-0.33,2.67-.67,5.33-1,8,7.01-1.29,14.14-5.37,18-10v-3C2249,1291.67,2247,1291.33,2245,1291Zm32,21c0.7,7.69,3.83,10.07,7,15,0.67-.33,1.33-0.67,2-1q-1.995-6.495-4-13C2280.33,1312.67,2278.67,1312.33,2277,1312Zm-27,13c-1,1.33-2,2.67-3,4v1c2.67,0.33,5.33.67,8,1-0.33-1.67-.67-3.33-1-5C2252.67,1325.67,2251.33,1325.33,2250,1325Zm-3,13c3.02,7.68,5.91,10.57,12,15l3-3v-1C2257.36,1343.51,2255.9,1339.62,2247,1338Zm43,1c-1.33.33-2.67,0.67-4,1q2.505,4.995,5,10c2.33,0.33,4.67.67,7,1,1-1.33,2-2.67,3-4-2.25-3.94-4.28-5.61-8-8h-3Zm-46,76c2.67,0.33,5.33.67,8,1,0.67,1,1.33,2,2,3-0.67,2.33-1.33,4.67-2,7-1.33.67-2.67,1.33-4,2-1.67-1.33-3.33-2.67-5-4C2243.33,1421,2243.67,1418,2244,1415Zm-30,44c-0.87,9.54,5.71,13.04,10,20h2c0.33-1,.67-2,1-3v-9C2221.75,1466.48,2219.21,1462.24,2214,1459Zm40,24c-5.6,4.24-9.87,9.54-17,12q3.495,7.995,7,16c9.38-6.39,12.57-12.37,18-23l-2-2C2258,1483.59,2257.87,1483.79,2254,1483Zm-60,35c2.08,13.7-.25,34.7,11,41l6,3c1.41-6.68-.03-6.77-1-14h2c3.15-.87,3.18-0.3,6,1q3.495,4.005,7,8c2.33-1.33,4.67-2.67,7-4C2237.97,1528.16,2216.93,1522.43,2194,1518Zm97,141c-6.38,3.47-10.92,5.75-16,10,2.04,6.72,5.26,7.23,6,16l-2,2h-1c-9.85-8.61-14.69-24.19-32-25-1.67,2-3.33,4-5,6-0.16,29.53,19.22,29.12,35,42q6.495,8.505,13,17c1.94-22.24,19.45-40.25,15-61C2299.51,1662.65,2297.52,1661.11,2291,1659Zm-95,107c-1.31,10.11-4.32,21.33,2,29-1.2-11.32,4.75-18.1,0-29h-2Zm31,24c-15.21,6.44-20.99,7.46-26,21l1,1q14.505-10.005,29-20v-2h-4Zm29,50-5,5,2,2c4.42,8.95,12.45,15.86,14,27l-2,2h-3q-8.505-12-17-24h-2c-3.39,4.1-20.33,25.02-15,32,3.14,4.1,11.23,6.26,15,10-0.86,5.32-1.11,4.29-4,7q-6-3.495-12-7c-11.45,12.51-1.91,40.43,12,47a14.5,14.5,0,0,1,4-10c1.67,0.33,3.33.67,5,1-1.1,11.35-1.48,14.13,4,22,14.46,1.89,24.53,8.84,33-2-1.4-3.6-2.01-6.02-1-10h1c9.48,2.39,6.34,13.96,15,18,4.18,1.95,14.69-19.37,15-24q-4.005-5.505-8-11c0.67-1.67,1.33-3.33,2-5q6.495-2.505,13-5c-3.42-13.96-15.99-48.97-30-58,0.34,10.98-1.27,19.3-5,26h-1c-1.33-.33-2.67-0.67-4-1-0.33-1.33-.67-2.67-1-4,5.06-11.19,4.37-25.61-3-36Q2267.005,1841,2256,1840Zm-36,146c-0.67,2-1.33,4-2,6l12,15h1v-6C2228.38,1993.8,2226.25,1989.55,2220,1986Zm135,21c-11.9,7.39-21.83,14.03-25,30,12.56-4.56,35.34-9.59,38-24a11.113,11.113,0,0,0-4-4C2361,2008.33,2358,2007.67,2355,2007Zm-53,6q-3.495,3-7,6v14h4c4.38-5.46,8.2-7.46,9-17C2305.72,2013.57,2306.4,2013.82,2302,2013Zm-110,5c-5.36,9.12-3.4,14.31-2,26l4-4C2200.33,2035.75,2203.27,2019.48,2192,2018Zm37,13c5.91,6.33,12.54,14.27,19,20,1.33-.33,2.67-0.67,4-1v-3C2246.78,2037.61,2240.52,2034.36,2229,2031Zm62,14c-6.67,10.86-19.96,26.81-8,37l2-2C2294.12,2075.3,2295.69,2054.46,2291,2045Zm-100,19-15,3q-3.495,5.505-7,11c12.83-3.47,30.52.3,40-7-0.33-.67-0.67-1.33-1-2C2201.85,2066.63,2197.34,2064.76,2191,2064Zm151,0c-2,.33-4,0.67-6,1v1h2c6.91,8.56,41.26,22.36,54,12-0.67-1-1.33-2-2-3C2375.36,2070.35,2362.03,2064.56,2342,2064Zm-27,19c-6.53,18.17-3.31,33.95,10,46,1-.33,2-0.67,3-1C2331.68,2115.59,2321.76,2092.81,2315,2083Zm-90,60c-9.71,6.81-15.68,9.76-22,20,9.48-3.31,20.73-9.23,23-20h-1Zm-51,15c-8.52,11.98-10.35,22.66-10,42,0.67-.33,1.33-0.67,2-1,2.53-6.94,6.99-10.7,11-16C2177.35,2174.86,2178.43,2163.76,2174,2158Zm16,41c-8.42,4.33-23.77,10.07-26,20h1c11.92-4.69,25.18-7.19,32-17-0.67-1-1.33-2-2-3h-5Zm43,5c8.76,5.44,10.33,17.32,14,28,22.25,64.79-35.92,102.71-63,138,41.83-13.28,82.61-27.39,111,12-0.67,2.33-1.33,4.67-2,7-46.93-11.2-57.21,47.84-99,55-26.19,4.49-48.89-16.67-68-4-15.15,63.6-49.06,135.74-111,155v1c10.44-2.12,20.24-4.91,34-5-0.57-3.49-.35-2.93,1-6,18.84-1.86,35.65-14.09,56-18,44.29-8.51,64.81,23.2,88-23-5.08-1.46-5.95-2.88-9-6-0.44-10.61,2.4-14.56,10-17a28.479,28.479,0,0,1-1-16c2-1.33,4-2.67,6-4,5.3-1.44,9.54.1,14,2,3.53-7.52,7.81-8.96,15-10,2.67,1.33,5.33,2.67,8,4,1.36,5.47-1.72,13.99,0,19,1.21,3.53,6.26,6.89,8,12h1v-2q4.005-9.495,8-19-4.005-2.505-8-5c-0.43-26.8,1.04-42.41,23-55,8.32,3.47,9.23,7.46,8,18,7.6,1.5,17.88,7.57,15,16-1.33,2.67-2.67,5.33-4,8-11.62-.89-3.84-7.88-5-13q-6.495-2.505-13-5v-15q-9,10.005-18,20c0.06,9.26,1.8,20.01,4,24,9.84,0.25,19.49,4.03,23,2q-1.995-4.5-4-9l3-3h1c6.18,4.46,7.74,6.59,8,15-1.33,2-2.67,4-4,6-10.48.79-8.86-1.67-19-3-11.15,19.66-21.44,44.51-29,67,10.74-4.73,31.38-12.92,45-8,1,0.67,2,1.33,3,2v1c-0.67,1.33-1.33,2.67-2,4q-16.005,2.505-32,5v1c19.71,5.47,24.37,23.65,13,38-22.08,2.61-32.03-13.44-32-33-33.8,7.52-75.73-7.92-109-11-22.47-2.08-40.51,10.74-58,15v1c40.74-.74,89.24,9.63,115,33q10.995,14.505,22,29c22.35,18.57,56.95,26.82,84,40-1-1.33-2-2.67-3-4,1.16-10.03,8.37-18.52,19-13,2.68,12.65-5.75,15.16-7,21q24.99,9,50,18c16.77,2.18,28.15-14.06,43-5q4.005,9.495,8,19c-1.19,8.63-17.59,26.25-31,20-11.17-5.21-9.04-17.27-17-25q-21.495-7.5-43-15c11.99,15.86,52.83,34.27,36,62-2.33.33-4.67,0.67-7,1-4-3.01-5.58-4.3-8-9q1.005-10.005,2-20l-1-1c-6.05-12.4-20.22-15.74-28-26q-2.505-6-5-12-11.505-4.005-23-8-25.995-12-52-24v1c7.67,14.67,15.55,24.95,20,42,20.97-.64,32.6,7.99,38,23-6.11,19.62-20.21,6.41-29-1l3,12c20.5,0.79,30.75,22.22,29,37-0.67,1-1.33,2-2,3h-9q-7.5-7.995-15-16c-7.54,5.15-11.56,10.98-21,15-5.21-.64-6.01-1.63-9-4,0.4-20.79,19.6-22.29,19-38h-1c-5.06,4.46-7.33,6.46-15,9-2.67-1.33-5.33-2.67-8-4-5.34-17.46,4.24-21.89,15-29-5.76-12.89-27.02-46.49-29-58-11.44,4.96-32.52-15.44-43-21,19.89,27.85,63.48,79.1,32,123-3.63-.64-3.03-0.4-5-2-9.35-4.91-13.26-16.36-19-25-27.53-41.45-49.25-113.28-115-112,0.33,0.67.67,1.33,1,2,21.07,8.04,46.22,25.55,61,41q-3,4.005-6,8c-2-.67-4-1.33-6-2-2.61-12.16-24.93-19.48-38-25-22.28-9.4-111.95-47.53-137-36,4.44,22.5,19.31,67.29,40,72,7.45,1.69,33.51-25.97,45-5,2.09,3.34,1.53,5.01,0,8-1.54,10.65-12.19,11.38-23,16q19.995,16.005,40,32c0.67-.33,1.33-0.67,2-1,4.88-15.89,19.92-22.68,39-19,8.9,23.9-16.09,19.42-29,32,9.84,5.75,19.16,23.33,21,34,20.4,0.37,43.18,14.83,44,35-0.67,1.67-1.33,3.33-2,5-17.91,7.06-21.41-5.46-35-12,5.98,17.46,8.58,39.9-6,50l-9-3c-1.56-9.33-2.72-22.81,2-30,1.96-2.07.37-1.04,4-2,0.67,0.33,1.33.67,2,1-0.73,9.74-4.94,20.55,1,24,0.67-1,1.33-2,2-3,2.59-26.39-4.88-63.75-20-82,3.28,14.82.82,24.81-7,35-2.33-.33-4.67-0.67-7-1-8.37-16.31-2.79-38.32-5-56l-42-33c8.63,17.37,16.49,35.7,11,57,20.01,6.77,15.98,54.62-20,53-4.47-5.16-12.58-6.98-16-13-4.29-8.16,4.16-31.18,9-38,2-.67,4-1.33,6-2q6,1.995,12,4c4.77-32.08-2.09-37.85-13-64h-1c-0.61,11.4-3.89,28.28-13,33-2.67.33-5.33,0.67-8,1-16.9-11.81-7.04-44.58,10-49l-14-14c-8.74-18.47-23.1-28.35-27-54-0.67.33-1.33,0.67-2,1-12.39,30.86-33.6,54.82-37,90-2.63,27.18,17.86,47.13,29,62,19.83,26.48,45.99,43.82,70,66,31.81,29.38,58.45,57.45,99,79q-1.5-5.505-3-11c1.67-2,3.33-4,5-6,3-.33,6-0.67,9-1q4.005,2.505,8,5c3.09,8.93,3.01,15.76-1,24q7.005,4.995,14,10a53.423,53.423,0,0,0,18-15c-2.43-4.59-3.69-7.98-2-16,8.82-9.14,26.79-19.25,42-21,0.67,1,1.33,2,2,3,1.5,5.2-2.81,10.63-4,16v16c-5.55,18.08-20.52,6.44-33,8l-9,9c-2.33,1.67-4.67,3.33-7,5,1.39,1.92.1,0.6,2,2q3.495,4.5,7,9c18.93-4.52,33.25-5.03,43,10v3c-9.81,11.96-22.14,3.9-33-2,3.32,9.51,8.9,15.68,10,28,10.86-1.82,23.96-3.72,29,5,6.26,7.21-14.47,47.1-22,59h-7c-5.49-8.18-67.31-71.31-8-67v-1c-10.91-24.86-24.62-38.91-46-53h-1c0.41,12.15-2.87,17.39-11,21-1.33-.33-2.67-0.67-4-1-0.33-.67-0.67-1.33-1-2-2.26-10.32,2.34-14.73,8-22-0.33-1-.67-2-1-3q-28.995-18-58-36a285.364,285.364,0,0,1,40,87c6.23,23.62,10.04,61.12,3,86-17.68,62.5-85.94,137.34-141,163-34.99,16.3-81.86,26.91-124,33-28.07,4.06-67.14,2.48-97-3q-21.495-1.005-43-2-50.49-10.005-101-20c-54.47-13.59-114.26-34.16-166-47-37.91-9.41-75.39-8.09-111,1-14.3,3.65-28.31,12.56-41,12-0.33-1.67-.67-3.33-1-5,0.67-1,1.33-2,2-3,37.21-9.64,80.43-27.91,132-17,59.79,12.65,122.51,31.52,183,50l105,21q23.505,1.005,47,2c135.96,17.94,254.87-32.39,308-117,16.87-26.87,36.3-48.8,44-86,3.02-14.6-1.05-34.62-4-48-22.81-103.53-71.1-138.79-133-198-31.19-29.83-70.83-74.18-45-132,10.56-23.65,22.74-42.13,37-63h-17c-15.42,24.67-41.59,44.44-50,74-26.93,94.63,73.13,139.56,118,192q13.005,19.995,26,40c15.55,26.19,20.45,56.41,25,86,2.83,18.43-8,37.22-4,48-23.4,65.88-56.73,107.97-114,142-5.85,3.47-57.98,29.26-62,25-27.6,16.85-92.18,23.12-135,15-21.64-4.1-46.41-.55-70-6-76.46-17.67-143.78-39.23-218-60-38.68-10.82-86.6-11.4-123-5-12.96,2.28-40.1,20.41-47,14,19.14-40.99,152.6-23.41,194-11,73.58,22.06,181.16,63.84,267,60,33.44-1.49,68.25,5.33,99-4,52.35-15.87,94.23-33.94,132-63,19.41-14.93,35.28-37.28,48-59a215.19,215.19,0,0,0,22-55c6.01-25.23,4.07-44.64-2-68-11.41-43.94-27.02-74.47-53-103-37.68-41.39-93.06-67.97-112-128-17.63-55.87,21.03-98.7,44-130-61.03,1.65-155.18,72.45-113,145,13.3,22.87,36.57,39.99,57,56,44.37,34.77,88.93,70.59,112,127,10.87,26.59,23.75,64.48,11,99-6.9,18.68-14.21,39.33-25,55-29.92,43.48-88.34,56.5-151,68-145.92,26.78-240.81-30.72-373-56-39.85-7.62-85.39,1.2-116,15-13.66,6.16-28,21.42-44,23-0.67-.33-1.33-0.67-2-1,2.12-12.97,23.69-18.66,34-24,35.75-18.53,85.32-27.09,137-20,42.58,5.84,86.66,20.31,125,35,69.4,26.6,160.66,34.71,237,20,41.62-8.02,78.73-13.04,109-32,19.34-12.12,33.44-28.69,45-49a228.261,228.261,0,0,0,20-49c7.59-28.64-4.5-56.64-13-76-28.19-64.22-63.73-86.81-112-129-21.75-19.01-51.66-37.24-62-67-35.9-103.27,80.29-145.31,161-153,44.67-4.26,84.82,18.14,120,28-62.32-56.05-197.96-78.25-275-24-25.09,17.67-36.52,48.55-48,80-8.5,23.28-7.66,60.02,4,80,36.56,62.66,110.72,100.35,151,164,10.56,16.69,28.93,50.15,25,73-6.47,37.63-20.89,55.05-43,80-61.2,69.07-150.61,53.21-244,31-46.66-11.1-91.4-11.55-133-24-27.63-8.27-55.63-4.41-87-10-34.64-6.17-92.82,8.96-120,25-9.67,5.7-21.49,20.44-33,22v-2c-0.33-1.33-.67-2.67-1-4,27.33-35.96,108.57-56.01,176-48,101.17,12.02,207.02,39.03,304,53,41.55,5.98,86.76-7.95,109-24,13.93-10.05,25.33-25.56,36-39,102.71-129.31-116.17-208.79-152-303-11.88-31.24-3.39-64.93,7-92,29.4-76.63,100.13-117.97,200-98q32.49,7.5,65,15c11.36-13.2,28.83-20.55,44-30,18.77-11.69,32.92-30.82,45-49,20.65-31.07,16.82-90.72-21-100-36.38-8.93-54.56,27.61-87,22-0.67-1.33-1.33-2.67-2-4l27-42c8.48-25.86,4.7-41.74,22-57,6.4-5.64,13.42-6.12,24-8,50.42-8.97,73.48,36.63,79,80h1c0.33-.67.67-1.33,1-2,30.23-24.76,24.44-64.87,42-103,11.36-24.66,43.09-33.34,58-55C2225.44,2229.64,2225.91,2210.71,2233,2204Zm-1,26c-15.13,45.74-65.98,40.16-73,104h1c31.41-14.08,53.98-30.4,65-65q1.995-7.005,4-14c2.11-6.54,5.53-17.75,4-25h-1Zm9,9c-14.17,52.96-32.06,90.89-84,105-9.36,29.26-20.74,50.88-43,67-1-.67-2-1.33-3-2-8-30.07-55.68-59.06-94-39-18.09,9.47-28.86,35.43-40,52q28.995-10.995,58-22c61.39-14.18,69.32,65.25,51,104-7.96,16.85-25.26,42.38-40,53-16.84,12.14-38.58,18.58-52,34h2l6,3q12.495-7.005,25-14c26.97-17.04,50.14-39,65-68,6.85-13.37,22.89-74.07,30-80,11.41-9.51,32.36-5.14,46-11,24.53-10.54,38.29-31.94,58-47q10.5-5.505,21-11a117.006,117.006,0,0,0-89,39c-1.67-1-3.33-2-5-3v-2C2170.87,2359.61,2270.16,2292.22,2241,2239Zm-203,87c-25.04,12.26-30.23,20.69-38,47l5-5c49.42-20.58,67.33-9.9,102,17C2095.78,2353.61,2085.04,2325.14,2038,2326Zm225,42c-12.98,6.52-25.4,7.99-36,16-21.53,16.28-34.52,37.74-64,47v1h2c50.28,25.81,73.55-51.48,116-53-0.33-.67-0.67-1.33-1-2C2273.72,2374.13,2270.67,2370.12,2263,2368Zm-1,110c2.33,0.67,4.67,1.33,7,2-0.33,2.33-.67,4.67-1,7-2-.33-4-0.67-6-1v-8Zm-38,24c-2.8,4.56-4.86,7.73-9,11q-6.495-2.505-13-5c-0.67,1-1.33,2-2,3,2.55,6.71,3.75,9.12,3,15q-4.995,2.505-10,5c1.41,6.1,1.25,4.7,7,4,1.36-2.05,1.12-1.61,3-3,5.97,4.2,9.56,14.32,14,20,8.74-2.87,2.9-7.51,8-13,2.89-3.11,9.88-4.12,13-7-2.25-5.1-9.05-9.95-10-14-1.22-5.18,3.29-10.07,2-16h-6Zm13,41c-2,.67-4,1.33-6,2-1.12,9.14-4.54,17.2-18,14-4.62-3.45-7.31-7.59-10-13-0.67.33-1.33,0.67-2,1-4.19,12.86-14.79,19.19-23,28,1.67,0.67,3.33,1.33,5,2,27.32-1.53,38.39,10.84,50-19C2234.61,2553.87,2240.52,2545.92,2237,2543Zm0,42c3.73,12.95,4.62,21.02,19,26,2.13-1.79,2.43-1.35,4-4,0.33-1.67.67-3.33,1-5C2256.62,2592.86,2249.29,2586.1,2237,2585Zm-225,12c-0.33.67-.67,1.33-1,2l2-2h-1Zm39,1-19,3c63.98,2.08,112.33,24.28,155,47-22.2-32.14-53.91-40.09-97-49Q2070.5,2598.505,2051,2598Zm-25,10c18.67,16.53,20.34,4.26,46,10,17.84,3.99,34.61,16.82,46,28,29.83,29.28,41.58,85.22,72,109v-2c11.13-22.69-.83-53.12-11-69C2138.21,2620.25,2110.4,2618.65,2026,2608Zm267,73c-1,1.67-2,3.33-3,5,1-.67,2-1.33,3-2v-3Zm-294,1q-10.995,4.005-22,8v2h2c6.16,3.6,12.02,3.76,18,3,4.26-2.59,7.24-4.88,10-9-0.67-1-1.33-2-2-3C2003,2682.67,2001,2682.33,1999,2682Zm-35,18c-8.48,7.71-14.43,16.83-13,29a15.809,15.809,0,0,0,5,5c0.67-.33,1.33-0.67,2-1C1960.4,2726.29,1970.63,2704.6,1964,2700Zm412,13c-5.52,5.46-11.39,7.31-23,7,3.6,10.46,7.55,15.45,16,21,9.12-1.93,11.8-8.41,16-15C2383.41,2720.17,2381.09,2715.47,2376,2713Zm-134,8c2.9,7.46,15.71,14.48,22,19,1-.33,2-0.67,3-1-0.33-1.33-.67-2.67-1-4C2258.9,2727.71,2253.12,2724.81,2242,2721Zm-184,2c-9.95,5.32-14.98,7.81-20,18q13.995-7.005,28-14v-3h-2C2062,2723.67,2060,2723.33,2058,2723Zm176,7c-1.67.67-3.33,1.33-5,2-2,1.67-4,3.33-6,5,0.33,2.67.67,5.33,1,8h4C2232.09,2741.48,2238.13,2735.72,2234,2730Zm99,20c-0.56,5.49-1.63,8.55,1,12,1.52-2.29,1.83-1.21,1-4C2334.33,2755.33,2333.67,2752.67,2333,2750Zm-81,6c2.57,9.4,11.01,18.77,18,24h1v-4C2264.56,2767.68,2261.27,2761.62,2252,2756Zm-217,4c-2.27,10.97-2.04,23.15,1,32,0.33-.67.67-1.33,1-2C2042.43,2782.8,2039.64,2766.26,2035,2760Zm208,0q-6.495,7.5-13,15v3c7.71-1.87,12.63-7.81,16-14C2244.8,2761.77,2244.91,2761.51,2243,2760Zm-256,15c-0.67,1.33-1.33,2.67-2,4-5.65-1.35-6.7-3.34-11-1-3.34,3.73-7.05,20.62-8,25q7.5,4.995,15,10c6.23-1.66,16.62-8.96,20-14-1.39-6.59-3.88-19.63-7-24C1990.4,2776.16,1991.4,2776.33,1987,2775Zm-3,14c1.67,1.33,3.33,2.67,5,4-1.33,2-2.67,4-4,6h-4c-0.67-1-1.33-2-2-3,0.33-1.67.67-3.33,1-5C1981.33,2790.33,1982.67,2789.67,1984,2789Zm82,2c3.12,9.93,18.52,22.99,28,27,5.27-1.1,3.81.18,5-5C2089.73,2802.78,2081.93,2794.82,2066,2791Zm94,113c-2.51,1.99-30.09,11.73-25,15-0.18,3.88-.57,6.01,3,8,3.38,2.23,10.33,4.18,14,3,2.33-1,4.67-2,7-3C2160.18,2921.59,2162.02,2905.3,2160,2904Zm-73,9c-1,.67-2,1.33-3,2l4,4c1.33,2.67,2.67,5.33,4,8h1C2094.36,2919.05,2094.68,2914.9,2087,2913Zm57,51c4.54,4.45,10.45,7.57,19,8l-2-2C2157.85,2965.51,2151.5,2964.06,2144,2964Zm-15,40c-1.67,2.33-3.33,4.67-5,7,0.51,21.88,16.15,29.36,26,42,0.67-.33,1.33-0.67,2-1,3.19-16.84,13.63-25.62,20-39-0.75-4.45-1.25-4.2-3-7-4.68-.65-9.68-1.07-14,1,2.9,5.04,6.06,10.06,1,15C2145.53,3014.84,2147.76,3004.26,2129,3004Z"/>
  <path id="Preenchimento_de_Cor_2" data-name="Preenchimento de Cor 2" class="cls-1" d="M264,1842c12.8,0.58,19.145,10.05,27,16q-3.5-15.495-7-31l-42-30c-1.09-7.25-.4-9.44,3-14,11.383-.49,16.564.27,26,5-6.009-10.52-18.6-23.28-20-36,1.333-.33,2.667-0.67,4-1a51.134,51.134,0,0,1,16,21h1c0.666-7.38,3.691-10.48,7-15q5,1.005,10,2c7.237,25.55-4.626,39.76-1,57,5.762,27.39,16.468,53.34,27,76h2V1661c-25.972-53.4-80.947-72.22-102-1h1c5.6-4.14,14.705-9.84,22-4,6.931,3.41,6.385,7.16,8,14,6.565,27.83-21.959,34.77-36,46-8.066,6.45-12.187,18.01-20,25h-1c-2.133-1.79-2.433-1.35-4-4q-2.5-14.505-5-29l-13-27c-8.254-34.1,25.5-30.27,40-22,3.3-17.48,17.345-43.41,33-49-15.592-10.54-25.323-32.95-19-59-12.164-1.17-31.974-20.59-22-33v-2c11.87-1.78,17.011,3.26,22,11q-0.5,3-1,6h-5c-2.623-4.34-4.466-7.36-10-9-0.333.67-.667,1.33-1,2,4.054,8.35,8.957,13.53,18,17,0.333-.67.667-1.33,1-2q5-11.505,10-23c-13.347-5.59-24.866-20.1-20-38l11-6c9.457,2.98,12.413,6.87,19,12l2-3c4.206-9.3-1.734-25.78-4-31q-5.5,1.995-11,4-6-4.005-12-8c-0.333-1.67-.667-3.33-1-5,2.289-3.51,1.444-3.39,7-4,1.306,4.53,2.334,5.23,5,8,3.491-.4,23.252-11.52,26-14-1.233-5.38-3.391-7.66-3-12-1.55-1.34,2.678-5.83,5-7a76.361,76.361,0,0,0-2-14c-8.539-2.23-14.942-4.7-22-6-8.062,4.42-17.6,6.45-24,13,3.176,8.8.128,19.21-2,25,3.868,1.32,6.865,1.74,9,5l1,3c-1,.33-2,0.67-3,1-2,.33-4,0.67-6,1-2.748-1.51-10.558-7.07-8-10q2-16.5,4-33c13.788-8.86,36.646-19.06,54-6,12.621,8.44,2.859,31.75,5,42-6.442,8.88-14.815,9.2-21,16,9.224,0.93,6.844,6.3,10,10,4.784-11.06,28.152-13.81,23,5-3.317,12.11-15.592,14.48-23,24q-2.5,10.005-5,20c-9.238,22.21-36.388,65.24-9,87-0.26-13.93,5.173-26.09,14-31-0.333-.67-0.667-1.33-1-2-6.947-2.45-11.417-7.16-12-16-2.193-33.23,21.416-26.49,41-36q4.5-4.995,9-10h4c0.667,0.67,1.333,1.33,2,2,0.332,28.79-4.091,52.37-20,66-13.444-.69-10.249-4.46-19,2-5.809,11.67-12.7,16.87-8,33,31.491-7.22,49.589,17.96,69,37,0.333-.67.667-1.33,1-2V1462c0-25.55,5.757-97.93-5-111-14.358-17.44-49.2-17.22-72-15-1.065,10.58-7.323,24.89-22,25-8.291-3.73-10.288-10.61-6-19v-1H202c-2.381,10.15-8.077,18.25-20,19-4.418-2.11-6.888-3.48-9-8-2.412-7.74.292-10.85,4-17-5.883-5.16-14.685-8.2-16-15-0.333-1.33-.667-2.67-1-4,1-.33,2-0.67,3-1,8.961,4.26,14.2,10.77,24,15-1.024-11.02,3.2-19.22,9-26,3,0.33,6,.67,9,1,3.416,1.62,3.346,1.63,5,5,2.724,9.7-3.588,16.38-8,22v1h11c1.667-.33,3.333-0.67,5-1-0.2-9.36,1.734-11.41,7-15,2.666,0.33,5.334.67,8,1,5.174,2.51,5.518,6.09,9,10q8.5-1.005,17-2c-1.333-1.33-2.667-2.67-4-4-4.636-9.2-24.856-16.01-33-22-1.079-8.02-1.478-11.99,5-15,7.091-3.95,14.778-.4,20,3q2-4.995,4-10c1.053-7.13-7.445-10.27-2-18,4.4-5.53,9.091-3.05,14,0,1.084,4.99,1.158,5.06,1,11,11.716-.38,15.672,2.37,21,8-0.166,6.9-1.362,7.27-4,11-11.907,1.34-16.742.06-26-4-6.215,42.33,39.043,41.5,63,59v-92c-4.985-24.06-31.341-52.36-50-64q-3.5,15-7,30c-1.666.33-3.334,0.67-5,1-10.428-10.21-15.74-20.11-21-36-17.954.77-29.911,17.1-36,30,7.826,0.86,13.322,4.99,16,11,3.991,7.81-.182,16.36-5,23-2.333.33-4.667,0.67-7,1-6.549-2.74-10.307-6.54-13-13l-12,12-4,3c10.928,5.06,10.28,27.72,0,33l-8,3c-1.333-.67-2.667-1.33-4-2-2.733-8.02-2.18-14.63-5-24h-1q-13,4.005-26,8c-1.533-3.15-1.932-4.11-1-8q9.5-3.495,19-7l-9-6c0.166-6.9,1.362-7.27,4-11,11.682-1.39,18.851.88,27,5q3.5-2.505,7-5v-1c-5.478-1.94-8.883-3.43-9-8-0.333-1.67-.667-3.33-1-5,6.433-7.53,11.676-11.01,25-12,5.445-17.08,19.314-23.3,31-34-14.2-28.65-1.327-59.68,12-81-6.651-8.15-11.919-16.64-5-28,2.666-.67,5.334-1.33,8-2l8,6c0.667-.33,1.333-0.67,2-1,0.866-4.82,4.714-10.23,2-12-9.814-6.17-18.1-10.84-19-26,0.667-1.67,1.333-3.33,2-5l12-3c4.491,2.71,7.55,5.23,10,10h1c-4.265-20.78-14.923-41.994,0-56h8c13.987,17.334,2.883,34.77-1,51-1.876,7.84-.077,16.66-2,25,8.351,0.02,13.318,2.26,16,8q0.5,3,1,6c-8.523,16.52-18.607,8.21-29,18-12.288,12.36-39.223,70.85-15,88-0.847-39.34,28.093-69.72,63-76-1.946-12.77,10.439-33.69,12-52,3.222-37.79-29.259-62.441-42-94-6.136-15.2-3.144-35.14-15-46-8.982-8.227-29.214-21.113-47-16v15q1,2,2,4l5-4c1.294-5.85,1.988-12.093,9-13l2,1v1c-2.949,10.163-4.24,17.692-15,23l-9-4c-1.863-7.189-1.534-19.946-5-24l-4,1c1.286,11.419-3.42,21.456-10,30l-9-1q-0.5-1-1-2c-1.3-7.19,2.2-16.829,1-21l-23,10v-2c-1.449-5.446,2.934-7.135-2-11l-6-1-6,4q-1,4.5-2,9l2,2c5.783,1.332,9.981-.292,16,1q-0.5,3.5-1,7l-14,2-11-10q1-7,2-14c5.525-4.192,8.414-7.188,16-10,8.448,2.614,10.624,5,16,10l10-5c-4.556-7.941-9.635-14.556-5-24l9-2c11.052,4.511,12.723,9.752,18,20l6-2-2-2-7-10c0.894-7.35,2.231-8.545,8-11,24.282,2.862,25.69,26.7,49,33-7.643-16.861-12.24-42.539-19-56l-34-6-3-11c9.369-18.34,29.531-10.743,35-20v-4c-13.832,6.2-22.677,2.988-32-5q1-5.5,2-11c9.765-3.216,19.879-3.941,32-2q0.5-5.5,1-11c-12.651-2.575-21.376-16.266-19-31l3-2c11.238-1.2,19.108,2.259,23,11l4-9c-8.786-6.042-4.806-19.285-1-27,5.437-2.416,6.638-4.644,15-5,5.655,3.393,8.047,5.634,8,15l-12,13-1,4c6.013-.566,10.332.4,13,6,1.462,5.065.268,9.451-1,14l-23,12-2,6c13.1-2.151,21.771.014,29,6-0.126,5.988-.935,6.706-3,10-6.43,1.675-25.552,1.722-29,4v11c3.746-1.867,8.983-4.219,14-2,20.836,8.788,10.918,31.657-10,35,4.207,22.03,11.72,52.4,27,64-1.638-63.421,30.069-97.138,52-142q11-25.5,22-51c17.629-30.389,64.865-50.416,23-88h-1c-14.87,10.94-23.714,27.059-47,27-25.967-11.555-22.5-46.956-17-71,3.207-14.027-2.689-25.139,3-34h4l28,19c20.949,10.5,53.214,11.811,51,42-4.1,5.59-6,9.247-12,13l2,3c6.766,3.116,10.726,10.5,13,18l1-2a242.108,242.108,0,0,1,26-21l-2-3c-11.275-5.726-3.114-18.1,0-26,10.623-2.747,16.693.079,30-2,11.968-1.869,32.693-13.683,33,8-12.152,9.821-30.357,48.377-52,39-4.268-1.859-5.118-2.563-6-8-24.651,12.543-27.626,37.6-43,59-11.189,15.576-24.316,25.869-33,45l19-17c23.82-15.354,44.759-33.765,71-46,41.012-19.122,88.991-26.293,136-35,19.025-3.524,42.551,5.779,57,2l15-14c11.518-9.326,27.269-17.659,42-23q-0.5-1-1-2c-18.277-4.106-23.432-22.707-42-24l-5,2c5.054,16.768-4.32,24.14-11,32h-8c-10.934-3.435-3.8-17.1,0-23l-12,4c-0.726,15.966-9.884,25.24-22,30-5.38-.615-6.723-1.448-9-5-3.937-7.323.376-13.835,3-20-6.739-.161-18.827-1.826-20,0-4.364,6.117-16.521,28.082-31,19-15.109-9.477,11.139-25.5,18-27-2.17-2.664-2.009-2.795-6-4-4.238-8.884-11.319-12.829-13-25l3-2,2,1,13,18h1c0.22-6.435,1.063-14.768,7-18,1.984-1.6,1.389-1.3,5-2l4,2c3.8,9.373,3.964,18.153,1,29l3,1h13l-8-8c-1.249-3.933-3.085-9.334-1-14l4-5c14.567,0.054,25.61,9.989,28,22,10.532-.935,23.734-6.1,30-12-24.1-1.642-50.3-18.416-57-38-16.627.433-48.385,0.733-55-13v-8l2-4c16.592-4.921,32.205-.558,45,6-13.92-27.576-41.094-58.858-77-34-9.066,6.276-13.546,27.825-31,22l-7-6v-7c1.721-2.584,2.111-3.407,5-5,6.718-6.671,16.006.879,20,0,6.251-14.671,23.238-14.813,37-22-11.191-3.252-57.47-14.933-62-23l-3-9,6-7c5.024-3.766,10.8-2.8,17-1l8,11-1,5h-4l-11-10c-3.845,1.581-4.725,2-7,5l2,3c19.7,6.839,43.307,13.731,62,20-2.986-15.605-16.532-23.035-13-43l5-6c7.479-.1,9.147,1.122,13,4q-0.5,4.5-1,9c-1.8,4.465-3.057,6.4-9,7,5.314,11.279,8.979,23.395,15,36,16.639,6.758,23.085,22.65,35,34-1.486-54.5-24.641-130.67-60-156-14.569,3.619-19.708,16.681-37,13-2.341-3.633-3.408-6.9-5-12,7.424-11.756,14.469-18.032,30-19l-3-3-6-9h-1c-3.571,11.894-24.878,27.8-39,19v-1q0.5-3.5,1-7c4.261-9.959,15.423-13.366,26-17l-2-3-15-6c-5.508,1.52-34.138,33.353-36,6,4.2-8.127,10.273-9.884,16-16-11.235-4.121-17.2-16.035-16-27,2.507-3.7,4.336-4.475,8-7h1c11.964,7.227,20.213,12.728,27,25l2-1c3.612-12.738,11.153-22.258,23-27l9,3v2c5.289,17.861-11.318,32.326-24,36v1c7.122,1.764,10.953,6.209,16,10-2.631-11.924,1.657-19.228,8-25l9,1c5.925,11.948,4.019,23.643-5,31l5,8,2-1c0.264-5.293,3.743-10.957,7-16,6.168-1.944,9.031-2.155,14,1,1.534,16.767-1.123,22.511-9,33,15.3,21.014,32.371,31.886,41,59,15.732,49.429,9.85,149.4,61,165,0.567-9.1,6.812-8.844,15-13-5.561-10.469-19.259-2.2-26-14l-3-9,5-9h16q-0.5-1-1-2v-5c-12.4-2.43-33.413-24.546-15-33,7.6,0.974,12.154,6.11,16,7q0.5-4.5,1-9a52.445,52.445,0,0,1-12-23l6-9c7.026,0.433,7.093,2.06,11,5v-2c4.8-9.915-4.931-13.982-1-25,2.972-6.508,8.1-5.286,13-2v1c0.241,13.66-.752,20.832-5,31,9.161-1.528,12.278,2.068,15,10-4.4,5.877-7.565,8.009-15,11a17.857,17.857,0,0,0-4-4q-0.5,7-1,14h1c8.724-2.824,13.956-.937,20,3v10c-3.9,8.707-15.639,9.921-23,12q0.5,5.5,1,11c6.123-1.3,10.378-5.528,17-3l5,3v8c-4.1,6.418-8.861,9.591-16,13q0.5,3,1,6h1c8.1-6.6,11.023-8.709,20-2,0.335,10.406-1.844,17.013-6,25,30.179,42.411,68.99,28.531,123,32-6.017-22.927-52.85-16.227-68-31v-5c8.3-12.875,25.523-9.922,41-6-20.463-36.926-17.031-21.01-55-31-2.769-5.673-3.2-6.193-3-14,8.355-6.683,16.046-9.959,30-9l-3-3c-5.366-12.743-12.947-18.71-11-35h-1c-5.966,9.812-22.122,16.9-36,14l-6-5V450c9.969-5.674,30.227-18.9,45-13,6.7,39.147,37.922,73.927,54,114h2c-0.081-19.383,12.35-38.308,30-37,1.723,1.61,2.59,1.875,4,4,8.29,16.557-17.706,35.292-25,45,3.122,8.565,8.411,13.812,11,24,23.935,8.4,42.988,18.953,61,33,8.179,6.379,18.955,25.2,27,27,5.886-.215,13.114-2.551,16-9,5.993-13.774-9.378-22.371-8-35,29.953-.672,59.721,32.868,50,65l13-1c-6.662-21.754,23.021-58.712,37-32-4.1,14.9-11.029,29.209-25,34v1c11.842,2,20.156,8.832,29,14,2.268-12.991,9.519-18.248,20-23l10,2q3.5,6.5,7,13-1,18.5-2,37c0.06,9.691,8.79,21.518,5,30-0.33.333-.67,0.667-1,1q-10-5.5-20-11c-27.138-11.261-59.811-18.557-29-46-55.193-28.769-45.02,14.224-94,4v1h2c6.056,6.748,14.239,10.812,19,19,12.118,20.842-1.777,67.829-2,98h1c15.463-5.4,28.926-8.733,41,0-2.182,19.772-15.625,16.679-34,20l6,7c15.71-4.906,30-9.587,44,0q-0.5,6-1,12c-13.411,9.409-26.168,6.058-40,1,5.5,13.227,10.566,30.561,15,43,13.629,0.065,21.561,9.469,28,17-0.614,5.454-3.753,45-13,37-3.706.738-3.89,0.467-7-1v-6l8-3c-0.319-4.583-1.332-6.047-2-13,6.016-2.3,3.436-.584,4-7,1.2-13.67-14.472-10.808-23-17l-2-1-9-33h-2a46.061,46.061,0,0,1-19,37,104.912,104.912,0,0,1-12-3c-0.774,4.419-.6,3.714-3,6-6.3-2.167-9.445-4.073-14,1v8c-4.03.4-3.912,0.327-6,2v7h-5l-2-2q-0.5-3.5-1-7c4.507-9.1,14.358-22.16,26-25,6.712-1.637,11.19,7.993,16,3,9.393-7.527,15.026-28.812,15-42l-7-11c-8.44,10.335-4.173,29.418-19,36-5.013,1.641-7.462.092-11-2v-2c-5.151-19.682,12.67-38,25-47q-2.5-11-5-22-0.5,1-1,2c-5.448,6.617-10.086,33.95-25,27-5.7-2.638-4.848-6.672-6-11-5.164,2.123-6.6,2.477-13,2l-4-8c2.774-10.21,4.705-14.522,13-19-4.39-8.613.836-17.191,5-27,12.683-4.416,20.869-4.085,33,2,1.641-26.281,13.672-56.456-13-68,3.569,11.137-2.314,21.721-10,25-4.037,2.094-9.242,2.01-14,1-5.824-4.443-6.223-9.946-5-19-23.746,15.053-37.227,41.2-64,53l2,3c7.219,3.293,9.483,9.9,9,21-8.455,18.61-23.205,13.422-45,19-4.86,1.244-8.864,5.333-14,4-10.682-3.351,3.453-62.58,17-68,14.173-5.079,19.866,3.843,26,15,12.009-6.89,24.315-14.8,32-26-10.037-.813-15.611-6.507-16-17,1.721-2.584,2.111-3.407,5-5,9.515-8.8,22.294,1.267,27,7,12.424-9.182,24.792-17.837,38-27-34.2-7.067-74.559-15.192-115-14-35.479,1.045-81.755-18.2-115-11-8.061,19.511-41.425,57.888-73,43-11.551-5.446-17.848-18.022-27-26-80.37,25.477-136.5,72.617-183,132-17.736,22.653-46.606,53.762-40,94,10.4,63.361,76.308,107.45,36,189,30.439,3.06,58.56,34.49,49,73-7.56,30.46-41.437,47.66-46,76q5,16.5,10,33,2.5,57.495,5,115c6.233,47.93,3.588,136.16,0,214q-0.5,200.985-1,402-0.5,121.485-1,243l7,15c4.631,18.36-2.087,41.03-4,62-1.1,12.05,3.272,27.76,1,38l-7-3c-3.933-11.18-12.717-18.14-16-31q-3-27.495-6-55c-5.383-13.46-20.958-22.63-23-38,0.333-.67.667-1.33,1-2h1c5.073,0.94,4.221,1.38,7,4v-15c-14.573,2.7-36.259-11.21-41-23q2-4.995,4-10c10.1-2.75,16.159-1.7,24,3-14.489-20.16-55.5-28.04-57-56,1-1.33,2-2.67,3-4h7c25.593,4.91,22.906,28.22,39,40-0.517-13.76,1-17.99,7-26,2.333,0.33,4.667.67,7,1,3.979,1.98,4.237,4.12,7,7,0.35-15.16,2.571-65.84-3-70-12.88-7.03-38.042,1.09-47-11-14.113-11.51,14.99-22.52,26-20q-13-10.995-26-22c-16.961,4.11-18.261,16.85-31,23-5.974,1.68-9.846-.39-14-3-2.716-16.9,9.61-28.5,24-31-0.333-.67-0.667-1.33-1-2-25.572-2.27-35.651,5.38-50,16v1c8.1,7.89,23.887,35.28,11,46-2.024,3.06-3.517,3.43-7,5-18.509-2.33-20-23.18-18-40l-15,12c14.481,19.38,19.4,82.39-18,73-12.82-24.8,13.788-44.95,12-68h-1c-20.164,12.45-54.2,32.7-78,15l1-9c9.8-11.4,29.812-14.11,48-17q11.5,1.005,23,2c3.019-2.75-.34-9.46-1-11-14.967-4.75-40.162-13.68-46-28v-9c1.727-4.58,3.646-7,8-9,27.1-16.44,48.531,33.37,47,54q9-7.005,18-14c-9.742-9.89-18.777-20.76-8-35,0.667-.33,1.333-0.67,2-1,3,0.33,6,.67,9,1,8.491,3.15,12.215,10.27,13,21,12.52-8.13,29.423-18.99,51-12-9.216-15.41-21.114-30.86-25-51-10.753,1.29-23.4,6.55-29-4l-4,3c-1.694,4.08-4.789,6.6-9,5-16.981-3.71-21.979-28.59-17-42-5.2-1.85-6.711-4.48-10-8-0.6-31.41,38.645-97.16,75-86,21.811,6.69,49.855,68.36,37,94-7.937,15.83-22.246,26.84-36,37q7.5,16.005,15,32h1c1.523-8.01,9.826-20.31,21-15,1.333,0.67,2.667,1.33,4,2,3.036,14.74-4.206,23.69-13,32q9,7.995,18,16c-0.364-12.87,3.261-15.63,10-21q6,1.995,12,4c3.973,12.79,1.9,21.83,1,36,0.667,0.33,1.333.67,2,1,5.555,7.2,13.006,11.03,17,20,0.667-.33,1.333-0.67,2-1V1901c-14.738-3.95-12.157-17.74-21-27a175.783,175.783,0,0,0-32-26v-6ZM469,247c-5.4,8.619-12.576,13.575-16,25h1C459.133,269.653,479.814,253.73,469,247Zm-52,4c-1,12.966,13.459,21.644,25,25C436.392,266.436,428.226,254.922,417,251Zm64,24c-1.85,4.271-2.86,6.367-3,13l2,2h1l1-2C483.436,283.144,486.112,277.927,481,275Zm-50,9c-6.417,3.381-10.139,4.121-14,10h3l14-8-1-2h-2Zm71,12c-3.475,5.71-4.419,12.144-6,18v1h1C501.232,312.329,507.58,301.733,502,296Zm-40,7-18,11h3C450.447,312.825,464.021,303.959,462,303Zm16,18c-7.057,4.243-13.79,5.733-16,15h2c6.726,2.075,24.512-9.113,27-15H478Zm206,49c16.931,0.216,33.76,37.57,19,47h-5c-11.065-4.392-28.354-27.8-20-41C679.817,372.252,680.972,372.291,684,370Zm42,2c9.265-.092,10.416,2.047,15,6-1.474,15.953-8.634,35.6-27,37v-2C705.56,399.121,716.053,378.667,726,372Zm-40,6c-5.927,11.8,5.642,24.836,13,30h1v-7c-2.716-9.251-5.243-15.4-10-22Zm42,2-4,3q-2,10-4,20h1l6-5c2.807-5.938,7.159-9.591,5-18h-4Zm39,13a33.248,33.248,0,0,1,13,5q0.5,4,1,8c-7.751,10.274-29.9,30.272-47,23v-4l3-2c14.892-7.144,25.7-8.054,36-19v-1l-4-2c-18.014,6.824-28.859,18.63-44,28-3.827-1.321-2.08,0-4-3q-0.5-1.5-1-3C735.536,412.005,749.453,403.344,767,393ZM652,403c19.316-.419,38.526,8.086,47,19-5.07,24.62-42.612,4.271-53-4q-0.5-4.5-1-9Zm-146,2-1,5h1v-2l3-3h-3Zm148,6q-0.5,1-1,2c5.988,6.257,22.708,17.75,34,9C675.489,417.578,668.347,411.093,654,411Zm54,9,8,1c1.838,5.172,3.662,10.214,2,16l5,1c0.555-4.975-.19-3.872,3-6,13.868-5,34.256,9.435,42,18q-0.5,4.5-1,9c-6.835,8.575-19.437,5.872-31,3,3.013,4.429,4.331,7.317,3,14l-6,3c-16.3-4.783-26.946-13.839-26-33l3-2,10,5-4-9c-3.571,1.416-3.843,1.539-8,1l-5-6q-0.5-3.5-1-7Zm2,9v0Zm-102,8c0.553,5.7,2.289,9.474,6,12v-6Zm116,2c4.205,11.272,19.094,21.148,36,16v-3C749.915,445.584,740.045,439.838,724,439Zm-98,4-4,1q-0.5,3.5-1,7h1l8-6Zm61,1c-9.625,3.813-25.008,1.434-28,13l3,1C669.926,455.929,685.639,452.313,687,444Zm28,11a24.285,24.285,0,0,0,16,15v-1ZM596,470c1.218,8.633,7,12.311,13,16h1v-6Zm28,4c-5.025,3.441-4.873,4.091-7,8q0.5,1,1,2l15-6q-0.5-2-1-4h-8Zm-172,5q-1,2.5-2,5l3,1,6-3-2-3h-5Zm244,18c-4.617,2.189-7.907,2.449-11,6l2,3c15.151-.237,24.385.321,36,5l-7-12Zm-174,6-5,3,2,3c10.238,2.755,28.474,8.705,39,5h-2C548.9,506.862,536.014,502.976,522,503Zm108,4-10,5c1.537,4.2-.184,2.448,4,4l8-8Zm-30,2-2,3,3,6,10,2,2-1q-0.5-4-1-8Zm176,13c-8.969,8.037-13.96,14.625-17,29h1c7.6-6.694,18.167-17.029,20-29h-4ZM636,532l-5,6,3,7,2-1C637.449,538.44,640.836,535.08,636,532Zm-19,11c-2.974,2.173-3.289,1.137-5,5l17,5q-0.5-1.5-1-3C624.093,546.286,623.928,544.266,617,543Zm518,0c14.88,5.075,22.02,26.585,24,45,5.77,53.757-52.44,46.593-69,87l-6-1c-1.06-6.03-3.59-5.025-5-9-8.99-25.372,36.05-53.709,46-70,10.83-17.742,2.93-29.872,7-51Zm-425,4-4,3-2,1q0.5,1,1,2c15.206,1.9,32.656,5.309,45,11C744.115,552.234,727.4,546.869,710,547Zm-410,4c6.078,25.451-18.37,71.9,10,86,13,3.04,26.311-9.942,32-18l-3-6,2-2c17.607,0.657,23.41-3.144,31-12-7.489-23.413-35.02-23.3-56-36Zm246,4-3,17,2,1h1C547.524,565.783,549.6,559.683,546,555Zm593,3c1.57,64.016-46.74,60.014-53,101,0.33,0.333.67,0.667,1,1l3-2c14.38-27.792,71.21-23.491,61-73C1148.94,575.033,1147.45,565.808,1139,558Zm-572,1v5c5.62,4.716,8.767,8.379,18,10l-2-2C579.506,565.159,574.536,561.933,567,559Zm52,13-8,20,7-4C620.383,583.049,624.646,576.6,619,572Zm-34,11-5,1-8,17,2,2c7.4-4.039,13.227-10.33,15-20h-4Zm-130,2c-14.257,8.12-35.4,2.37-45,9q-0.5,4-1,8l2,2c6.5,0.914,10.039.146,14,2v5c-4.913,1.816-5.457,2.84-6,9l1,2h7c13.552-6.171,25.373-25.26,35-36v-1h-7Zm81,1c-6.474,3.675-10.556,5.257-14,12h5a39.719,39.719,0,0,0,12-12h-3Zm190,4c-14.667,5.731-32.9,3.246-48,9-34.574,13.175-57.572,42.393-85,63-11.974,9-28.726,20.665-45,11-0.792-4.443-.665-5.556,1-9,5.7,2.779,6.979,4.856,16,5,16.721-9.146,30.585-25.7,45-32v-1c-167.919-11.792-303.9,88.376-338,223q-2,31.5-4,63c-1.806,38.864,30.344,58.908,42,86,12.919,30.03,3.5,61.12-5,88q13-1.005,26-2,5-10.995,10-22c4.59-14.45,2.786-25.97,4-35q-2.5-10.5-5-21c-6-18.918-9.21-33.579-19-50-10.947-18.361-23.891-33.914-26-62-5.929-78.937,98.585-162.591,151-195,14.3-8.841,66.442-42.756,87-37,5.141,21.358,34.171,35.964,55,22,15.047-10.087,20.367-24.176,31-39,22.859-31.868,67.727-55.008,116-61,63.342-7.862,62.947,52.841,113,54l-2-2C827.08,609.431,772.929,593.213,726,590Zm454,9,6,1c13.32,42.28-10.3,61.476-47,73-7.62,2.392-15.86,5.785-25,4,0.33-.667.67-1.333,1-2,0.02-24.936,22.73-22.395,39-36C1166.19,628.807,1172.67,614.2,1180,599Zm-440,3c-15.491,5.868-33.119,5.216-49,11l-35,19v1c54.942-.323,104.633,6.609,155,9q-0.5-1-1-2C783.165,625.451,789.119,601.675,740,602Zm312,1,11,2c5.48,12.517,6.8,22.993,3,37h-4c-9.25-8.919-19.42-19.2-15-36C1048.67,605,1050.33,604,1052,603Zm2,8c-0.33,2-.67,4-1,6q3.495,6,7,12c0.67-1,1.33-2,2-3C1060.67,620.852,1062.04,613.1,1054,611Zm-175,2c17.324,34.487-11.384,49.38-48,42-32.97-6.645-68.461-11.566-108-10l-43-3c-23.794,2.165-35.376-6.205-46,12v1c34.843-1.45,70.879,3.96,103,10l67,4,73,16C927.258,694.419,916.369,627.979,879,613Zm302,2c-4.85,13.464-16.63,27.97-30,36-10.82,6.5-21.51,6.156-28,17C1146.34,668.119,1200.66,636.945,1181,615ZM956,632c-9.937,8.219-14.749,15.767-18,31h1c9.155-6.167,18.352-15.5,21-28Zm84,9c21.06-.416,30.87,23.273,27,38h-2c-5.79,1.492-7.52-3.091-12-5-14.05-5.991-26.95.126-27-20,0.67-2,1.33-4,2-6Zm2,8q-4.005,2.5-8,5c0.89,11.4,16.44,12.474,26,14C1056.58,658.682,1053.03,650.885,1042,649Zm77,20,3,1Zm-128,1c-10.779,8.84-8.314,14.6-13,28l-17-1-4,6c4.894,16.816,31.147,19.02,45,27-2.17-17.955,3.21-46.383-5-60h-6Zm173,2c1.67,0.333,3.33.667,5,1v8a34.58,34.58,0,0,0-22,11v1c18.97,0.27,30.83,1.981,45-3,3.85,2.5,5.84,2.617,8,7,0.33,2,.67,4,1,6-1.96,4.066-2.85,6-7,8-4.26,3.475-7.55.786-10-2,0.33-1.333.67-2.667,1-4,5.8-.606,6.55-0.965,8-6-16.55,3.512-25.78,2.215-45,2,6.24,7.7,14.88,10.276,22,17,0.33,1.667.67,3.333,1,5-3.08,1.886-4.9,3.57-9,2-9.94-4.613-24.79-19.462-29-30C1142.55,684.445,1151.25,679.8,1164,672Zm-67,7c6.5,1.613,13.25,2.282,18,5-0.85,2.745.57,2.776-2,5l-20-1a83.55,83.55,0,0,0-39,18v1c26.69,4.882,45.92,4.19,62-15,1.67,0.333,3.33.667,5,1v2c1.31,2.72.44,1.923-1,4-12.64,27.772-63.17,19.555-87,12l3-7c14.95-1.219,21.84-12.883,33-18ZM858,696c-6.927,6.006-11.822,11-12,24h2l4,1,7-5c1.827-7.033.357-14.582,2-20h-3ZM246,710l-6,7q-0.5,2.5-1,5l1,1,2-2c4.8-1.162,6.478-2.738,9-6l-2-5h-3Zm551,3-3,3,2,2c1.392,1.923.1,0.6,2,2,3.508,2.524,10.561,2.87,14,0l-3-4Zm325,5c11.11,2.611,26.98,4.456,36,12,20.58,17.209,28.37,66.632,2,80-1.33-1-2.67-2-4-3,1.03-36.8-4.53-69.538-37-80v-6Zm-36,12c52.86,3.414,76.95,58.039,51,99-1.67.333-3.33,0.667-5,1-5.22-11.882-1.46-30.492-7-41-10.39-19.705-38.3-30.141-41-56C1084.67,732,1085.33,731,1086,730Zm54,0c8.73,11.752,19.79,22.644,24,39q1.005,10.5,2,21C1171.42,763.036,1164.33,737.191,1140,730Zm-75,2c2.33,0.667,4.67,1.333,7,2,4.73,19.478,11.85,46.859-16,49q-4.995-3.5-10-7C1043.92,754.434,1059.37,743.461,1065,732Zm-850,7c-1.414,3.091-.715.018-1,4,4.3,6.065,7.39,11.207,14,15h1q0.5-2.5,1-5l-2-2C225.619,744.031,221.646,741.68,215,739Zm850,2c-3.77,10.047-14.15,23.375-10,33h5C1072.18,770.2,1072.84,751.284,1065,741Zm-818,1a78.1,78.1,0,0,0-9,10q0.5,1,1,2c5.8-2.434,10.444-4.338,14-9l-2-3h-4Zm848,0c15.12,20.1,40.34,32.839,42,66,0.67-.333,1.33-0.667,2-1C1142.94,775.184,1130.88,745.155,1095,742Zm-347,6c-15.316,11.906-11.252,35.766-18,53,10.928-3.453,40.329-4.528,46-14,2.408-2.58,4.093-6.1,1-10-3.358-6.8-10.132-5.812-14-11q-2.5-8-5-16l-3-2h-7Zm343,15c9.12,5.921,14.16,19.572,13,30-2.1,3.365-3.2,5.172-7,7-1.67.333-3.33,0.667-5,1l-6-4C1082.62,785.318,1084.03,769,1091,763Zm-231,9-7,3v1c2.378,0.286,10.827,3,8,4-0.063,8.307-6.545,3.709-12,8l7,5v5c-8.327,3.843-15.934,5.708-18,16,8.115-2.127,9.16-7.013,18-6q-0.5,7.5-1,15c12.248-4.092,17.2-27.774,25-37-0.605-3.074.406-4.643-2-7C873.835,774.906,866.769,773.471,860,772Zm-621,7-7,2v1h21C249.39,778.629,246.614,778.793,239,779Zm853,0v12c0.67,0.333,1.33.667,2,1l3-2v-5C1095.38,781.8,1095.15,780.811,1092,779Zm-889,3a20.4,20.4,0,0,0-4,4l3,3c9.563,1.387,13.647-1.413,21-4v-1Zm34,26-6,4q0.5,8,1,16l13-3c1.215-3.43,2.668-6.008,1-10l-6-7h-3Zm-26,2c-7.271,3.5-12.782,3.211-15,12h2l26,4v-6q-1-4.5-2-9Zm699,1-20,6h2c6.513,8.293,24.083,2.456,29-3l-2-3h-9Zm-31,25c-6.081,8.9-9.264,18.4-13,31h3v-2C874.258,861.768,881.819,839.621,879,836Zm46,1-15,4v2c11.032,2.647,18.637,5.234,28-1l-2-3ZM196,867l10,15h9l-2-2C210.307,873.291,204.68,867.8,196,867Zm-27,4c0.255,5.231,3.533,11.1,8,15l4-1q0.5-1,1-2C178.164,877.016,176.719,873.3,169,871Zm12,22q-2.5,9.5-5,19C181.394,908.67,184.445,896.5,181,893Zm728,7c3.407,1.4,3.073,1.345,5,4q-0.5,2-1,4c-3.6,1.372-3.172.9-5,4,7.166,2.367,5.688,18.17,3,25,5.541-2.129,4.754-4.908,11-4q0.5-3,1-6c6.584,0.289,5.82.588,8,5l-2,3c-9.9,1.731-7.8,9.135-19,11-7.462-7.245-8.93-25.452-10-38l4-7Zm-52,4c6.584,0.289,5.82.588,8,5l-2,3h-6v-8Zm68,5,6,1c-0.085,6.472-.25,6.449-4,9l-2-2c-2.078-2.024-1.365-1-2-5Zm-45,4,6,7-4,8-5,2-4-1q-0.5-1.5-1-3c2.341-6.409,5.181-5.431,4-12Zm37,4c4.419,0.774,3.714.6,6,3-0.871,4.5-.923,3.444-3,6l-4-1q-0.5-3.5-1-7Zm-60,1,6,1q-0.5,3-1,6c-2.887,3.8-4.139,2.956-8,1v-5Zm-9,5,5,2c0.017,6.382,2.81,7.833,1,14h-1l-6-1c-2.133-4.643-3.242-7.747-2-14Zm23,7,4,1q0.5,1,1,2l-3,8c-4.552,1.35-7.727,2.015-13,1l-2-5C862.736,933.219,866.408,934.5,871,930ZM259,987l-4,6,5,22c0.333-.67.667-1.33,1-2C265.927,1005.64,267,990.966,259,987Zm-18,46c-0.667.33-1.333,0.67-2,1v4c4.863,6.03,7.137,9.68,15,13,0.333-.67.667-1.33,1-2C250.741,1042.89,248.135,1036.47,241,1033Zm-135,4c8.852,0.29,9.462,2.73,13,8v3l-3,6h-5v-2c-0.667-2.33-1.333-4.67-2-7-8.015,7.32.587,6.61,3,13q2,18,4,36c4.23,11.03,15.332,18.66,17,30-4.542.4-4.076,1.15-7-1-18.459-10.86-24.1-4.94-45-10,1.729,2.92,2.06,4.1,1,8-2-.33-4-0.67-6-1-1.333-.67-2.667-1.33-4-2,0.333-2.33.667-4.67,1-7,1-1.67,2-3.33,3-5,7.523-1.61,27.217-.97,34,1-6.409-7.6-19.194-7.03-26-14-2.051-2.1-3.46-8.86-5-11-4.6,1.47-3.528,1.87-6,5,3.1,3.93,5.387,4.9,4,11H76c-1.333-.33-2.667-0.67-4-1l-5-6c-3.674-9.9,2.3-16.75,12-17,10.624,4.66,16.283,14.45,30,21q-2.5-16.995-5-34c-3.658-6.39-6.285-4.3-7-14C100.1,1042.47,101.714,1040.3,106,1037Zm33,9c2.666,0.33,5.334.67,8,1,21.46,10.78,3.36,57.04,22,77-1.146,5.31-1,3.96-5,6C135.865,1120.43,104.071,1071.46,139,1046Zm36,7c41.2-.84,33.806,62.62,17,82-2.822-1.46-3.186-1.61-5-4l4-9c-10.407-17.39-33.738-45.06-21-66Zm-34,1c-18.954,20.47-4.263,50.25,13,62-3.722-19.74-1.41-40.82-7-60C145,1055.33,143,1054.67,141,1054Zm37,7c-11.29,11.43,7.292,40.29,17,50h1c3.993-24.88-.091-37.05-13-50h-5Zm81,2q-2.5,6.495-5,13c7.662-1.12,10.662-4.11,16-7C267.77,1062.11,264.469,1064.29,259,1063Zm-24,12v8c1,1.33,2,2.67,3,4,0.667-.33,1.333-0.67,2-1,0.893-5.51,1.2-4.35,0-10C238.333,1075.67,236.667,1075.33,235,1075Zm84,27-34,9c-36.386,18.05-55.24,52.96-31,96,0.667-.33,1.333-0.67,2-1-1.01-36.42,50.134-97.53,92-74,38.324,21.54,3.176,72.56-16,90-6.023-.66-4.909-0.78-7-5,3.921-21.9-12.465-57.43-25-71-0.667.67-1.333,1.33-2,2-4.638,2.01-7.374,5-10,9,6.587,8.56,12.4,15.89,15,29q0.5,13.005,1,26c4.313,12.66,15.838,19.32,20,33,6.851,22.53,3.594,79.37,2,106q-0.5,303.975-1,608-0.5,106.485-1,213c0,15.58-3.146,73.97-1,78q7.5,13.005,15,26c7.336,23.15-2.043,54.84,14,70-3.506-20.37,6.785-52.55,3-73-2.614-14.12-25.707-39.58-16-49h1q3.5,4.995,7,10,1.5-407.46,3-815-2.5-67.5-5-135c-2.389-16.68-10.5-27.11-10-44,0.671-22.91,43.452-52.37,47-84C385.837,1121.8,355.31,1101.55,319,1102ZM97,1130c16.741,1.44,61.986,14.84,49,34-12.142-.51-26.8-3.31-40,2-13.515,5.43-17.158,15.23-35,13-1.333-2.33-2.667-4.67-4-7C58.41,1147.15,80.761,1137.64,97,1130Zm221,6q-5.5,2.505-11,5l6,6c7.587,19.11,15.331,36.13,19,60l4-3C347.718,1181.25,387.609,1134.3,318,1136Zm-143,1q5,1.005,10,2c2.408,7.69,5.869,13.09,4,23l-6,6c-11.661.37-12.738-2.31-17-9C167.244,1150.1,169.9,1142.09,175,1137Zm-75,1c-14.685,5.9-30.106,11.18-26,32,1.333,0.67,2.667,1.33,4,2,16.132-6.2,34.5-23.52,59-17C128.725,1143.72,114.446,1140.31,100,1138Zm77,8q-1.5,6.495-3,13h2c3.154,0.87,3.177.3,6-1C181.933,1151.53,180.82,1148.61,177,1146Zm105,17q-5,7.995-10,16c4.283,9.93,17.067,12.94,22,23h1C295.71,1183.1,292.271,1170.75,282,1163Zm-147,15q18.5,1.005,37,2v5c-7,10.69-51.171,49.71-67,26-1-1.67-2-3.33-3-5C104.825,1184.76,118.238,1186.29,135,1178Zm-4,9c-9.189,5.17-18.626,6.91-21,19,20.744,9.86,35.419-9.23,49-18v-1H131Zm55,32q-5,2.505-10,5l-1,3c3,0.33,6,.67,9,1,1.333-2.33,2.667-4.67,4-7C187.333,1220.33,186.667,1219.67,186,1219Zm10,2c-0.667,2.67-1.333,5.33-2,8,3.868,4.41,5.64,9.93,12,12,0.333-.67.667-1.33,1-2C210.011,1228.2,206.332,1223.68,196,1221Zm-47,23c-0.333.33-.667,0.67-1,1q4.5,2.505,9,5c4.2-1.54,2.448.18,4-4h-3C155,1245.33,152,1244.67,149,1244Zm20,9-6,3c3.746,6.01,1.129,17.45,5,22,1-.33,2-0.67,3-1C175.027,1267.25,174.573,1261.97,169,1253Zm85,12,1,3h2C255.4,1265.3,256.661,1266.62,254,1265Zm12,14c-1,.33-2,0.67-3,1v1q6.5,1.005,13,2v-2Q271,1279.995,266,1279Zm-32,12c-1.667.33-3.333,0.67-5,1l2,6q8,3.495,16,7c-0.333-2.67-.667-5.33-1-8Zm-35,21c-3.009,5.42-2.856,7.48-5,14,0.333,0.33.667,0.67,1,1,4.407-3.64,7.307-7.51,8-15h-4Zm29,13-3,6c2.666-.33,5.334-0.67,8-1v-1C231.086,1326.31,231.37,1326.45,228,1325Zm2,13c-5.412,3.65-7.856,6.29-12,11l1,3c0.667,0.33,1.333.67,2,1,6.122-4.5,8.865-7.32,12-15h-3Zm-44,1q-3.5,4.005-7,8c1.373,1.9.973,1.64,3,3h7q2.5-4.995,5-10C191.334,1339.67,188.666,1339.33,186,1339Zm44,76c2.333,0.33,4.667.67,7,1,0.072,8.34-.026,8.24-5,12-3.739-2.69-4.209-4.22-6-9C227.333,1417.67,228.667,1416.33,230,1415Zm35,44c-3.412,3.54-7.454,8.58-12,8q0.5,6,1,12h1c0.333-.67.667-1.33,1-2C261.724,1474.26,268.642,1465.06,265,1459Zm-42,24c-1.667,1.33-3.333,2.67-5,4,3.473,11.17,8.857,19.69,19,24q3-7.995,6-16C234.207,1491.91,232.879,1485.22,223,1483Zm60,35c-14.9,10.02-41.547,5.76-36,30,1.386,6.06,3.142,7.5,9,9q4-4.995,8-10c2,0.33,4,.67,6,1l-3,9c0.667,1.67,1.333,3.33,2,5l8-3c6.289-12.71,6-24.86,9-41h-3Zm-95,141c-2,.33-4,0.67-6,1q-3,4.005-6,8c-7.116,14.08,13.31,41.5,15,59,0.667-.33,1.333-0.67,2-1,11.531-27.54,47.177-23.41,45-61l-5-3c-16.266,1.14-21.464,16.7-31,25-1-.67-2-1.33-3-2v-1c1.209-7.97,6.827-10.9,4-16C199.812,1662.74,194.264,1661.17,188,1659Zm94,107c-4.8,10.9,1.26,17.69,0,29,0.667-.33,1.333-0.67,2-1C285.091,1784.64,288.8,1772.24,282,1766Zm-33,24c5.268,9.46,20.112,16.14,29,22,0.333-.33.667-0.67,1-1-0.333-.33-0.667-0.67-1-1C277.372,1797.69,264.179,1790.89,249,1790Zm-28,50c-7.287,2.69-16.437,1.67-22,5-4.531,14.43-.328,23.81-1,37h-2c-1,.33-2,0.67-3,1-0.667-.67-1.333-1.33-2-2l-3-24c-17.989,11.77-21.246,41.42-30,57,3.659,4.06,9.954,5.38,15,8v4c-3.932,3.97-7.145,6.76-8,14,12.088,23.11,13.885,20.55,26,2,2,0.33,4,.67,6,1-0.779,7.78-1.817,8.44,1,14,9.651,2.85,25.011-.85,33-6,2.055-7.36.345-12.53,2-20h5q1.5,4.995,3,10l5-3c4.673-14.04,16.04-21.01,12-39-1.666-1.67-3.333-3.33-5-5-5.928,2.89-9.139,5.6-15,6q-0.5-3-1-6c5.254-5.24,12.047-7.29,16-14-4.676-10.12-8.286-21.77-17-28h-2c-5.118,7.89-9.576,18.31-17,24-1.333-.67-2.667-1.33-4-2v-4q8-12.495,16-25Q225,1842.5,221,1840Zm38,146c-5.938,5.5-9.829,9.41-10,21h1c2-1.67,4-3.33,6-5,2.211-5.36,4.888-7.1,6-14C261,1987.33,260,1986.67,259,1986Zm-141,21-6,6c0.644,3.63.4,3.03,2,5,6.356,10.37,24.151,14.25,36,19C147.357,2021.9,135.9,2007.15,118,2007Zm56,6c-0.667,2.33-1.333,4.67-2,7,2.492,5.96,5.137,9.51,10,13,3.023-1.26,1.2.02,3-2,2.054-4.43.532-10.21-2-13C180.754,2014.41,179.353,2013.64,174,2013Zm110,5c-1,1.33-2,2.67-3,4-0.61,10.88,1.6,16.82,9,22,1.457-11.66,3.339-16.91-2-26h-4Zm-34,13c-10.359,4.37-20.094,6.34-22,19,1.333,0.33,2.667.67,4,1h1C235.487,2046.8,250,2031,250,2031Zm-62,14c-1.154,15.12-2.626,29.43,9,37,1-.67,2-1.33,3-2,0.333-1.67.667-3.33,1-5C204.338,2065.88,194.693,2050.75,188,2045Zm-58,19c-15.185,5.65-32.538,3.11-42,14v1c0.667,0.33,1.333.67,2,1,22.163,4.79,38.436-7.25,54-14v-1Q137,2064.505,130,2064Zm154,0c-5.229,2.48-9.377,3.13-13,7v1c12.174,3.51,26.809,2.04,40,6C304.808,2066.68,296.651,2065.87,284,2064Zm-120,19c-3.026,13.64-19.281,33.82-10,46,1-.33,2-0.67,3-1C165.529,2117.6,175.858,2096.32,164,2083Zm90,60c2.341,10.9,13.481,16.51,23,20C270.912,2152.98,265.239,2148.02,254,2143Zm51,15c-2.271,8.18-2.206,16.71-2,26q6.5,7.995,13,16C316.607,2182.71,315.771,2166.08,305,2158Zm-20,41-2,3c0.667,0.67,1.333,1.33,2,2,5.477,8.38,20.344,12.02,31,15v-5C302.942,2211.38,301.16,2200.54,285,2199Zm-39,5c1.667,0.67,3.333,1.33,5,2-0.614,45.6,44.478,52.8,64,81,12.082,17.45,11.718,48.78,19,68,6.567,17.34,19.628,28.6,27,44h2c5.3-43.06,28.8-89.39,79-80,10.572,1.98,17.58,2.31,24,8,17.215,15.25,13.7,31.08,22,57q13.5,21,27,42c-1.632,2.56-1.232,2.42-4,4-26.133,9.34-61.027-37.6-96-18-23.635,13.25-26.7,51.9-17,80,15.964,46.26,60.04,69.54,97,95,120.688-28.99,221.457-30.07,264,83,8.373,22.25,19.156,51.66,11,80-29.747,103.37-260.858,183.01-156,315,10.672,13.43,22.07,28.95,36,39,22.2,16.02,67.493,30.04,109,24,97-14.12,203.385-36.8,304-53,65.23-10.51,150.63,14.3,176,48-0.33,2-.67,4-1,6h-4c-78.91-64.32-176.77-48.91-282-24q-43.5,5.505-87,11c-63.591,14.15-153.844,35.86-213-1-16.6-10.35-30.181-26.75-42-42-114.165-147.31,124.6-219.97,154-331,7.142-26.97-8.4-61.09-16-79-38.215-90.08-149.552-104.21-246-70-26.591,9.43-43.558,27.89-67,38v1c35.547-9.74,74.987-31.87,120-28,80.864,6.95,196.371,50.5,161,153-10.258,29.72-40.276,48.06-62,67-46.8,40.81-85.1,66.67-112,129-8.41,19.49-20.583,47.24-13,76a225.274,225.274,0,0,0,20,49c11.623,20.31,25.628,36.85,45,49,30.086,18.87,67.445,24.39,109,32,125.2,22.93,213.531-16.44,318-47,69.34-20.29,174.27-12.41,215,32-0.33,1.67-.67,3.33-1,5-16.76-1.16-31.15-16.67-45-23-30.84-14.09-75.89-22.11-116-15-129.94,23.04-230.177,83.82-373,56-62.792-12.23-120.779-24.11-151-68-10.8-15.68-18.063-36.32-25-55-12.76-34.36.02-72.58,11-99,23.515-56.59,67.522-91.79,112-127,20.4-16.15,43.656-33.06,57-56,42.455-72.97-52.058-142.72-113-145,22.975,31.46,61.541,73.99,44,130-18.8,60.03-74.386,86.65-112,128-25.831,28.4-41.958,59.07-53,103-5.914,23.53-7.97,42.61-2,68a212.154,212.154,0,0,0,22,55c12.767,21.71,28.566,44.05,48,59,37.821,29.09,79.648,47,132,63,29.309,8.96,67.4,6.55,100,4,107.59-8.42,197.349-42.61,293-67,40.38-10.3,99.43-15.05,136,0,9.97,4.1,33.28,9.34,29,21q-19.5-8.505-39-17c-21.91-6.41-57.64-6.54-84-2-89.85,15.49-175.531,49.58-269,68-187.829,37.02-342.241-45.37-377-187-6.566-26.75.867-57.16,6-77,15.693-60.65,51.372-93.4,91-132,29.736-28.97,68.816-56.25,75-108,5.992-50.14-33.259-78.21-55-113H560c18.709,27.62,53.182,69,45,115-9.379,52.72-55.729,83.94-90,113-38.088,32.3-71.952,77.2-89,134-8.39,27.96-16.713,66.88-7,97,5.857,18.16,17.032,34.75,27,49,15.171,21.68,27.5,45.75,48,62,25.865,20.51,50.206,38.9,83,53,125.829,54.12,286.814,9.37,403-20,64.05-16.19,130.56-45.09,207-28,15.14,3.38,40.03,5.89,49,16-0.87,4.5-.92,3.44-3,6-49.3-19.37-117.35-28.29-175-7-25.06,9.25-59.29,14.84-90,24-81.672,24.36-193.636,52.63-292,41-41.847-4.95-89.4-17.13-124-33-58.853-26.99-128.962-106.37-144-177-7.3-34.28,5.251-76.91,15-103,7.828-20.95,19.255-39.14,31-56q-29.5,19.005-59,38c2.976,6.48,7.091,10.44,10,18-1,1.67-2,3.33-3,5-1.517,1.93-1.791,1.77-4,3-10.227-4.74-7.9-10.05-12-21l-3,3c-19.84,7.01-36.845,30.07-43,51,48.884-4.21,9.46,65.33-14,67-1-.67-2-1.33-3-2-6.584-22.86-26.929-38.97-20-59,9.039-4.51,16.881-4.91,29-3,0.73-12.18,6.525-18.74,10-28-8.113,4.06-13.081,8.55-25,9-3.541-1.64-8.48-4.61-7-8,0.333-2.33.667-4.67,1-7,12.381-9.19,24.3-8.83,41-5q4.5-4.995,9-10v-1c-7.618-3.07-11.023-9.35-17-14-9.066,5.41-24.286,5.52-29-4-4.252-5.88-7.945-30.92-7-38,2-.33,4-0.67,6-1,11.959,5.86,33.125,9.84,38,23,2.887,6.18.04,10.7-2,14a54.776,54.776,0,0,0,18,15q7-4.995,14-10c-6.54-12.06.563-40.2,17-26l4,3c-0.021,6.14-1.016,8.42-3,12,40.664-21.01,67.5-49.58,99-79,30.789-28.75,66.02-51.39,88-89,22.749-38.93-.951-104.73-28-130-4.2,32.84-24.953,47.42-41,68,10.789,2.74,27.886,28.09,16,42-2.271,4.94-4.564,5.33-9,8-2.333-.67-4.667-1.33-7-2-6.015-11.82-5.46-20.81-12-33v2c-13.032,11.93-22.376,44.35-12,62,3.481-2.46,6.024-3.62,12-4l9,6c0.819,15.53,8.206,21.37,5,36q-8.5,5.505-17,11c-13.287.1-20.938-7.27-29-13-4.441-13.66-.211-32.76,10-41-7.444-19.04,3.126-40.61,11-56q-21.5,16.995-43,34c4.257,16.57,3,41.58-4,55-20.6,2.26-12.564-22.43-15-34-5.112,14.58-29.3,68.11-17,83,1.8,2.04.015,0.71,3,2q-0.5-12.495-1-25h5c0.333,0.67.667,1.33,1,2,2.219,9.99,8.642,32.86-9,33-11.46-13.69-11.551-30.48-5-50-8.876,4.51-24.447,25.53-35,10-1.586-2.37-1.813-3.62-2-8,7.112-15.84,22.284-29.22,44-30,1.937-10.62,11.08-28.34,21-34-0.333-.67-0.667-1.33-1-2-7.718-1.88-34.538-11.38-30-20-1.013-4.74.358-5.81,2-10,21.3-4.01,32.744,4.48,40,20l3-3q19-14.505,38-29v-1c-17.582-.2-26.415-11.35-23-25,19.65-10.89,32.084,6.1,48,6q11.5-13.005,23-26c8.148-10.29,9.827-29.4,14-45H539c-40.268-3.74-147.487,36.99-164,63-2-.67-4-1.33-6-2-1.333-1.67-2.667-3.33-4-5,0.333-1.33.667-2.67,1-4q30.5-19.995,61-40c-72.388-1.24-97.651,96.98-135,139-2.666-1.33-5.334-2.67-8-4-14.765-54.32,11.3-84.68,36-119-10.818,5.6-31.2,25.83-43,21-3.508,18.07-22.859,39.95-29,59,11,2.56,17.3,9.07,17,23-2.681,5.39-4.276,6.6-10,9-7.783-2.51-10.139-5.72-16-9-0.259,14.29,24.7,20.13,18,38-1.392,1.92-.1.6-2,2-2.333.67-4.667,1.33-7,2-7.528-4.89-13.087-10.24-20-15h-1c-4.065,10.93-16.48,22.25-26,11,2.742-14.2,8.693-34.2,30-35l3-12c-6.795,5.35-9.35,11.04-21,12-5.092-2.91-5.88-5.06-8-11,5.4-15.11,17.021-23.52,38-23,3.687-16.75,12.152-27.97,20-42-0.333-.33-0.667-0.67-1-1l-51,24q-11.5,4.005-23,8c-4.965,4.06-5.581,13.75-11,18-7.726,6.05-19.567,11.05-23,21q0.5,11.505,1,23l-8,6c-1.333-.33-2.667-0.67-4-1-2-1.67-4-3.33-6-5-0.867-31.66,26.08-37.79,40-57l-43,15c-9.112,8.75-5.669,19.19-19,25-13.757,4.27-30.207-13.98-29-23q5.5-9.495,11-19c11.184-.62,11.727,3.48,19,6,14.447,5,60.794-8.03,72-18-4.844-2.01-5.9-4.49-9-8q0.5-4.5,1-9c0.667-1.33,1.333-2.67,2-4,11.95-.21,13.833,4.87,17,13l-3,6c27.045-12.58,61.926-21.57,84-40,17.688-14.77,21.946-33.01,46-45,17.37-8.66,39.247-12.41,61-16q15-1.005,30-2c-18.931-4.54-34.366-13.54-58-15-34.047-2.1-73.946,19.63-109,11,0.2,20.8-17.031,43.65-37,28-4.451-19,3.439-23.24,18-34-9.9-1.75-28.171-2.52-34-9v-1l3-3c19.034,0.32,30.684,2.48,45,9-5.474-18.42-16.4-55.06-30-67-9.379,1.32-7.7,3.77-18,3-1.333-2.33-2.667-4.67-4-7,0.333-2.67.667-5.33,1-8l7-6c1,0.33,2,.67,3,1,0.333,0.67.667,1.33,1,2l-4,9c0.667,0.67,1.333,1.33,2,2,6.53-3.22,16.857-2.73,24-7-3.122-7.39,2.725-13.06,0-21q-8.5-10.005-17-20c0.644,7.94,1.043,11.72-2,17-6.644.49-9.844,2.16-13,6,2.394,3.41,3.286,3.24,4,9-0.333.33-.667,0.67-1,1-5.588-.3-5.838-1.02-9-3-0.667-1.67-1.333-3.33-2-5,1.391-10.07,6.882-13.81,16-16-1.19-10.63-.313-14.41,8-18,15.712,8.5,40.068,48.24,14,61q4.5,10.005,9,20h1c1.642-5.43,6.654-8.26,8-12,2.829-7.86-5.874-12.95,2-19,7.71-9.87,16.527.07,22,6,4.091-2.64,8.521-3.12,14-2l6,6q-1,7.005-2,14c5.4,1.86,6.687,4.32,10,8q-0.5,4.5-1,9c-1.964,4.19-3.2,4.67-8,6,24.755,46.92,58.017,12.45,105,28,10.694,3.54,40.636,8.75,40,19,13.7-.2,23.669,2.71,34,5-32.683-25.36-63.4-39.36-83-78q-15.5-40.5-31-81c-17.34-4.39-42.265,10.39-65,7-33.285-4.96-43.162-35.88-66-51-10.272-6.8-27.493-2.4-35-6v-6c43.391-35.03,56.006-28.53,111-11-26.923-34.97-85.588-73.53-63-138C236.946,2220.74,238.854,2211.64,246,2204Zm1,26c-7.6,45.55,37.964,93.55,74,104-4.373-45.62-29.453-52.14-54-76C258.663,2249.9,254.313,2239.26,247,2230Zm-9,9c-8.931,63.55,40.3,94.99,73,134,6.477,7.73,11.325,19.39,16,26l-4,3h-1c-20.023-22.15-50.36-38.76-89-39,0.333,0.67.667,1.33,1,2,33.21,9.01,47.332,42.79,78,56,12.936,5.57,39.477,1.62,48,13q7.5,23.505,15,47c9.814,24.98,22.533,48.45,38,68,16.4,20.73,44.78,27.97,65,45l8-3c-13.481-15.38-35.115-21.89-52-34-14.883-10.68-31.8-36.13-40-53-19.112-39.34-10-117.07,51-104q29,10.995,58,22c-10.261-15.46-20.227-37.91-35-49-41.942-31.48-86.037,11.27-101,38-1-.33-2-0.67-3-1-13.021-9.63-26.221-25.68-33-41-3.262-7.37-3.805-20.52-10-25-25.828-16.71-49.67-23.82-66-52C246.818,2277.88,246.618,2250.06,238,2239Zm185,87c-30.615,15.03-37.8,28.65-50,59,32.566-25.36,64.348-44.15,107-12-0.333-.67-0.667-1.33-1-2C477.65,2342.11,458.878,2325.16,423,2326Zm-208,42q-8,5.505-16,11c39.444,1.64,72.149,81.86,118,52C273.864,2418.19,261.771,2379.26,215,2368Zm1,110c2.892,2.18,2.617,2.07,3,7-1,.33-2,0.67-3,1-1.333.33-2.667,0.67-4,1v-8C213.333,2478.67,214.667,2478.33,216,2478Zm34,24c-1.353,5.99,3.21,10.74,2,16-1.5,6.54-8.949,7.42-9,16q6,2.505,12,5c4.616,4.85-.267,16.12,9,11,6.258-4.45,6.688-13.57,13-18,1.9,1.37,1.636.97,3,3h7v-4c-5.027-2.16-8.207-3.54-11-8,1.153-3.03,4.239-9.75,2-13v-2q-6.5,2.505-13,5c-4.07-3.35-6.076-7.67-10-11h-5Zm-9,41c8.291,35.68,25.061,41.66,61,32-8.872-9.7-17.71-16.29-24-29-0.667.33-1.333,0.67-2,1-1.793,5.67-4.838,9.66-10,12-3.333.33-6.667,0.67-10,1-3.557-5.79-5.932-8.18-7-15C246.334,2544.33,243.666,2543.67,241,2543Zm-3,42c-8.388,6.69-17.716,6.81-19,21q0.5,1.5,1,3c1.333,0.67,2.667,1.33,4,2,14.516-4.99,15.069-13.09,19-26h-5Zm229,12c0.667,0.67,1.333,1.33,2,2C468.333,2598.33,467.667,2597.67,467,2597Zm-65,1q-17,1.995-34,4c-33.856,7.42-58.339,21.33-75,46,24.1-12.06,48.081-26.67,77-35q39-6.495,78-13Q425,2599,402,2598Zm49,10c-25.885,10.66-59.668,6.87-86,15-48.877,15.1-87.671,75.31-75,132,1.666-1.33,3.334-2.67,5-4q9.5-13.995,19-28c22.841-34.36,36.145-76.55,75-98,7.176-3.96,20.457-9.02,31-8l18,3q8-5.505,16-11v-1h-3Zm-265,73c1.333,1.67,2.667,3.33,4,5C188.667,2684.33,187.333,2682.67,186,2681Zm294,1c-2.333,1.33-4.667,2.67-7,4,0.667,0.67,1.333,1.33,2,2,2.632,4.69,6.4,5.35,11,8q8.5-2.505,17-5c-0.667-.33-1.333-0.67-2-1C495.791,2684.99,488.08,2684.34,480,2682Zm33,18c0.835,11.31,4.506,27.65,11,34,3.53-2.46,3.75-4.27,6-8C528.362,2716.15,524.975,2702.74,513,2700Zm-411,13q-3.5,7.005-7,14c4.794,4.68,7.835,14.88,16,13,9.589-2.28,12.979-11.27,16-20C113.543,2720.31,110.549,2716.47,102,2713Zm135,8c-10.741,5.25-20.038,5.93-24,18,0.667,0.33,1.333.67,2,1,6.684-2.9,20.44-12.19,23-19h-1Zm179,2c-0.667.33-1.333,0.67-2,1v3q14,7.005,28,14C437.234,2730.8,430.7,2723.35,416,2723Zm-171,7c-0.333,1.67-.667,3.33-1,5,3.21,4.2,4.248,7.18,9,10,1.333-.33,2.667-0.67,4-1C256.95,2733.58,252.872,2732.44,245,2730Zm-99,20c-1.212,6.09-2.993,7.92,0,12,0.667-.33,1.333-0.67,2-1Q147,2755.5,146,2750Zm81,6c-7.228,7.26-13.028,10.98-18,21q0.5,1.5,1,3c1.667-1.33,3.333-2.67,5-4C218.494,2769.6,228.135,2763.37,227,2756Zm8,4c-0.333,1.33-.667,2.67-1,4,3.332,6.23,8.319,12.07,16,14v-3C245.687,2772.59,241.837,2763.27,235,2760Zm209,0c-2.879,11.09-4.454,20.86-1,32,0.333-.67.667-1.33,1-2C448.234,2785.02,448.075,2765.95,444,2760Zm42,15c-1.333,1.67-2.667,3.33-4,5,2.151,9.09-3.972,15.92-1,21,2.449,4.28,13.5,11.01,19,12q6.5-4.995,13-10c0.333-.33.667-0.67,1-1-1.8-5.86-4.447-18.69-8-25C497.029,2776.57,492.848,2778.32,486,2775Zm9,14c3.067,1.49,3.215,1.11,5,4,0.865,3.15.3,3.18-1,6h-5l-3-6C492.333,2791.67,493.667,2790.33,495,2789Zm-83,2c-13.153,6.9-23.909,10.13-31,23,0.333,1.33.667,2.67,1,4,12.863-.93,27.539-16.6,32-26C413.333,2791.67,412.667,2791.33,412,2791Zm-94,113c1.376,7.08,1.935,19.49,5,25,7.974,2.01,13.088.28,21-2,0.667-2.67,1.333-5.33,2-8C340.025,2910.41,328.881,2907.56,318,2904Zm72,9c-1.333,1.33-2.667,2.67-4,4l1,10h2c1.429-4.3,7.052-11.22,5-12C392.667,2914.33,391.333,2913.67,390,2913Zm-60,51q-5.5,1.995-11,4c-0.667,1.33-1.333,2.67-2,4h5q7-4.005,14-8h-6Zm12,40c-5.608,5.24-11.812,14-18,18-1-.67-2-1.33-3-2,0.16-6.99,1.709-8.62,4-13v-1H312c-1.333,1.33-2.667,2.67-4,4,1.9,14.56,14.939,28.73,21,43l7-6c9.363-14.57,24.878-22.19,15-43h-9Z"/>
</svg>
